STARTFONT 2.1
FONT -Windows-³ª´®¹Ù¸¥°íµñ-medium-r-normal--15-100-96-96-p-140-iso10646-1
SIZE 15 96 96
FONTBOUNDINGBOX 14 15 0 -4
STARTPROPERTIES 17
FOUNDRY "Windows"
FAMILY_NAME "³ª´®¹Ù¸¥°íµñ"
WEIGHT_NAME "medium"
SLANT "r"
SETWIDTH_NAME "normal"
ADD_STYLE_NAME ""
PIXEL_SIZE 15
POINT_SIZE 100
RESOLUTION_X 96
RESOLUTION_Y 96
SPACING "p"
AVERAGE_WIDTH 140
CHARSET_REGISTRY "iso10646"
CHARSET_ENCODING "1"
DEFAULT_CHAR 12288
FONT_ASCENT 11
FONT_DESCENT 4
ENDPROPERTIES
CHARS 17176
STARTCHAR char0x0000
ENCODING 0
SWIDTH 1200 0
DWIDTH 12 0
BBX 0 0 0 0
BITMAP
ENDCHAR
STARTCHAR char0x0001
ENCODING 1
SWIDTH 600 0
DWIDTH 6 0
BBX 3 6 3 -3
BITMAP
E0
80
80
80
80
80
ENDCHAR
STARTCHAR char0x0002
ENCODING 2
SWIDTH 1200 0
DWIDTH 12 0
BBX 0 0 0 0
BITMAP
ENDCHAR
STARTCHAR char0x0003
ENCODING 3
SWIDTH 600 0
DWIDTH 6 0
BBX 3 7 3 2
BITMAP
80
80
80
80
80
80
E0
ENDCHAR
STARTCHAR char0x0004
ENCODING 4
SWIDTH 600 0
DWIDTH 6 0
BBX 4 7 0 2
BITMAP
10
10
10
10
10
10
F0
ENDCHAR
STARTCHAR char0x0005
ENCODING 5
SWIDTH 600 0
DWIDTH 6 0
BBX 1 12 3 -3
BITMAP
80
80
80
80
80
80
80
80
80
80
80
80
ENDCHAR
STARTCHAR char0x0006
ENCODING 6
SWIDTH 600 0
DWIDTH 6 0
BBX 6 1 0 2
BITMAP
FC
ENDCHAR
STARTCHAR char0x0007
ENCODING 7
SWIDTH 600 0
DWIDTH 6 0
BBX 4 5 1 1
BITMAP
60
F0
F0
F0
60
ENDCHAR
STARTCHAR char0x0008
ENCODING 8
SWIDTH 600 0
DWIDTH 6 0
BBX 6 12 0 -3
BITMAP
FC
FC
FC
CC
84
84
84
CC
FC
FC
FC
FC
ENDCHAR
STARTCHAR char0x0009
ENCODING 9
SWIDTH 1200 0
DWIDTH 12 0
BBX 0 0 0 0
BITMAP
ENDCHAR
STARTCHAR char0x000A
ENCODING 10
SWIDTH 1200 0
DWIDTH 12 0
BBX 0 0 0 0
BITMAP
ENDCHAR
STARTCHAR char0x000B
ENCODING 11
SWIDTH 600 0
DWIDTH 6 0
BBX 5 9 1 -1
BITMAP
38
18
18
28
20
60
90
90
60
ENDCHAR
STARTCHAR char0x000C
ENCODING 12
SWIDTH 1200 0
DWIDTH 12 0
BBX 0 0 0 0
BITMAP
ENDCHAR
STARTCHAR char0x000D
ENCODING 13
SWIDTH 1200 0
DWIDTH 12 0
BBX 0 0 0 0
BITMAP
ENDCHAR
STARTCHAR char0x000E
ENCODING 14
SWIDTH 600 0
DWIDTH 6 0
BBX 5 9 1 -1
BITMAP
18
68
58
68
48
48
58
D8
C0
ENDCHAR
STARTCHAR char0x000F
ENCODING 15
SWIDTH 600 0
DWIDTH 6 0
BBX 5 9 1 -1
BITMAP
A8
A8
50
50
D8
50
50
A8
A8
ENDCHAR
STARTCHAR char0x0010
ENCODING 16
SWIDTH 600 0
DWIDTH 6 0
BBX 6 12 0 -3
BITMAP
10
10
10
10
10
10
FC
10
10
10
10
10
ENDCHAR
STARTCHAR char0x0011
ENCODING 17
SWIDTH 600 0
DWIDTH 6 0
BBX 5 9 1 -1
BITMAP
08
18
38
78
F8
78
38
18
08
ENDCHAR
STARTCHAR char0x0012
ENCODING 18
SWIDTH 600 0
DWIDTH 6 0
BBX 3 10 2 -1
BITMAP
40
E0
40
40
40
40
40
40
E0
40
ENDCHAR
STARTCHAR char0x0013
ENCODING 19
SWIDTH 600 0
DWIDTH 6 0
BBX 3 10 2 -1
BITMAP
A0
A0
A0
A0
A0
A0
A0
00
A0
A0
ENDCHAR
STARTCHAR char0x0014
ENCODING 20
SWIDTH 600 0
DWIDTH 6 0
BBX 5 10 1 -1
BITMAP
78
A8
A8
A8
68
28
28
28
28
28
ENDCHAR
STARTCHAR char0x0015
ENCODING 21
SWIDTH 600 0
DWIDTH 6 0
BBX 6 7 0 2
BITMAP
10
10
10
10
10
10
FC
ENDCHAR
STARTCHAR char0x0016
ENCODING 22
SWIDTH 600 0
DWIDTH 6 0
BBX 6 6 0 -3
BITMAP
FC
10
10
10
10
10
ENDCHAR
STARTCHAR char0x0017
ENCODING 23
SWIDTH 600 0
DWIDTH 6 0
BBX 4 12 0 -3
BITMAP
10
10
10
10
10
10
F0
10
10
10
10
10
ENDCHAR
STARTCHAR char0x0018
ENCODING 24
SWIDTH 600 0
DWIDTH 6 0
BBX 3 10 2 -1
BITMAP
40
E0
40
40
40
40
40
40
40
40
ENDCHAR
STARTCHAR char0x0019
ENCODING 25
SWIDTH 600 0
DWIDTH 6 0
BBX 3 12 3 -3
BITMAP
80
80
80
80
80
80
E0
80
80
80
80
80
ENDCHAR
STARTCHAR char0x001A
ENCODING 26
SWIDTH 600 0
DWIDTH 6 0
BBX 5 3 1 2
BITMAP
10
F8
10
ENDCHAR
STARTCHAR char0x001B
ENCODING 27
SWIDTH 600 0
DWIDTH 6 0
BBX 5 3 1 2
BITMAP
40
F8
40
ENDCHAR
STARTCHAR char0x001C
ENCODING 28
SWIDTH 0 0
DWIDTH 0 0
BBX 0 0 0 0
BITMAP
ENDCHAR
STARTCHAR char0x001D
ENCODING 29
SWIDTH 0 0
DWIDTH 0 0
BBX 0 0 0 0
BITMAP
ENDCHAR
STARTCHAR char0x001E
ENCODING 30
SWIDTH 0 0
DWIDTH 0 0
BBX 0 0 0 0
BITMAP
ENDCHAR
STARTCHAR char0x001F
ENCODING 31
SWIDTH 0 0
DWIDTH 0 0
BBX 0 0 0 0
BITMAP
ENDCHAR
STARTCHAR char0x0020
ENCODING 32
SWIDTH 300 0
DWIDTH 3 0
BBX 0 0 0 0
BITMAP
ENDCHAR
STARTCHAR char0x0021
ENCODING 33
SWIDTH 600 0
DWIDTH 6 0
BBX 1 10 2 0
BITMAP
80
80
80
80
80
80
80
80
00
80
ENDCHAR
STARTCHAR char0x0022
ENCODING 34
SWIDTH 400 0
DWIDTH 4 0
BBX 3 3 0 7
BITMAP
E0
60
60
ENDCHAR
STARTCHAR char0x0023
ENCODING 35
SWIDTH 800 0
DWIDTH 8 0
BBX 7 9 0 0
BITMAP
34
24
7E
24
28
FE
28
48
48
ENDCHAR
STARTCHAR char0x0024
ENCODING 36
SWIDTH 800 0
DWIDTH 8 0
BBX 6 11 1 -1
BITMAP
20
78
A8
A0
E0
78
2C
24
AC
F8
20
ENDCHAR
STARTCHAR char0x0025
ENCODING 37
SWIDTH 1200 0
DWIDTH 12 0
BBX 10 11 1 -1
BITMAP
0100
6200
9200
9400
9400
6B80
0A80
1440
1440
2280
6380
ENDCHAR
STARTCHAR char0x0026
ENCODING 38
SWIDTH 1200 0
DWIDTH 12 0
BBX 9 10 2 0
BITMAP
7800
4800
4800
4800
3000
5200
8A00
8600
8600
7980
ENDCHAR
STARTCHAR char0x0027
ENCODING 39
SWIDTH 400 0
DWIDTH 4 0
BBX 2 3 1 7
BITMAP
C0
80
80
ENDCHAR
STARTCHAR char0x0028
ENCODING 40
SWIDTH 600 0
DWIDTH 6 0
BBX 3 13 2 -2
BITMAP
20
20
40
40
80
80
80
80
80
40
40
20
20
ENDCHAR
STARTCHAR char0x0029
ENCODING 41
SWIDTH 600 0
DWIDTH 6 0
BBX 3 13 1 -2
BITMAP
80
80
40
40
60
20
20
20
60
40
40
80
80
ENDCHAR
STARTCHAR char0x002A
ENCODING 42
SWIDTH 600 0
DWIDTH 6 0
BBX 4 5 1 2
BITMAP
A0
70
F0
60
B0
ENDCHAR
STARTCHAR char0x002B
ENCODING 43
SWIDTH 800 0
DWIDTH 8 0
BBX 6 7 1 1
BITMAP
20
20
20
FC
20
20
20
ENDCHAR
STARTCHAR char0x002C
ENCODING 44
SWIDTH 400 0
DWIDTH 4 0
BBX 2 3 1 -2
BITMAP
C0
40
80
ENDCHAR
STARTCHAR char0x002D
ENCODING 45
SWIDTH 800 0
DWIDTH 8 0
BBX 6 1 1 4
BITMAP
FC
ENDCHAR
STARTCHAR char0x002E
ENCODING 46
SWIDTH 400 0
DWIDTH 4 0
BBX 2 1 1 0
BITMAP
C0
ENDCHAR
STARTCHAR char0x002F
ENCODING 47
SWIDTH 600 0
DWIDTH 6 0
BBX 4 12 1 -2
BITMAP
10
10
20
20
20
20
40
40
40
80
80
80
ENDCHAR
STARTCHAR char0x0030
ENCODING 48
SWIDTH 800 0
DWIDTH 8 0
BBX 6 10 1 0
BITMAP
78
48
84
84
84
84
84
84
48
78
ENDCHAR
STARTCHAR char0x0031
ENCODING 49
SWIDTH 800 0
DWIDTH 8 0
BBX 3 10 2 0
BITMAP
20
E0
20
20
20
20
20
20
20
20
ENDCHAR
STARTCHAR char0x0032
ENCODING 50
SWIDTH 800 0
DWIDTH 8 0
BBX 6 10 1 0
BITMAP
78
44
04
04
08
10
20
40
80
FC
ENDCHAR
STARTCHAR char0x0033
ENCODING 51
SWIDTH 800 0
DWIDTH 8 0
BBX 6 10 1 0
BITMAP
78
84
04
0C
30
08
04
04
8C
78
ENDCHAR
STARTCHAR char0x0034
ENCODING 52
SWIDTH 800 0
DWIDTH 8 0
BBX 7 10 0 0
BITMAP
0C
0C
14
24
24
44
84
FE
04
04
ENDCHAR
STARTCHAR char0x0035
ENCODING 53
SWIDTH 800 0
DWIDTH 8 0
BBX 6 10 1 0
BITMAP
F8
80
80
80
F8
0C
04
04
8C
F8
ENDCHAR
STARTCHAR char0x0036
ENCODING 54
SWIDTH 800 0
DWIDTH 8 0
BBX 6 10 1 0
BITMAP
38
48
80
80
F8
84
84
84
84
78
ENDCHAR
STARTCHAR char0x0037
ENCODING 55
SWIDTH 800 0
DWIDTH 8 0
BBX 6 10 1 0
BITMAP
FC
04
08
08
08
10
10
20
20
40
ENDCHAR
STARTCHAR char0x0038
ENCODING 56
SWIDTH 800 0
DWIDTH 8 0
BBX 7 10 0 0
BITMAP
3C
66
42
42
3C
44
82
82
C6
7C
ENDCHAR
STARTCHAR char0x0039
ENCODING 57
SWIDTH 800 0
DWIDTH 8 0
BBX 6 10 1 0
BITMAP
78
C8
84
84
84
7C
04
0C
08
F0
ENDCHAR
STARTCHAR char0x003A
ENCODING 58
SWIDTH 400 0
DWIDTH 4 0
BBX 2 7 1 1
BITMAP
C0
C0
00
00
00
C0
C0
ENDCHAR
STARTCHAR char0x003B
ENCODING 59
SWIDTH 400 0
DWIDTH 4 0
BBX 2 9 1 -1
BITMAP
C0
C0
00
00
00
C0
C0
40
80
ENDCHAR
STARTCHAR char0x003C
ENCODING 60
SWIDTH 600 0
DWIDTH 6 0
BBX 4 12 1 -2
BITMAP
10
30
20
60
40
C0
C0
40
60
20
30
10
ENDCHAR
STARTCHAR char0x003D
ENCODING 61
SWIDTH 800 0
DWIDTH 8 0
BBX 6 3 1 3
BITMAP
FC
00
FC
ENDCHAR
STARTCHAR char0x003E
ENCODING 62
SWIDTH 600 0
DWIDTH 6 0
BBX 5 12 0 -2
BITMAP
40
40
20
20
10
10
18
10
20
20
40
C0
ENDCHAR
STARTCHAR char0x003F
ENCODING 63
SWIDTH 900 0
DWIDTH 9 0
BBX 5 10 1 0
BITMAP
70
88
08
08
10
20
20
00
00
60
ENDCHAR
STARTCHAR char0x0040
ENCODING 64
SWIDTH 1400 0
DWIDTH 14 0
BBX 12 12 1 -2
BITMAP
0F80
30C0
6020
4FB0
9910
9110
9110
9120
CF40
4080
2040
1F80
ENDCHAR
STARTCHAR char0x0041
ENCODING 65
SWIDTH 800 0
DWIDTH 8 0
BBX 8 10 0 0
BITMAP
18
18
14
24
24
22
7E
42
41
81
ENDCHAR
STARTCHAR char0x0042
ENCODING 66
SWIDTH 800 0
DWIDTH 8 0
BBX 7 10 1 0
BITMAP
F8
8C
84
8C
F8
84
86
86
84
F8
ENDCHAR
STARTCHAR char0x0043
ENCODING 67
SWIDTH 800 0
DWIDTH 8 0
BBX 7 10 1 0
BITMAP
3E
42
C0
80
80
80
80
C0
62
3E
ENDCHAR
STARTCHAR char0x0044
ENCODING 68
SWIDTH 900 0
DWIDTH 9 0
BBX 8 10 1 0
BITMAP
F8
86
83
81
81
81
81
82
86
F8
ENDCHAR
STARTCHAR char0x0045
ENCODING 69
SWIDTH 800 0
DWIDTH 8 0
BBX 6 10 1 0
BITMAP
FC
80
80
80
FC
80
80
80
80
FC
ENDCHAR
STARTCHAR char0x0046
ENCODING 70
SWIDTH 700 0
DWIDTH 7 0
BBX 6 10 1 0
BITMAP
FC
80
80
80
F8
80
80
80
80
80
ENDCHAR
STARTCHAR char0x0047
ENCODING 71
SWIDTH 900 0
DWIDTH 9 0
BBX 8 10 1 0
BITMAP
3E
61
C0
80
80
8E
82
C2
62
3C
ENDCHAR
STARTCHAR char0x0048
ENCODING 72
SWIDTH 900 0
DWIDTH 9 0
BBX 7 10 1 0
BITMAP
82
82
82
82
FE
82
82
82
82
82
ENDCHAR
STARTCHAR char0x0049
ENCODING 73
SWIDTH 300 0
DWIDTH 3 0
BBX 1 10 1 0
BITMAP
80
80
80
80
80
80
80
80
80
80
ENDCHAR
STARTCHAR char0x004A
ENCODING 74
SWIDTH 500 0
DWIDTH 5 0
BBX 4 10 0 0
BITMAP
10
10
10
10
10
10
10
10
10
F0
ENDCHAR
STARTCHAR char0x004B
ENCODING 75
SWIDTH 800 0
DWIDTH 8 0
BBX 7 10 1 0
BITMAP
86
88
90
A0
E0
90
98
88
84
86
ENDCHAR
STARTCHAR char0x004C
ENCODING 76
SWIDTH 700 0
DWIDTH 7 0
BBX 5 10 1 0
BITMAP
80
80
80
80
80
80
80
80
80
F8
ENDCHAR
STARTCHAR char0x004D
ENCODING 77
SWIDTH 1100 0
DWIDTH 11 0
BBX 9 10 1 0
BITMAP
C180
C180
C180
A280
A280
A280
9480
9480
9480
8880
ENDCHAR
STARTCHAR char0x004E
ENCODING 78
SWIDTH 900 0
DWIDTH 9 0
BBX 7 10 1 0
BITMAP
C2
E2
A2
B2
92
9A
8A
8E
86
86
ENDCHAR
STARTCHAR char0x004F
ENCODING 79
SWIDTH 1000 0
DWIDTH 10 0
BBX 8 10 1 0
BITMAP
3C
42
81
81
81
81
81
C3
42
3C
ENDCHAR
STARTCHAR char0x0050
ENCODING 80
SWIDTH 800 0
DWIDTH 8 0
BBX 6 10 1 0
BITMAP
F0
8C
84
84
8C
F8
80
80
80
80
ENDCHAR
STARTCHAR char0x0051
ENCODING 81
SWIDTH 1000 0
DWIDTH 10 0
BBX 8 10 1 0
BITMAP
3C
42
C1
81
81
81
8B
86
46
3D
ENDCHAR
STARTCHAR char0x0052
ENCODING 82
SWIDTH 800 0
DWIDTH 8 0
BBX 6 10 1 0
BITMAP
F8
8C
84
84
8C
F8
90
88
8C
84
ENDCHAR
STARTCHAR char0x0053
ENCODING 83
SWIDTH 800 0
DWIDTH 8 0
BBX 6 10 1 0
BITMAP
78
88
80
C0
70
18
04
04
84
78
ENDCHAR
STARTCHAR char0x0054
ENCODING 84
SWIDTH 800 0
DWIDTH 8 0
BBX 7 10 0 0
BITMAP
FE
10
10
10
10
10
10
10
10
10
ENDCHAR
STARTCHAR char0x0055
ENCODING 85
SWIDTH 900 0
DWIDTH 9 0
BBX 7 10 1 0
BITMAP
82
82
82
82
82
82
82
82
44
38
ENDCHAR
STARTCHAR char0x0056
ENCODING 86
SWIDTH 800 0
DWIDTH 8 0
BBX 8 10 0 0
BITMAP
81
C2
42
42
64
24
24
38
18
18
ENDCHAR
STARTCHAR char0x0057
ENCODING 87
SWIDTH 1300 0
DWIDTH 13 0
BBX 12 10 0 0
BITMAP
8610
8610
4620
4920
4920
4920
2940
30C0
30C0
10C0
ENDCHAR
STARTCHAR char0x0058
ENCODING 88
SWIDTH 800 0
DWIDTH 8 0
BBX 8 10 0 0
BITMAP
41
22
24
14
08
08
3C
2C
44
82
ENDCHAR
STARTCHAR char0x0059
ENCODING 89
SWIDTH 800 0
DWIDTH 8 0
BBX 8 10 0 0
BITMAP
81
42
44
28
38
10
10
10
10
10
ENDCHAR
STARTCHAR char0x005A
ENCODING 90
SWIDTH 800 0
DWIDTH 8 0
BBX 7 10 1 0
BITMAP
FC
04
08
08
10
20
20
40
80
FE
ENDCHAR
STARTCHAR char0x005B
ENCODING 91
SWIDTH 600 0
DWIDTH 6 0
BBX 2 12 3 -2
BITMAP
C0
80
80
80
80
80
80
80
80
80
80
C0
ENDCHAR
STARTCHAR char0x005C
ENCODING 92
SWIDTH 1300 0
DWIDTH 13 0
BBX 12 9 0 0
BITMAP
4230
4620
6620
2520
FFF0
2940
2940
18C0
18C0
ENDCHAR
STARTCHAR char0x005D
ENCODING 93
SWIDTH 600 0
DWIDTH 6 0
BBX 2 12 1 -2
BITMAP
C0
40
40
40
40
40
40
40
40
40
40
C0
ENDCHAR
STARTCHAR char0x005E
ENCODING 94
SWIDTH 600 0
DWIDTH 6 0
BBX 6 3 0 8
BITMAP
30
50
CC
ENDCHAR
STARTCHAR char0x005F
ENCODING 95
SWIDTH 600 0
DWIDTH 6 0
BBX 6 1 0 -2
BITMAP
FC
ENDCHAR
STARTCHAR char0x0060
ENCODING 96
SWIDTH 400 0
DWIDTH 4 0
BBX 2 3 1 7
BITMAP
80
C0
40
ENDCHAR
STARTCHAR char0x0061
ENCODING 97
SWIDTH 700 0
DWIDTH 7 0
BBX 5 7 1 0
BITMAP
F0
88
08
78
88
88
F8
ENDCHAR
STARTCHAR char0x0062
ENCODING 98
SWIDTH 800 0
DWIDTH 8 0
BBX 6 10 1 0
BITMAP
80
80
80
B8
CC
84
84
84
CC
F8
ENDCHAR
STARTCHAR char0x0063
ENCODING 99
SWIDTH 600 0
DWIDTH 6 0
BBX 5 7 1 0
BITMAP
78
C0
80
80
80
C0
78
ENDCHAR
STARTCHAR char0x0064
ENCODING 100
SWIDTH 800 0
DWIDTH 8 0
BBX 6 10 1 0
BITMAP
04
04
04
74
CC
84
84
84
CC
7C
ENDCHAR
STARTCHAR char0x0065
ENCODING 101
SWIDTH 700 0
DWIDTH 7 0
BBX 7 7 0 0
BITMAP
3C
46
82
FE
80
C4
78
ENDCHAR
STARTCHAR char0x0066
ENCODING 102
SWIDTH 400 0
DWIDTH 4 0
BBX 4 10 0 0
BITMAP
70
40
40
F0
40
40
40
40
40
40
ENDCHAR
STARTCHAR char0x0067
ENCODING 103
SWIDTH 800 0
DWIDTH 8 0
BBX 7 10 0 -3
BITMAP
7A
C6
82
82
82
C6
7A
02
46
7C
ENDCHAR
STARTCHAR char0x0068
ENCODING 104
SWIDTH 800 0
DWIDTH 8 0
BBX 6 10 1 0
BITMAP
80
80
80
B8
C4
84
84
84
84
84
ENDCHAR
STARTCHAR char0x0069
ENCODING 105
SWIDTH 300 0
DWIDTH 3 0
BBX 1 10 1 0
BITMAP
80
00
00
80
80
80
80
80
80
80
ENDCHAR
STARTCHAR char0x006A
ENCODING 106
SWIDTH 400 0
DWIDTH 4 0
BBX 3 14 0 -4
BITMAP
20
60
00
20
20
20
20
20
20
20
20
20
E0
80
ENDCHAR
STARTCHAR char0x006B
ENCODING 107
SWIDTH 700 0
DWIDTH 7 0
BBX 6 10 1 0
BITMAP
80
80
80
88
90
A0
E0
90
98
8C
ENDCHAR
STARTCHAR char0x006C
ENCODING 108
SWIDTH 300 0
DWIDTH 3 0
BBX 1 10 1 0
BITMAP
80
80
80
80
80
80
80
80
80
80
ENDCHAR
STARTCHAR char0x006D
ENCODING 109
SWIDTH 1200 0
DWIDTH 12 0
BBX 10 7 1 0
BITMAP
BB80
CC40
8840
8840
8840
8840
8840
ENDCHAR
STARTCHAR char0x006E
ENCODING 110
SWIDTH 800 0
DWIDTH 8 0
BBX 6 7 1 0
BITMAP
B8
C4
84
84
84
84
84
ENDCHAR
STARTCHAR char0x006F
ENCODING 111
SWIDTH 800 0
DWIDTH 8 0
BBX 6 7 1 0
BITMAP
78
CC
84
84
84
CC
78
ENDCHAR
STARTCHAR char0x0070
ENCODING 112
SWIDTH 800 0
DWIDTH 8 0
BBX 6 11 1 -4
BITMAP
B8
CC
84
84
84
8C
F8
80
80
80
80
ENDCHAR
STARTCHAR char0x0071
ENCODING 113
SWIDTH 800 0
DWIDTH 8 0
BBX 7 11 0 -4
BITMAP
3A
46
82
82
82
C6
7A
02
02
02
02
ENDCHAR
STARTCHAR char0x0072
ENCODING 114
SWIDTH 500 0
DWIDTH 5 0
BBX 4 7 1 0
BITMAP
F0
C0
80
80
80
80
80
ENDCHAR
STARTCHAR char0x0073
ENCODING 115
SWIDTH 600 0
DWIDTH 6 0
BBX 5 7 1 0
BITMAP
60
98
80
70
08
98
70
ENDCHAR
STARTCHAR char0x0074
ENCODING 116
SWIDTH 500 0
DWIDTH 5 0
BBX 4 9 0 0
BITMAP
40
40
F0
40
40
40
40
40
70
ENDCHAR
STARTCHAR char0x0075
ENCODING 117
SWIDTH 800 0
DWIDTH 8 0
BBX 6 7 1 0
BITMAP
84
84
84
84
84
8C
74
ENDCHAR
STARTCHAR char0x0076
ENCODING 118
SWIDTH 700 0
DWIDTH 7 0
BBX 7 7 0 0
BITMAP
82
44
44
44
28
28
10
ENDCHAR
STARTCHAR char0x0077
ENCODING 119
SWIDTH 1000 0
DWIDTH 10 0
BBX 10 7 0 0
BITMAP
8C40
8C40
5480
5280
5280
6300
2100
ENDCHAR
STARTCHAR char0x0078
ENCODING 120
SWIDTH 700 0
DWIDTH 7 0
BBX 6 7 0 0
BITMAP
44
28
30
10
10
68
84
ENDCHAR
STARTCHAR char0x0079
ENCODING 121
SWIDTH 700 0
DWIDTH 7 0
BBX 7 10 0 -3
BITMAP
82
44
44
24
28
28
10
10
20
E0
ENDCHAR
STARTCHAR char0x007A
ENCODING 122
SWIDTH 600 0
DWIDTH 6 0
BBX 6 7 0 0
BITMAP
7C
08
10
20
40
80
F8
ENDCHAR
STARTCHAR char0x007B
ENCODING 123
SWIDTH 600 0
DWIDTH 6 0
BBX 3 12 2 -2
BITMAP
60
40
40
40
40
C0
40
40
40
40
40
60
ENDCHAR
STARTCHAR char0x007C
ENCODING 124
SWIDTH 600 0
DWIDTH 6 0
BBX 1 12 2 -2
BITMAP
80
80
80
80
80
80
80
80
80
80
80
80
ENDCHAR
STARTCHAR char0x007D
ENCODING 125
SWIDTH 600 0
DWIDTH 6 0
BBX 3 12 1 -2
BITMAP
C0
40
40
40
40
60
40
40
40
40
40
C0
ENDCHAR
STARTCHAR char0x007E
ENCODING 126
SWIDTH 900 0
DWIDTH 9 0
BBX 5 2 2 4
BITMAP
C8
B8
ENDCHAR
STARTCHAR char0x007F
ENCODING 127
SWIDTH 300 0
DWIDTH 3 0
BBX 3 8 0 0
BITMAP
E0
A0
A0
A0
A0
A0
A0
E0
ENDCHAR
STARTCHAR char0x00A1
ENCODING 161
SWIDTH 1200 0
DWIDTH 12 0
BBX 2 11 5 -2
BITMAP
C0
00
00
80
80
80
80
80
80
80
C0
ENDCHAR
STARTCHAR char0x00A4
ENCODING 164
SWIDTH 1200 0
DWIDTH 12 0
BBX 10 10 1 -1
BITMAP
8040
7E80
4100
4080
8080
8080
8080
4100
7380
8C40
ENDCHAR
STARTCHAR char0x00A7
ENCODING 167
SWIDTH 600 0
DWIDTH 6 0
BBX 4 12 1 -2
BITMAP
40
B0
90
C0
E0
B0
90
D0
20
90
90
60
ENDCHAR
STARTCHAR char0x00A8
ENCODING 168
SWIDTH 1200 0
DWIDTH 12 0
BBX 6 1 3 9
BITMAP
CC
ENDCHAR
STARTCHAR char0x00AA
ENCODING 170
SWIDTH 1200 0
DWIDTH 12 0
BBX 7 10 2 -1
BITMAP
18
64
44
1C
64
44
4C
34
00
FE
ENDCHAR
STARTCHAR char0x00AD
ENCODING 173
SWIDTH 1200 0
DWIDTH 12 0
BBX 4 1 4 4
BITMAP
F0
ENDCHAR
STARTCHAR char0x00AE
ENCODING 174
SWIDTH 1200 0
DWIDTH 12 0
BBX 10 11 1 -2
BITMAP
3F00
4080
9E80
9240
9240
9C40
9440
9240
4080
2300
1C00
ENDCHAR
STARTCHAR char0x00B0
ENCODING 176
SWIDTH 600 0
DWIDTH 6 0
BBX 3 3 1 7
BITMAP
60
A0
60
ENDCHAR
STARTCHAR char0x00B1
ENCODING 177
SWIDTH 1200 0
DWIDTH 12 0
BBX 6 8 3 1
BITMAP
20
20
20
FC
20
20
20
FC
ENDCHAR
STARTCHAR char0x00B2
ENCODING 178
SWIDTH 600 0
DWIDTH 6 0
BBX 3 4 0 6
BITMAP
E0
40
40
E0
ENDCHAR
STARTCHAR char0x00B3
ENCODING 179
SWIDTH 600 0
DWIDTH 6 0
BBX 3 4 0 6
BITMAP
E0
40
20
C0
ENDCHAR
STARTCHAR char0x00B4
ENCODING 180
SWIDTH 1200 0
DWIDTH 12 0
BBX 3 2 4 8
BITMAP
20
C0
ENDCHAR
STARTCHAR char0x00B6
ENCODING 182
SWIDTH 1200 0
DWIDTH 12 0
BBX 7 12 2 -2
BITMAP
3A
CA
8A
8A
8A
7A
0A
0A
0A
0A
0A
0A
ENDCHAR
STARTCHAR char0x00B7
ENCODING 183
SWIDTH 600 0
DWIDTH 6 0
BBX 2 2 2 4
BITMAP
80
C0
ENDCHAR
STARTCHAR char0x00B8
ENCODING 184
SWIDTH 600 0
DWIDTH 6 0
BBX 2 4 2 -3
BITMAP
40
C0
40
80
ENDCHAR
STARTCHAR char0x00B9
ENCODING 185
SWIDTH 600 0
DWIDTH 6 0
BBX 1 4 1 6
BITMAP
80
80
80
80
ENDCHAR
STARTCHAR char0x00BA
ENCODING 186
SWIDTH 1200 0
DWIDTH 12 0
BBX 7 10 2 -1
BITMAP
18
24
44
42
42
44
24
18
00
FE
ENDCHAR
STARTCHAR char0x00BC
ENCODING 188
SWIDTH 1200 0
DWIDTH 12 0
BBX 10 12 1 -2
BITMAP
6000
A080
2100
2200
2200
2400
0880
1180
2180
2280
43C0
8080
ENDCHAR
STARTCHAR char0x00BD
ENCODING 189
SWIDTH 1200 0
DWIDTH 12 0
BBX 10 12 1 -2
BITMAP
6000
A080
2100
2200
2200
2400
0980
1680
2080
2080
4100
83C0
ENDCHAR
STARTCHAR char0x00BE
ENCODING 190
SWIDTH 1200 0
DWIDTH 12 0
BBX 10 12 1 -2
BITMAP
6000
1080
3100
1200
1200
E400
0880
1180
2180
2280
43C0
8080
ENDCHAR
STARTCHAR char0x00BF
ENCODING 191
SWIDTH 1200 0
DWIDTH 12 0
BBX 5 12 3 -2
BITMAP
20
30
00
00
10
10
20
40
40
C0
48
30
ENDCHAR
STARTCHAR char0x00C6
ENCODING 198
SWIDTH 1200 0
DWIDTH 12 0
BBX 9 10 1 -1
BITMAP
0F80
0800
1800
1800
2F80
2800
7800
4800
8800
8F80
ENDCHAR
STARTCHAR char0x00D0
ENCODING 208
SWIDTH 1200 0
DWIDTH 12 0
BBX 9 10 1 -1
BITMAP
3C00
2300
2100
2080
2080
2080
FC80
2100
2300
3C00
ENDCHAR
STARTCHAR char0x00D7
ENCODING 215
SWIDTH 1200 0
DWIDTH 12 0
BBX 7 7 2 1
BITMAP
42
E4
38
18
2C
46
82
ENDCHAR
STARTCHAR char0x00D8
ENCODING 216
SWIDTH 1200 0
DWIDTH 12 0
BBX 9 10 1 -1
BITMAP
1C80
2300
4300
4300
4480
4880
5100
6100
6300
DE00
ENDCHAR
STARTCHAR char0x00DE
ENCODING 222
SWIDTH 1200 0
DWIDTH 12 0
BBX 6 10 3 -1
BITMAP
80
80
F8
8C
84
84
84
F8
80
80
ENDCHAR
STARTCHAR char0x00DF
ENCODING 223
SWIDTH 1200 0
DWIDTH 12 0
BBX 6 12 3 -3
BITMAP
78
88
88
88
90
8C
84
84
84
F8
80
80
ENDCHAR
STARTCHAR char0x00E6
ENCODING 230
SWIDTH 1200 0
DWIDTH 12 0
BBX 9 7 1 -1
BITMAP
7300
4C80
8880
3F80
4800
8C80
7780
ENDCHAR
STARTCHAR char0x00F0
ENCODING 240
SWIDTH 1200 0
DWIDTH 12 0
BBX 6 10 3 -1
BITMAP
50
38
50
08
78
88
88
8C
88
70
ENDCHAR
STARTCHAR char0x00F7
ENCODING 247
SWIDTH 1200 0
DWIDTH 12 0
BBX 7 7 2 1
BITMAP
18
00
00
FE
00
18
18
ENDCHAR
STARTCHAR char0x00F8
ENCODING 248
SWIDTH 1200 0
DWIDTH 12 0
BBX 7 9 2 -2
BITMAP
02
3C
46
8A
92
92
62
7C
40
ENDCHAR
STARTCHAR char0x00FE
ENCODING 254
SWIDTH 1200 0
DWIDTH 12 0
BBX 6 11 3 -2
BITMAP
80
80
F0
88
84
84
84
88
F0
80
80
ENDCHAR
STARTCHAR char0x0111
ENCODING 273
SWIDTH 1200 0
DWIDTH 12 0
BBX 7 11 2 -2
BITMAP
04
04
3E
04
7C
84
84
84
84
4C
30
ENDCHAR
STARTCHAR char0x0126
ENCODING 294
SWIDTH 1200 0
DWIDTH 12 0
BBX 9 10 1 -1
BITMAP
2100
2100
FF80
2100
3F00
2100
2100
2100
2100
2100
ENDCHAR
STARTCHAR char0x0127
ENCODING 295
SWIDTH 1200 0
DWIDTH 12 0
BBX 7 10 2 -1
BITMAP
40
40
F8
40
5C
62
62
42
42
42
ENDCHAR
STARTCHAR char0x0131
ENCODING 305
SWIDTH 1200 0
DWIDTH 12 0
BBX 1 7 5 -1
BITMAP
80
80
80
80
80
80
80
ENDCHAR
STARTCHAR char0x0132
ENCODING 306
SWIDTH 1200 0
DWIDTH 12 0
BBX 7 10 2 -1
BITMAP
82
82
82
82
82
82
82
A2
B2
9C
ENDCHAR
STARTCHAR char0x0133
ENCODING 307
SWIDTH 1200 0
DWIDTH 12 0
BBX 5 12 3 -3
BITMAP
88
00
00
88
88
88
88
88
88
88
08
18
ENDCHAR
STARTCHAR char0x0138
ENCODING 312
SWIDTH 1200 0
DWIDTH 12 0
BBX 5 8 4 -2
BITMAP
98
B0
E0
C0
A0
90
98
88
ENDCHAR
STARTCHAR char0x013F
ENCODING 319
SWIDTH 1200 0
DWIDTH 12 0
BBX 6 10 3 -1
BITMAP
80
80
80
80
90
90
80
80
80
FC
ENDCHAR
STARTCHAR char0x0140
ENCODING 320
SWIDTH 1200 0
DWIDTH 12 0
BBX 4 10 4 -1
BITMAP
80
80
80
80
90
90
80
80
80
80
ENDCHAR
STARTCHAR char0x0141
ENCODING 321
SWIDTH 1200 0
DWIDTH 12 0
BBX 7 10 2 -1
BITMAP
40
40
50
70
60
C0
C0
40
40
7E
ENDCHAR
STARTCHAR char0x0142
ENCODING 322
SWIDTH 1200 0
DWIDTH 12 0
BBX 6 10 3 -1
BITMAP
20
20
28
2C
30
60
E0
20
20
20
ENDCHAR
STARTCHAR char0x0149
ENCODING 329
SWIDTH 1200 0
DWIDTH 12 0
BBX 8 9 1 -1
BITMAP
60
40
9F
11
11
11
11
11
11
ENDCHAR
STARTCHAR char0x014A
ENCODING 330
SWIDTH 1200 0
DWIDTH 12 0
BBX 7 10 2 -1
BITMAP
DC
E2
C2
C2
C2
C2
C2
C2
C4
08
ENDCHAR
STARTCHAR char0x014B
ENCODING 331
SWIDTH 1200 0
DWIDTH 12 0
BBX 5 9 3 -3
BITMAP
F8
88
88
88
88
88
08
08
18
ENDCHAR
STARTCHAR char0x0152
ENCODING 338
SWIDTH 1200 0
DWIDTH 12 0
BBX 10 10 1 -1
BITMAP
3FC0
4C00
8400
8400
8780
8400
8400
8400
4C00
3FC0
ENDCHAR
STARTCHAR char0x0153
ENCODING 339
SWIDTH 1200 0
DWIDTH 12 0
BBX 9 7 1 -1
BITMAP
7300
4C80
8C80
8F80
8800
4C00
7780
ENDCHAR
STARTCHAR char0x0166
ENCODING 358
SWIDTH 1200 0
DWIDTH 12 0
BBX 7 10 2 -1
BITMAP
FE
10
10
10
7E
10
10
10
10
10
ENDCHAR
STARTCHAR char0x0167
ENCODING 359
SWIDTH 1200 0
DWIDTH 12 0
BBX 5 9 3 -1
BITMAP
20
78
A0
20
F8
20
20
20
38
ENDCHAR
STARTCHAR char0x02C7
ENCODING 711
SWIDTH 1200 0
DWIDTH 12 0
BBX 6 2 3 8
BITMAP
CC
30
ENDCHAR
STARTCHAR char0x02D0
ENCODING 720
SWIDTH 600 0
DWIDTH 6 0
BBX 3 7 1 1
BITMAP
E0
40
40
00
40
60
E0
ENDCHAR
STARTCHAR char0x02D8
ENCODING 728
SWIDTH 1200 0
DWIDTH 12 0
BBX 6 2 3 8
BITMAP
8C
70
ENDCHAR
STARTCHAR char0x02D9
ENCODING 729
SWIDTH 1200 0
DWIDTH 12 0
BBX 2 1 5 9
BITMAP
C0
ENDCHAR
STARTCHAR char0x02DA
ENCODING 730
SWIDTH 1200 0
DWIDTH 12 0
BBX 3 2 4 8
BITMAP
E0
E0
ENDCHAR
STARTCHAR char0x02DB
ENCODING 731
SWIDTH 600 0
DWIDTH 6 0
BBX 2 3 2 -3
BITMAP
80
C0
40
ENDCHAR
STARTCHAR char0x02DD
ENCODING 733
SWIDTH 1200 0
DWIDTH 12 0
BBX 5 2 4 8
BITMAP
58
E0
ENDCHAR
STARTCHAR char0x0391
ENCODING 913
SWIDTH 1200 0
DWIDTH 12 0
BBX 9 10 1 -1
BITMAP
0300
0700
0500
0900
1900
1100
3F00
6100
4080
8080
ENDCHAR
STARTCHAR char0x0392
ENCODING 914
SWIDTH 1200 0
DWIDTH 12 0
BBX 8 10 1 -1
BITMAP
1E
11
11
21
3E
23
41
41
41
FE
ENDCHAR
STARTCHAR char0x0393
ENCODING 915
SWIDTH 1200 0
DWIDTH 12 0
BBX 8 10 2 -1
BITMAP
3F
21
20
60
40
40
40
C0
80
80
ENDCHAR
STARTCHAR char0x0394
ENCODING 916
SWIDTH 1200 0
DWIDTH 12 0
BBX 10 10 0 -1
BITMAP
00C0
00C0
0140
0240
0440
0840
1040
1040
2040
FFC0
ENDCHAR
STARTCHAR char0x0395
ENCODING 917
SWIDTH 1200 0
DWIDTH 12 0
BBX 8 10 2 -1
BITMAP
3F
20
20
40
7E
40
40
80
80
FC
ENDCHAR
STARTCHAR char0x0396
ENCODING 918
SWIDTH 1200 0
DWIDTH 12 0
BBX 8 10 2 -1
BITMAP
3F
42
04
0C
08
10
20
40
C0
FC
ENDCHAR
STARTCHAR char0x0397
ENCODING 919
SWIDTH 1200 0
DWIDTH 12 0
BBX 10 10 1 -1
BITMAP
3040
2080
2080
2080
7F80
4100
4100
4100
8100
8200
ENDCHAR
STARTCHAR char0x0398
ENCODING 920
SWIDTH 1200 0
DWIDTH 12 0
BBX 8 10 2 -1
BITMAP
1C
62
41
81
A5
B9
83
82
84
78
ENDCHAR
STARTCHAR char0x0399
ENCODING 921
SWIDTH 1200 0
DWIDTH 12 0
BBX 4 10 4 -1
BITMAP
30
20
20
20
40
40
40
40
80
80
ENDCHAR
STARTCHAR char0x039A
ENCODING 922
SWIDTH 1200 0
DWIDTH 12 0
BBX 8 10 2 -1
BITMAP
23
26
28
50
60
60
50
D8
88
86
ENDCHAR
STARTCHAR char0x039B
ENCODING 923
SWIDTH 1200 0
DWIDTH 12 0
BBX 8 10 1 -1
BITMAP
03
07
07
0B
0B
13
23
23
43
C3
ENDCHAR
STARTCHAR char0x039C
ENCODING 924
SWIDTH 1200 0
DWIDTH 12 0
BBX 10 10 1 -1
BITMAP
30C0
3180
3180
5280
5280
5500
5500
9900
9900
9A00
ENDCHAR
STARTCHAR char0x039D
ENCODING 925
SWIDTH 1200 0
DWIDTH 12 0
BBX 9 10 1 -1
BITMAP
1080
3080
2880
2900
2900
4900
4500
4600
4600
8600
ENDCHAR
STARTCHAR char0x039E
ENCODING 926
SWIDTH 1200 0
DWIDTH 12 0
BBX 8 10 2 -1
BITMAP
3F
22
00
00
3C
40
00
00
86
FC
ENDCHAR
STARTCHAR char0x039F
ENCODING 927
SWIDTH 1200 0
DWIDTH 12 0
BBX 8 10 2 -1
BITMAP
1C
22
41
41
81
82
82
82
C4
38
ENDCHAR
STARTCHAR char0x03A0
ENCODING 928
SWIDTH 1200 0
DWIDTH 12 0
BBX 8 10 2 -1
BITMAP
7F
22
42
42
44
44
84
84
8C
88
ENDCHAR
STARTCHAR char0x03A1
ENCODING 929
SWIDTH 1200 0
DWIDTH 12 0
BBX 7 10 2 -1
BITMAP
3C
22
62
42
42
7C
40
40
80
80
ENDCHAR
STARTCHAR char0x03A3
ENCODING 931
SWIDTH 1200 0
DWIDTH 12 0
BBX 7 10 2 -1
BITMAP
3E
60
20
10
18
10
20
40
80
FC
ENDCHAR
STARTCHAR char0x03A4
ENCODING 932
SWIDTH 1200 0
DWIDTH 12 0
BBX 6 10 3 -1
BITMAP
FC
20
20
20
20
20
40
40
40
40
ENDCHAR
STARTCHAR char0x03A5
ENCODING 933
SWIDTH 1200 0
DWIDTH 12 0
BBX 6 10 3 -1
BITMAP
84
58
50
20
20
60
40
40
40
40
ENDCHAR
STARTCHAR char0x03A6
ENCODING 934
SWIDTH 1200 0
DWIDTH 12 0
BBX 9 10 1 -1
BITMAP
0400
1F00
2580
4480
4880
C880
4980
4B00
3E00
1000
ENDCHAR
STARTCHAR char0x03A7
ENCODING 935
SWIDTH 1200 0
DWIDTH 12 0
BBX 9 10 1 -1
BITMAP
2180
1100
1200
1C00
0C00
0800
1400
2400
4200
C200
ENDCHAR
STARTCHAR char0x03A8
ENCODING 936
SWIDTH 1200 0
DWIDTH 12 0
BBX 10 10 1 -1
BITMAP
44C0
4880
4880
4880
8900
4900
7E00
1000
1000
1000
ENDCHAR
STARTCHAR char0x03A9
ENCODING 937
SWIDTH 1200 0
DWIDTH 12 0
BBX 9 10 1 -1
BITMAP
0E00
3300
2080
4080
4080
4100
4100
2200
3C00
EF00
ENDCHAR
STARTCHAR char0x03B1
ENCODING 945
SWIDTH 800 0
DWIDTH 8 0
BBX 7 7 1 -1
BITMAP
72
CC
8C
88
88
9C
E8
ENDCHAR
STARTCHAR char0x03B2
ENCODING 946
SWIDTH 800 0
DWIDTH 8 0
BBX 7 11 0 -2
BITMAP
0C
12
12
22
2C
26
62
42
44
78
80
ENDCHAR
STARTCHAR char0x03B3
ENCODING 947
SWIDTH 800 0
DWIDTH 8 0
BBX 6 7 1 -1
BITMAP
FC
34
20
20
20
20
60
ENDCHAR
STARTCHAR char0x03B4
ENCODING 948
SWIDTH 800 0
DWIDTH 8 0
BBX 7 10 1 -1
BITMAP
1E
20
10
38
48
C4
84
88
98
70
ENDCHAR
STARTCHAR char0x03B5
ENCODING 949
SWIDTH 800 0
DWIDTH 8 0
BBX 7 7 1 -1
BITMAP
3E
40
38
60
80
88
78
ENDCHAR
STARTCHAR char0x03B6
ENCODING 950
SWIDTH 800 0
DWIDTH 8 0
BBX 6 12 1 -3
BITMAP
04
7C
08
10
20
60
40
80
E0
38
08
38
ENDCHAR
STARTCHAR char0x03B7
ENCODING 951
SWIDTH 800 0
DWIDTH 8 0
BBX 6 8 1 -2
BITMAP
7C
44
44
44
84
84
08
08
ENDCHAR
STARTCHAR char0x03B8
ENCODING 952
SWIDTH 800 0
DWIDTH 8 0
BBX 6 10 1 -1
BITMAP
1C
24
44
44
44
FC
84
88
88
70
ENDCHAR
STARTCHAR char0x03B9
ENCODING 953
SWIDTH 500 0
DWIDTH 5 0
BBX 3 7 1 -1
BITMAP
20
40
40
40
40
80
E0
ENDCHAR
STARTCHAR char0x03BA
ENCODING 954
SWIDTH 800 0
DWIDTH 8 0
BBX 7 7 1 -1
BITMAP
4E
50
60
E0
A0
90
88
ENDCHAR
STARTCHAR char0x03BB
ENCODING 955
SWIDTH 800 0
DWIDTH 8 0
BBX 8 10 0 -1
BITMAP
10
08
08
0C
1C
14
24
22
42
C3
ENDCHAR
STARTCHAR char0x03BC
ENCODING 956
SWIDTH 800 0
DWIDTH 8 0
BBX 7 8 1 -2
BITMAP
46
44
44
44
C4
CC
B6
80
ENDCHAR
STARTCHAR char0x03BD
ENCODING 957
SWIDTH 800 0
DWIDTH 8 0
BBX 8 7 0 -1
BITMAP
E3
22
24
24
24
18
10
ENDCHAR
STARTCHAR char0x03BE
ENCODING 958
SWIDTH 800 0
DWIDTH 8 0
BBX 7 11 1 -3
BITMAP
3E
30
20
30
78
40
80
C0
38
08
30
ENDCHAR
STARTCHAR char0x03BF
ENCODING 959
SWIDTH 800 0
DWIDTH 8 0
BBX 6 7 1 -1
BITMAP
3C
44
C4
84
8C
88
70
ENDCHAR
STARTCHAR char0x03C0
ENCODING 960
SWIDTH 800 0
DWIDTH 8 0
BBX 8 7 0 -1
BITMAP
7F
22
24
24
44
44
82
ENDCHAR
STARTCHAR char0x03C1
ENCODING 961
SWIDTH 800 0
DWIDTH 8 0
BBX 7 8 0 -2
BITMAP
1E
22
22
22
66
7C
40
C0
ENDCHAR
STARTCHAR char0x03C3
ENCODING 963
SWIDTH 800 0
DWIDTH 8 0
BBX 6 8 1 -1
BITMAP
1C
78
4C
84
88
88
98
70
ENDCHAR
STARTCHAR char0x03C4
ENCODING 964
SWIDTH 800 0
DWIDTH 8 0
BBX 6 7 1 -1
BITMAP
FC
30
20
20
20
20
30
ENDCHAR
STARTCHAR char0x03C5
ENCODING 965
SWIDTH 800 0
DWIDTH 8 0
BBX 6 7 1 -1
BITMAP
44
44
44
44
88
88
F0
ENDCHAR
STARTCHAR char0x03C6
ENCODING 966
SWIDTH 800 0
DWIDTH 8 0
BBX 8 8 0 -2
BITMAP
3F
49
89
91
D2
7C
30
20
ENDCHAR
STARTCHAR char0x03C7
ENCODING 967
SWIDTH 800 0
DWIDTH 8 0
BBX 7 7 1 -1
BITMAP
E6
28
30
30
70
48
8C
ENDCHAR
STARTCHAR char0x03C8
ENCODING 968
SWIDTH 800 0
DWIDTH 8 0
BBX 8 9 0 -2
BITMAP
0C
49
C9
89
89
91
92
7C
10
ENDCHAR
STARTCHAR char0x03C9
ENCODING 969
SWIDTH 800 0
DWIDTH 8 0
BBX 8 7 0 -1
BITMAP
33
49
C9
99
91
92
6E
ENDCHAR
STARTCHAR char0x0401
ENCODING 1025
SWIDTH 1200 0
DWIDTH 12 0
BBX 6 10 3 -1
BITMAP
58
00
FC
80
80
F8
80
80
80
FC
ENDCHAR
STARTCHAR char0x0410
ENCODING 1040
SWIDTH 1200 0
DWIDTH 12 0
BBX 8 10 2 -1
BITMAP
10
18
28
28
24
44
7E
42
82
81
ENDCHAR
STARTCHAR char0x0411
ENCODING 1041
SWIDTH 1200 0
DWIDTH 12 0
BBX 6 10 3 -1
BITMAP
F8
84
80
80
F8
84
84
84
84
F8
ENDCHAR
STARTCHAR char0x0412
ENCODING 1042
SWIDTH 1200 0
DWIDTH 12 0
BBX 6 10 3 -1
BITMAP
F8
8C
84
84
F8
84
84
84
84
F8
ENDCHAR
STARTCHAR char0x0413
ENCODING 1043
SWIDTH 1200 0
DWIDTH 12 0
BBX 6 10 3 -1
BITMAP
FC
84
80
80
80
80
80
80
80
80
ENDCHAR
STARTCHAR char0x0414
ENCODING 1044
SWIDTH 1200 0
DWIDTH 12 0
BBX 7 11 2 -2
BITMAP
7E
44
44
44
44
44
44
44
44
FE
82
ENDCHAR
STARTCHAR char0x0415
ENCODING 1045
SWIDTH 1200 0
DWIDTH 12 0
BBX 6 10 3 -1
BITMAP
FC
80
80
80
F8
80
80
80
80
FC
ENDCHAR
STARTCHAR char0x0416
ENCODING 1046
SWIDTH 1200 0
DWIDTH 12 0
BBX 9 10 1 -1
BITMAP
4880
6900
2900
2900
3F00
4980
4880
4880
4880
8880
ENDCHAR
STARTCHAR char0x0417
ENCODING 1047
SWIDTH 1200 0
DWIDTH 12 0
BBX 7 10 2 -1
BITMAP
38
46
82
02
1C
0E
82
42
42
3C
ENDCHAR
STARTCHAR char0x0418
ENCODING 1048
SWIDTH 1200 0
DWIDTH 12 0
BBX 7 10 2 -1
BITMAP
82
86
86
8A
9A
92
A2
A2
C2
C2
ENDCHAR
STARTCHAR char0x0419
ENCODING 1049
SWIDTH 1200 0
DWIDTH 12 0
BBX 7 10 2 -1
BITMAP
3C
10
82
86
8A
9A
92
A2
C2
C2
ENDCHAR
STARTCHAR char0x041A
ENCODING 1050
SWIDTH 1200 0
DWIDTH 12 0
BBX 7 10 3 -1
BITMAP
8C
88
90
90
F0
90
88
88
84
86
ENDCHAR
STARTCHAR char0x041B
ENCODING 1051
SWIDTH 1200 0
DWIDTH 12 0
BBX 7 10 2 -1
BITMAP
FE
44
44
44
44
44
44
44
44
84
ENDCHAR
STARTCHAR char0x041C
ENCODING 1052
SWIDTH 1200 0
DWIDTH 12 0
BBX 10 10 1 -1
BITMAP
2100
6300
6300
5280
5280
5480
5480
4C80
8C80
88C0
ENDCHAR
STARTCHAR char0x041D
ENCODING 1053
SWIDTH 1200 0
DWIDTH 12 0
BBX 7 10 2 -1
BITMAP
82
82
82
82
FE
82
82
82
82
82
ENDCHAR
STARTCHAR char0x041E
ENCODING 1054
SWIDTH 1200 0
DWIDTH 12 0
BBX 7 10 2 -1
BITMAP
38
66
42
82
82
82
82
42
66
3C
ENDCHAR
STARTCHAR char0x041F
ENCODING 1055
SWIDTH 1200 0
DWIDTH 12 0
BBX 8 10 2 -1
BITMAP
FF
42
42
42
42
42
42
42
42
42
ENDCHAR
STARTCHAR char0x0420
ENCODING 1056
SWIDTH 1200 0
DWIDTH 12 0
BBX 6 10 3 -1
BITMAP
F8
84
84
84
8C
F8
80
80
80
80
ENDCHAR
STARTCHAR char0x0421
ENCODING 1057
SWIDTH 1200 0
DWIDTH 12 0
BBX 7 10 2 -1
BITMAP
3C
46
C2
82
80
80
82
C2
46
3C
ENDCHAR
STARTCHAR char0x0422
ENCODING 1058
SWIDTH 1200 0
DWIDTH 12 0
BBX 7 10 2 -1
BITMAP
FE
10
10
10
10
10
10
10
10
10
ENDCHAR
STARTCHAR char0x0423
ENCODING 1059
SWIDTH 1200 0
DWIDTH 12 0
BBX 7 10 2 -1
BITMAP
C2
42
64
24
24
18
18
10
10
70
ENDCHAR
STARTCHAR char0x0424
ENCODING 1060
SWIDTH 1200 0
DWIDTH 12 0
BBX 9 10 1 -1
BITMAP
0800
3E00
6900
4880
8880
8880
4880
6900
3E00
0800
ENDCHAR
STARTCHAR char0x0425
ENCODING 1061
SWIDTH 1200 0
DWIDTH 12 0
BBX 8 10 2 -1
BITMAP
83
46
24
28
18
18
28
64
42
83
ENDCHAR
STARTCHAR char0x0426
ENCODING 1062
SWIDTH 1200 0
DWIDTH 12 0
BBX 7 11 2 -2
BITMAP
44
44
44
44
44
44
44
44
44
FE
02
ENDCHAR
STARTCHAR char0x0427
ENCODING 1063
SWIDTH 1200 0
DWIDTH 12 0
BBX 6 10 3 -1
BITMAP
84
84
84
84
8C
DC
64
04
04
04
ENDCHAR
STARTCHAR char0x0428
ENCODING 1064
SWIDTH 1200 0
DWIDTH 12 0
BBX 9 10 1 -1
BITMAP
4900
4900
4900
4900
4900
4900
4900
4900
4900
FF80
ENDCHAR
STARTCHAR char0x0429
ENCODING 1065
SWIDTH 1200 0
DWIDTH 12 0
BBX 9 11 1 -2
BITMAP
4880
4880
4880
4880
4880
4880
4880
4880
4880
FF80
0080
ENDCHAR
STARTCHAR char0x042A
ENCODING 1066
SWIDTH 1200 0
DWIDTH 12 0
BBX 9 10 1 -1
BITMAP
E000
2000
2000
2000
3E00
2100
2080
2080
2100
3F00
ENDCHAR
STARTCHAR char0x042B
ENCODING 1067
SWIDTH 1200 0
DWIDTH 12 0
BBX 8 10 2 -1
BITMAP
81
81
81
81
F1
89
85
85
89
F9
ENDCHAR
STARTCHAR char0x042C
ENCODING 1068
SWIDTH 1200 0
DWIDTH 12 0
BBX 6 10 3 -1
BITMAP
80
80
80
80
F8
84
84
84
84
F8
ENDCHAR
STARTCHAR char0x042D
ENCODING 1069
SWIDTH 1200 0
DWIDTH 12 0
BBX 7 10 2 -1
BITMAP
38
66
C2
82
32
2E
02
82
46
38
ENDCHAR
STARTCHAR char0x042E
ENCODING 1070
SWIDTH 1200 0
DWIDTH 12 0
BBX 10 10 1 -1
BITMAP
8700
8880
9080
9040
F040
9040
9040
9080
8880
8700
ENDCHAR
STARTCHAR char0x042F
ENCODING 1071
SWIDTH 1200 0
DWIDTH 12 0
BBX 7 10 2 -1
BITMAP
7E
C2
82
82
7E
62
42
42
82
82
ENDCHAR
STARTCHAR char0x0430
ENCODING 1072
SWIDTH 1200 0
DWIDTH 12 0
BBX 6 7 3 -1
BITMAP
78
88
18
E8
88
88
FC
ENDCHAR
STARTCHAR char0x0431
ENCODING 1073
SWIDTH 1200 0
DWIDTH 12 0
BBX 5 10 3 -1
BITMAP
28
58
80
B0
C8
88
88
88
48
30
ENDCHAR
STARTCHAR char0x0432
ENCODING 1074
SWIDTH 1200 0
DWIDTH 12 0
BBX 6 7 3 -1
BITMAP
F8
84
88
F8
84
84
F8
ENDCHAR
STARTCHAR char0x0433
ENCODING 1075
SWIDTH 1200 0
DWIDTH 12 0
BBX 6 7 3 -1
BITMAP
FC
C8
C0
C0
C0
C0
C0
ENDCHAR
STARTCHAR char0x0434
ENCODING 1076
SWIDTH 1200 0
DWIDTH 12 0
BBX 7 8 2 -2
BITMAP
7E
24
24
24
44
44
7C
82
ENDCHAR
STARTCHAR char0x0435
ENCODING 1077
SWIDTH 1200 0
DWIDTH 12 0
BBX 6 7 3 -1
BITMAP
78
88
84
FC
80
8C
78
ENDCHAR
STARTCHAR char0x0436
ENCODING 1078
SWIDTH 1200 0
DWIDTH 12 0
BBX 7 7 2 -1
BITMAP
D2
54
74
7E
52
52
92
ENDCHAR
STARTCHAR char0x0437
ENCODING 1079
SWIDTH 1200 0
DWIDTH 12 0
BBX 6 7 3 -1
BITMAP
F8
84
08
38
84
84
78
ENDCHAR
STARTCHAR char0x0438
ENCODING 1080
SWIDTH 1200 0
DWIDTH 12 0
BBX 6 7 3 -1
BITMAP
8C
8C
94
A4
E4
C4
84
ENDCHAR
STARTCHAR char0x0439
ENCODING 1081
SWIDTH 1200 0
DWIDTH 12 0
BBX 6 9 3 -1
BITMAP
58
30
8C
8C
94
A4
E4
C4
84
ENDCHAR
STARTCHAR char0x043A
ENCODING 1082
SWIDTH 1200 0
DWIDTH 12 0
BBX 6 7 3 -1
BITMAP
8C
98
90
F0
98
88
84
ENDCHAR
STARTCHAR char0x043B
ENCODING 1083
SWIDTH 1200 0
DWIDTH 12 0
BBX 7 7 2 -1
BITMAP
7E
24
24
44
44
44
84
ENDCHAR
STARTCHAR char0x043C
ENCODING 1084
SWIDTH 1200 0
DWIDTH 12 0
BBX 8 7 2 -1
BITMAP
C2
C6
A6
AE
AA
99
91
ENDCHAR
STARTCHAR char0x043D
ENCODING 1085
SWIDTH 1200 0
DWIDTH 12 0
BBX 6 7 3 -1
BITMAP
84
84
84
FC
84
84
84
ENDCHAR
STARTCHAR char0x043E
ENCODING 1086
SWIDTH 1200 0
DWIDTH 12 0
BBX 6 7 3 -1
BITMAP
78
8C
84
84
84
C8
70
ENDCHAR
STARTCHAR char0x043F
ENCODING 1087
SWIDTH 1200 0
DWIDTH 12 0
BBX 6 7 3 -1
BITMAP
FC
48
48
48
48
48
48
ENDCHAR
STARTCHAR char0x0440
ENCODING 1088
SWIDTH 1200 0
DWIDTH 12 0
BBX 6 8 3 -2
BITMAP
F8
8C
84
84
84
C8
B0
80
ENDCHAR
STARTCHAR char0x0441
ENCODING 1089
SWIDTH 1200 0
DWIDTH 12 0
BBX 6 7 3 -1
BITMAP
78
8C
80
80
84
C8
70
ENDCHAR
STARTCHAR char0x0442
ENCODING 1090
SWIDTH 1200 0
DWIDTH 12 0
BBX 6 7 3 -1
BITMAP
FC
20
20
20
20
20
20
ENDCHAR
STARTCHAR char0x0443
ENCODING 1091
SWIDTH 1200 0
DWIDTH 12 0
BBX 6 8 3 -2
BITMAP
8C
C8
48
50
30
30
20
E0
ENDCHAR
STARTCHAR char0x0444
ENCODING 1092
SWIDTH 1200 0
DWIDTH 12 0
BBX 9 9 1 -2
BITMAP
0800
7F80
4880
8880
8880
8880
4880
3F00
0800
ENDCHAR
STARTCHAR char0x0445
ENCODING 1093
SWIDTH 1200 0
DWIDTH 12 0
BBX 6 7 3 -1
BITMAP
8C
58
30
30
70
48
8C
ENDCHAR
STARTCHAR char0x0446
ENCODING 1094
SWIDTH 1200 0
DWIDTH 12 0
BBX 6 8 3 -2
BITMAP
88
88
88
88
88
88
F8
0C
ENDCHAR
STARTCHAR char0x0447
ENCODING 1095
SWIDTH 1200 0
DWIDTH 12 0
BBX 5 7 3 -1
BITMAP
88
88
88
D8
78
08
08
ENDCHAR
STARTCHAR char0x0448
ENCODING 1096
SWIDTH 1200 0
DWIDTH 12 0
BBX 8 7 2 -1
BITMAP
52
52
52
52
52
52
FF
ENDCHAR
STARTCHAR char0x0449
ENCODING 1097
SWIDTH 1200 0
DWIDTH 12 0
BBX 8 8 2 -2
BITMAP
52
52
52
52
52
52
FE
03
ENDCHAR
STARTCHAR char0x044A
ENCODING 1098
SWIDTH 1200 0
DWIDTH 12 0
BBX 7 7 2 -1
BITMAP
E0
20
3C
26
22
22
3C
ENDCHAR
STARTCHAR char0x044B
ENCODING 1099
SWIDTH 1200 0
DWIDTH 12 0
BBX 7 7 2 -1
BITMAP
82
82
F2
8A
8A
8A
FA
ENDCHAR
STARTCHAR char0x044C
ENCODING 1100
SWIDTH 1200 0
DWIDTH 12 0
BBX 6 7 3 -1
BITMAP
80
80
F8
8C
84
84
F8
ENDCHAR
STARTCHAR char0x044D
ENCODING 1101
SWIDTH 1200 0
DWIDTH 12 0
BBX 6 7 3 -1
BITMAP
78
84
24
5C
04
C8
70
ENDCHAR
STARTCHAR char0x044E
ENCODING 1102
SWIDTH 1200 0
DWIDTH 12 0
BBX 8 7 2 -1
BITMAP
8E
91
91
F1
91
91
8E
ENDCHAR
STARTCHAR char0x044F
ENCODING 1103
SWIDTH 1200 0
DWIDTH 12 0
BBX 6 7 3 -1
BITMAP
FC
8C
8C
FC
8C
8C
8C
ENDCHAR
STARTCHAR char0x0451
ENCODING 1105
SWIDTH 1200 0
DWIDTH 12 0
BBX 6 10 3 -1
BITMAP
50
58
00
78
8C
84
FC
80
8C
78
ENDCHAR
STARTCHAR char0x2015
ENCODING 8213
SWIDTH 1200 0
DWIDTH 12 0
BBX 12 1 0 4
BITMAP
FFF0
ENDCHAR
STARTCHAR char0x2018
ENCODING 8216
SWIDTH 400 0
DWIDTH 4 0
BBX 2 4 2 7
BITMAP
80
C0
80
80
ENDCHAR
STARTCHAR char0x2019
ENCODING 8217
SWIDTH 400 0
DWIDTH 4 0
BBX 2 3 0 7
BITMAP
C0
40
C0
ENDCHAR
STARTCHAR char0x201C
ENCODING 8220
SWIDTH 600 0
DWIDTH 6 0
BBX 4 4 1 7
BITMAP
50
50
D0
50
ENDCHAR
STARTCHAR char0x201D
ENCODING 8221
SWIDTH 600 0
DWIDTH 6 0
BBX 4 3 0 7
BITMAP
D0
50
F0
ENDCHAR
STARTCHAR char0x2020
ENCODING 8224
SWIDTH 1200 0
DWIDTH 12 0
BBX 7 12 2 -2
BITMAP
10
10
10
10
FE
10
10
10
10
10
10
10
ENDCHAR
STARTCHAR char0x2021
ENCODING 8225
SWIDTH 1200 0
DWIDTH 12 0
BBX 7 12 2 -2
BITMAP
10
10
FE
10
7E
10
10
10
10
10
10
10
ENDCHAR
STARTCHAR char0x2025
ENCODING 8229
SWIDTH 1200 0
DWIDTH 12 0
BBX 6 2 3 4
BITMAP
84
8C
ENDCHAR
STARTCHAR char0x2026
ENCODING 8230
SWIDTH 1200 0
DWIDTH 12 0
BBX 8 2 2 4
BITMAP
92
DB
ENDCHAR
STARTCHAR char0x2030
ENCODING 8240
SWIDTH 1200 0
DWIDTH 12 0
BBX 12 10 0 -1
BITMAP
1100
7200
5A00
9400
6800
1000
1EE0
2B90
5320
8CC0
ENDCHAR
STARTCHAR char0x2032
ENCODING 8242
SWIDTH 600 0
DWIDTH 6 0
BBX 2 3 2 7
BITMAP
40
80
80
ENDCHAR
STARTCHAR char0x2033
ENCODING 8243
SWIDTH 600 0
DWIDTH 6 0
BBX 4 3 1 7
BITMAP
50
A0
C0
ENDCHAR
STARTCHAR char0x203B
ENCODING 8251
SWIDTH 1200 0
DWIDTH 12 0
BBX 10 10 1 -1
BITMAP
8C80
48C0
2100
1200
8CC0
CC80
1200
2100
4C80
88C0
ENDCHAR
STARTCHAR char0x2074
ENCODING 8308
SWIDTH 600 0
DWIDTH 6 0
BBX 3 4 0 6
BITMAP
40
C0
E0
40
ENDCHAR
STARTCHAR char0x207F
ENCODING 8319
SWIDTH 600 0
DWIDTH 6 0
BBX 3 4 0 6
BITMAP
E0
A0
A0
A0
ENDCHAR
STARTCHAR char0x2081
ENCODING 8321
SWIDTH 600 0
DWIDTH 6 0
BBX 1 4 1 -1
BITMAP
80
80
80
80
ENDCHAR
STARTCHAR char0x2082
ENCODING 8322
SWIDTH 600 0
DWIDTH 6 0
BBX 3 4 0 -1
BITMAP
40
A0
40
E0
ENDCHAR
STARTCHAR char0x2083
ENCODING 8323
SWIDTH 600 0
DWIDTH 6 0
BBX 3 4 0 -1
BITMAP
40
A0
40
E0
ENDCHAR
STARTCHAR char0x2084
ENCODING 8324
SWIDTH 600 0
DWIDTH 6 0
BBX 3 4 0 -1
BITMAP
40
40
C0
60
ENDCHAR
STARTCHAR char0x20AC
ENCODING 8364
SWIDTH 1200 0
DWIDTH 12 0
BBX 8 10 2 -1
BITMAP
3F
61
40
F8
40
F8
40
61
33
0C
ENDCHAR
STARTCHAR char0x2103
ENCODING 8451
SWIDTH 1200 0
DWIDTH 12 0
BBX 9 11 1 -1
BITMAP
C000
A700
D880
1000
2000
2000
2000
3000
1080
1D80
0200
ENDCHAR
STARTCHAR char0x2109
ENCODING 8457
SWIDTH 1200 0
DWIDTH 12 0
BBX 9 10 1 0
BITMAP
C000
AF80
C800
0800
0800
0F80
0800
0800
0800
0800
ENDCHAR
STARTCHAR char0x2113
ENCODING 8467
SWIDTH 1200 0
DWIDTH 12 0
BBX 5 10 3 -1
BITMAP
30
48
48
48
48
50
50
50
68
B8
ENDCHAR
STARTCHAR char0x2116
ENCODING 8470
SWIDTH 1200 0
DWIDTH 12 0
BBX 12 10 0 -1
BITMAP
C800
C800
C800
A980
AA40
AA40
9A40
9A40
8A60
01B0
ENDCHAR
STARTCHAR char0x2121
ENCODING 8481
SWIDTH 1200 0
DWIDTH 12 0
BBX 11 10 0 -1
BITMAP
FC20
1020
1020
17A0
14A0
18A0
1F20
1820
14A0
0300
ENDCHAR
STARTCHAR char0x2122
ENCODING 8482
SWIDTH 1200 0
DWIDTH 12 0
BBX 9 4 1 5
BITMAP
FC80
4D80
4D80
4A80
ENDCHAR
STARTCHAR char0x2126
ENCODING 8486
SWIDTH 1200 0
DWIDTH 12 0
BBX 7 10 2 -1
BITMAP
3C
46
82
82
82
82
42
6C
28
6E
ENDCHAR
STARTCHAR char0x212B
ENCODING 8491
SWIDTH 1200 0
DWIDTH 12 0
BBX 8 11 2 -1
BITMAP
38
28
10
18
18
28
24
44
7E
C2
83
ENDCHAR
STARTCHAR char0x2153
ENCODING 8531
SWIDTH 1200 0
DWIDTH 12 0
BBX 10 12 1 -2
BITMAP
6000
A080
2100
2200
2200
2400
0980
1680
2080
2180
4040
8380
ENDCHAR
STARTCHAR char0x2154
ENCODING 8532
SWIDTH 1200 0
DWIDTH 12 0
BBX 10 12 1 -2
BITMAP
E000
1080
2100
4200
4200
F400
0980
1680
2080
2180
4040
8380
ENDCHAR
STARTCHAR char0x215B
ENCODING 8539
SWIDTH 1200 0
DWIDTH 12 0
BBX 10 12 1 -2
BITMAP
6000
A080
2100
2200
2200
2400
0980
1240
2280
2380
4240
8380
ENDCHAR
STARTCHAR char0x215C
ENCODING 8540
SWIDTH 1200 0
DWIDTH 12 0
BBX 10 12 1 -2
BITMAP
6000
1080
3100
1200
1200
E400
0980
1240
2280
2380
4240
8380
ENDCHAR
STARTCHAR char0x215D
ENCODING 8541
SWIDTH 1200 0
DWIDTH 12 0
BBX 10 12 1 -2
BITMAP
7000
8080
6100
1200
1200
E400
0980
1240
2280
2380
4240
8380
ENDCHAR
STARTCHAR char0x215E
ENCODING 8542
SWIDTH 1200 0
DWIDTH 12 0
BBX 10 12 1 -2
BITMAP
F000
1080
2100
2200
2200
4400
0980
1240
2280
2380
4240
8380
ENDCHAR
STARTCHAR char0x2160
ENCODING 8544
SWIDTH 1200 0
DWIDTH 12 0
BBX 1 10 5 -1
BITMAP
80
80
80
80
80
80
80
80
80
80
ENDCHAR
STARTCHAR char0x2161
ENCODING 8545
SWIDTH 1200 0
DWIDTH 12 0
BBX 5 10 3 -1
BITMAP
88
88
88
88
88
88
88
88
88
88
ENDCHAR
STARTCHAR char0x2162
ENCODING 8546
SWIDTH 1200 0
DWIDTH 12 0
BBX 6 10 3 -1
BITMAP
A4
A4
A4
A4
A4
A4
A4
A4
A4
A4
ENDCHAR
STARTCHAR char0x2163
ENCODING 8547
SWIDTH 1200 0
DWIDTH 12 0
BBX 8 10 2 -1
BITMAP
C1
A1
A1
A2
92
92
94
94
8C
88
ENDCHAR
STARTCHAR char0x2164
ENCODING 8548
SWIDTH 1200 0
DWIDTH 12 0
BBX 8 10 2 -1
BITMAP
81
81
42
42
44
24
24
28
18
18
ENDCHAR
STARTCHAR char0x2165
ENCODING 8549
SWIDTH 1200 0
DWIDTH 12 0
BBX 9 10 1 -1
BITMAP
8280
4280
4280
4480
2480
2480
2880
2880
1880
1080
ENDCHAR
STARTCHAR char0x2166
ENCODING 8550
SWIDTH 1200 0
DWIDTH 12 0
BBX 9 10 1 -1
BITMAP
8680
8680
8A80
4A80
4A80
4A80
5280
3280
3280
2280
ENDCHAR
STARTCHAR char0x2167
ENCODING 8551
SWIDTH 1200 0
DWIDTH 12 0
BBX 11 10 0 -1
BITMAP
85A0
45A0
49A0
49A0
49A0
49A0
29A0
31A0
31A0
11A0
ENDCHAR
STARTCHAR char0x2168
ENCODING 8552
SWIDTH 1200 0
DWIDTH 12 0
BBX 10 10 1 -1
BITMAP
B080
9100
8900
8A00
8400
8600
8A00
9900
9080
A0C0
ENDCHAR
STARTCHAR char0x2169
ENCODING 8553
SWIDTH 1200 0
DWIDTH 12 0
BBX 8 10 2 -1
BITMAP
C2
44
24
38
18
18
2C
24
42
83
ENDCHAR
STARTCHAR char0x2170
ENCODING 8560
SWIDTH 1200 0
DWIDTH 12 0
BBX 1 10 5 -1
BITMAP
80
00
00
80
80
80
80
80
80
80
ENDCHAR
STARTCHAR char0x2171
ENCODING 8561
SWIDTH 1200 0
DWIDTH 12 0
BBX 5 10 3 -1
BITMAP
88
00
00
88
88
88
88
88
88
88
ENDCHAR
STARTCHAR char0x2172
ENCODING 8562
SWIDTH 1200 0
DWIDTH 12 0
BBX 6 10 3 -1
BITMAP
A4
00
00
A4
A4
A4
A4
A4
A4
A4
ENDCHAR
STARTCHAR char0x2173
ENCODING 8563
SWIDTH 1200 0
DWIDTH 12 0
BBX 9 10 2 -1
BITMAP
8000
0000
0000
A180
A100
9200
9200
8A00
8C00
8C00
ENDCHAR
STARTCHAR char0x2174
ENCODING 8564
SWIDTH 1200 0
DWIDTH 12 0
BBX 7 7 2 -1
BITMAP
C2
42
24
24
28
18
18
ENDCHAR
STARTCHAR char0x2175
ENCODING 8565
SWIDTH 1200 0
DWIDTH 12 0
BBX 9 10 1 -1
BITMAP
0080
0000
0000
C280
4480
4480
2480
2880
1880
1080
ENDCHAR
STARTCHAR char0x2176
ENCODING 8566
SWIDTH 1200 0
DWIDTH 12 0
BBX 9 10 1 -1
BITMAP
0180
0000
0000
8580
8980
4980
4980
5180
3180
3180
ENDCHAR
STARTCHAR char0x2177
ENCODING 8567
SWIDTH 1200 0
DWIDTH 12 0
BBX 11 10 0 -1
BITMAP
01A0
0000
0000
85A0
49A0
49A0
49A0
31A0
31A0
31A0
ENDCHAR
STARTCHAR char0x2178
ENCODING 8568
SWIDTH 1200 0
DWIDTH 12 0
BBX 8 10 2 -1
BITMAP
80
00
00
A3
92
8C
8C
94
92
A1
ENDCHAR
STARTCHAR char0x2179
ENCODING 8569
SWIDTH 1200 0
DWIDTH 12 0
BBX 7 7 2 -1
BITMAP
46
24
18
18
28
24
C2
ENDCHAR
STARTCHAR char0x2190
ENCODING 8592
SWIDTH 1200 0
DWIDTH 12 0
BBX 11 4 0 2
BITMAP
1000
7000
FFE0
1000
ENDCHAR
STARTCHAR char0x2191
ENCODING 8593
SWIDTH 1200 0
DWIDTH 12 0
BBX 3 12 4 -2
BITMAP
40
40
60
E0
40
40
40
40
40
40
40
40
ENDCHAR
STARTCHAR char0x2192
ENCODING 8594
SWIDTH 1200 0
DWIDTH 12 0
BBX 12 4 0 2
BITMAP
0200
01C0
FFF0
0100
ENDCHAR
STARTCHAR char0x2193
ENCODING 8595
SWIDTH 1200 0
DWIDTH 12 0
BBX 3 12 4 -2
BITMAP
40
40
40
40
40
40
40
40
E0
60
60
40
ENDCHAR
STARTCHAR char0x2194
ENCODING 8596
SWIDTH 1200 0
DWIDTH 12 0
BBX 12 4 0 2
BITMAP
1080
60E0
FFF0
3080
ENDCHAR
STARTCHAR char0x2195
ENCODING 8597
SWIDTH 1200 0
DWIDTH 12 0
BBX 4 13 4 -3
BITMAP
40
60
E0
50
40
40
40
40
40
F0
60
40
40
ENDCHAR
STARTCHAR char0x2196
ENCODING 8598
SWIDTH 1200 0
DWIDTH 12 0
BBX 11 12 0 -2
BITMAP
8000
6000
7000
5000
0800
0400
0200
0100
0080
0040
0020
0020
ENDCHAR
STARTCHAR char0x2197
ENCODING 8599
SWIDTH 1200 0
DWIDTH 12 0
BBX 12 12 0 -2
BITMAP
0010
0060
01E0
00C0
0100
0200
0400
0800
1000
2000
4000
8000
ENDCHAR
STARTCHAR char0x2198
ENCODING 8600
SWIDTH 1200 0
DWIDTH 12 0
BBX 12 12 0 -2
BITMAP
8000
4000
2000
1000
0800
0400
0200
0100
00C0
00C0
0160
0030
ENDCHAR
STARTCHAR char0x2199
ENCODING 8601
SWIDTH 1200 0
DWIDTH 12 0
BBX 12 12 0 -2
BITMAP
0020
0030
0040
0080
0100
0200
0400
0800
5000
6000
7000
8000
ENDCHAR
STARTCHAR char0x21D2
ENCODING 8658
SWIDTH 1200 0
DWIDTH 12 0
BBX 12 8 0 0
BITMAP
0100
0080
FFC0
0020
0030
FFC0
0080
0100
ENDCHAR
STARTCHAR char0x21D4
ENCODING 8660
SWIDTH 1200 0
DWIDTH 12 0
BBX 12 8 0 0
BITMAP
1100
1080
3FC0
4020
C030
7FC0
3080
1100
ENDCHAR
STARTCHAR char0x2200
ENCODING 8704
SWIDTH 1200 0
DWIDTH 12 0
BBX 8 10 2 -1
BITMAP
81
81
42
7E
44
24
24
28
18
18
ENDCHAR
STARTCHAR char0x2202
ENCODING 8706
SWIDTH 600 0
DWIDTH 6 0
BBX 5 9 0 0
BITMAP
38
48
08
38
58
88
90
90
60
ENDCHAR
STARTCHAR char0x2203
ENCODING 8707
SWIDTH 1200 0
DWIDTH 12 0
BBX 6 10 3 -1
BITMAP
FC
04
04
04
04
FC
04
04
04
FC
ENDCHAR
STARTCHAR char0x2207
ENCODING 8711
SWIDTH 1200 0
DWIDTH 12 0
BBX 12 10 0 -1
BITMAP
FFF0
4020
4040
2040
2080
1080
1100
0A00
0600
0400
ENDCHAR
STARTCHAR char0x2208
ENCODING 8712
SWIDTH 1200 0
DWIDTH 12 0
BBX 9 8 1 0
BITMAP
1F80
6000
8000
8000
FF80
8000
4000
3F80
ENDCHAR
STARTCHAR char0x220B
ENCODING 8715
SWIDTH 1200 0
DWIDTH 12 0
BBX 10 8 1 0
BITMAP
FE00
0180
0080
0040
FFC0
0080
0080
FF00
ENDCHAR
STARTCHAR char0x220F
ENCODING 8719
SWIDTH 1200 0
DWIDTH 12 0
BBX 8 9 2 -1
BITMAP
FF
44
44
44
44
44
44
44
44
ENDCHAR
STARTCHAR char0x2211
ENCODING 8721
SWIDTH 1200 0
DWIDTH 12 0
BBX 8 9 2 0
BITMAP
3F
20
10
18
08
10
20
40
FE
ENDCHAR
STARTCHAR char0x221A
ENCODING 8730
SWIDTH 1200 0
DWIDTH 12 0
BBX 11 11 0 -1
BITMAP
03E0
0200
0400
0400
0400
4800
A800
2800
3000
1000
1000
ENDCHAR
STARTCHAR char0x221D
ENCODING 8733
SWIDTH 1200 0
DWIDTH 12 0
BBX 10 6 1 1
BITMAP
2100
5AC0
8400
8400
4A00
31C0
ENDCHAR
STARTCHAR char0x221E
ENCODING 8734
SWIDTH 1200 0
DWIDTH 12 0
BBX 10 4 1 2
BITMAP
7780
8C40
8840
F780
ENDCHAR
STARTCHAR char0x2220
ENCODING 8736
SWIDTH 1200 0
DWIDTH 12 0
BBX 10 8 1 0
BITMAP
0180
0300
0200
0400
0800
1000
2000
FFC0
ENDCHAR
STARTCHAR char0x2225
ENCODING 8741
SWIDTH 1200 0
DWIDTH 12 0
BBX 4 13 4 -3
BITMAP
90
90
90
90
90
90
90
90
90
90
90
90
90
ENDCHAR
STARTCHAR char0x2227
ENCODING 8743
SWIDTH 1200 0
DWIDTH 12 0
BBX 9 10 1 -1
BITMAP
0800
0C00
1400
1200
2200
2100
2100
4080
4080
8080
ENDCHAR
STARTCHAR char0x2228
ENCODING 8744
SWIDTH 1200 0
DWIDTH 12 0
BBX 9 10 1 -1
BITMAP
8080
8080
4080
4100
2100
2200
1200
1400
0C00
0800
ENDCHAR
STARTCHAR char0x2229
ENCODING 8745
SWIDTH 1200 0
DWIDTH 12 0
BBX 8 10 2 -1
BITMAP
3C
42
82
81
81
81
81
81
81
81
ENDCHAR
STARTCHAR char0x222A
ENCODING 8746
SWIDTH 1200 0
DWIDTH 12 0
BBX 8 10 2 -1
BITMAP
81
81
81
81
81
81
81
82
82
7C
ENDCHAR
STARTCHAR char0x222B
ENCODING 8747
SWIDTH 1200 0
DWIDTH 12 0
BBX 6 11 3 -1
BITMAP
08
34
20
20
20
20
20
20
20
20
E0
ENDCHAR
STARTCHAR char0x222C
ENCODING 8748
SWIDTH 1200 0
DWIDTH 12 0
BBX 8 11 2 -1
BITMAP
0A
3D
24
24
24
24
24
24
24
24
D8
ENDCHAR
STARTCHAR char0x222E
ENCODING 8750
SWIDTH 1200 0
DWIDTH 12 0
BBX 6 11 3 -2
BITMAP
1C
10
20
30
E8
A8
70
20
20
A0
C0
ENDCHAR
STARTCHAR char0x2234
ENCODING 8756
SWIDTH 1200 0
DWIDTH 12 0
BBX 9 8 1 0
BITMAP
0800
0C00
0000
0000
0000
0000
C080
C180
ENDCHAR
STARTCHAR char0x2235
ENCODING 8757
SWIDTH 1200 0
DWIDTH 12 0
BBX 9 8 1 0
BITMAP
C080
C180
0000
0000
0000
0000
0C00
0C00
ENDCHAR
STARTCHAR char0x223C
ENCODING 8764
SWIDTH 1200 0
DWIDTH 12 0
BBX 9 2 1 3
BITMAP
7C80
C700
ENDCHAR
STARTCHAR char0x223D
ENCODING 8765
SWIDTH 1200 0
DWIDTH 12 0
BBX 10 5 1 1
BITMAP
F780
8440
8840
9C40
6380
ENDCHAR
STARTCHAR char0x2252
ENCODING 8786
SWIDTH 1200 0
DWIDTH 12 0
BBX 9 9 1 -1
BITMAP
6000
4000
0000
FF80
0000
FF80
0000
0100
0100
ENDCHAR
STARTCHAR char0x2260
ENCODING 8800
SWIDTH 1200 0
DWIDTH 12 0
BBX 6 7 3 1
BITMAP
08
18
FC
20
FC
40
C0
ENDCHAR
STARTCHAR char0x2261
ENCODING 8801
SWIDTH 1200 0
DWIDTH 12 0
BBX 9 6 1 1
BITMAP
FF80
0000
0000
FF80
0000
FF80
ENDCHAR
STARTCHAR char0x2264
ENCODING 8804
SWIDTH 1200 0
DWIDTH 12 0
BBX 8 9 2 0
BITMAP
06
1C
30
C0
30
0C
02
00
FF
ENDCHAR
STARTCHAR char0x2265
ENCODING 8805
SWIDTH 1200 0
DWIDTH 12 0
BBX 8 9 2 0
BITMAP
C0
30
0C
07
1C
70
C0
00
FF
ENDCHAR
STARTCHAR char0x226A
ENCODING 8810
SWIDTH 1200 0
DWIDTH 12 0
BBX 10 10 1 -1
BITMAP
0240
0480
1B00
2400
D800
9000
6C00
1200
0D80
0240
ENDCHAR
STARTCHAR char0x226B
ENCODING 8811
SWIDTH 1200 0
DWIDTH 12 0
BBX 11 10 0 -1
BITMAP
8800
6400
1200
0D80
0240
0360
0480
1B00
2400
C800
ENDCHAR
STARTCHAR char0x2282
ENCODING 8834
SWIDTH 1200 0
DWIDTH 12 0
BBX 10 8 1 0
BITMAP
3FC0
4000
8000
8000
8000
8000
4000
3FC0
ENDCHAR
STARTCHAR char0x2283
ENCODING 8835
SWIDTH 1200 0
DWIDTH 12 0
BBX 10 8 1 0
BITMAP
FE00
0180
00C0
0040
0040
0040
0080
FF00
ENDCHAR
STARTCHAR char0x2286
ENCODING 8838
SWIDTH 1200 0
DWIDTH 12 0
BBX 10 9 1 -1
BITMAP
7FC0
8000
8000
8000
8000
7FC0
0000
0000
FFC0
ENDCHAR
STARTCHAR char0x2287
ENCODING 8839
SWIDTH 1200 0
DWIDTH 12 0
BBX 10 9 1 -1
BITMAP
FF80
0080
0040
0040
00C0
FF80
0000
0000
FFC0
ENDCHAR
STARTCHAR char0x2299
ENCODING 8857
SWIDTH 1200 0
DWIDTH 12 0
BBX 11 11 0 -2
BITMAP
1F80
6040
4020
8F20
9F20
9F20
8F20
4620
4040
3080
0F00
ENDCHAR
STARTCHAR char0x22A5
ENCODING 8869
SWIDTH 1200 0
DWIDTH 12 0
BBX 9 8 1 0
BITMAP
0800
0800
0800
0800
0800
0800
0800
FF80
ENDCHAR
STARTCHAR char0x2312
ENCODING 8978
SWIDTH 1200 0
DWIDTH 12 0
BBX 9 3 1 7
BITMAP
3F00
C080
8080
ENDCHAR
STARTCHAR char0x2460
ENCODING 9312
SWIDTH 1200 0
DWIDTH 12 0
BBX 11 12 0 -2
BITMAP
0E00
3180
4040
8420
8C20
8420
8420
8420
8420
4440
2080
1F00
ENDCHAR
STARTCHAR char0x2461
ENCODING 9313
SWIDTH 1200 0
DWIDTH 12 0
BBX 11 12 0 -2
BITMAP
0E00
3180
4640
8920
8120
8120
8220
8420
8820
4740
2080
1F00
ENDCHAR
STARTCHAR char0x2462
ENCODING 9314
SWIDTH 1200 0
DWIDTH 12 0
BBX 11 12 0 -2
BITMAP
0E00
3180
4040
8F20
8120
8220
8720
8120
9120
4E40
2080
1F00
ENDCHAR
STARTCHAR char0x2463
ENCODING 9315
SWIDTH 1200 0
DWIDTH 12 0
BBX 11 12 0 -2
BITMAP
0E00
3180
4040
8620
8620
8A20
9220
9F20
8220
4040
2080
1F00
ENDCHAR
STARTCHAR char0x2464
ENCODING 9316
SWIDTH 1200 0
DWIDTH 12 0
BBX 11 12 0 -2
BITMAP
0E00
3180
4040
8F20
8820
8E20
8120
8120
9120
4E40
2080
1F00
ENDCHAR
STARTCHAR char0x2465
ENCODING 9317
SWIDTH 1200 0
DWIDTH 12 0
BBX 11 12 0 -2
BITMAP
0E00
3180
4040
8720
8820
8E20
8920
8920
8920
4640
2080
1F00
ENDCHAR
STARTCHAR char0x2466
ENCODING 9318
SWIDTH 1200 0
DWIDTH 12 0
BBX 11 12 0 -2
BITMAP
0E00
3180
4040
8F20
8120
8220
8220
8420
8420
4840
2080
1F00
ENDCHAR
STARTCHAR char0x2467
ENCODING 9319
SWIDTH 1200 0
DWIDTH 12 0
BBX 11 12 0 -2
BITMAP
0E00
3180
4040
8F20
8920
8E20
8920
9120
8920
4640
2080
1F00
ENDCHAR
STARTCHAR char0x2468
ENCODING 9320
SWIDTH 1200 0
DWIDTH 12 0
BBX 11 12 0 -2
BITMAP
0E00
3180
4040
8F20
8920
8920
8F20
8120
9220
4C40
2080
1F00
ENDCHAR
STARTCHAR char0x2469
ENCODING 9321
SWIDTH 1200 0
DWIDTH 12 0
BBX 11 12 0 -2
BITMAP
0E00
3180
4040
B3A0
94A0
94A0
94A0
94A0
92A0
5140
2080
1F00
ENDCHAR
STARTCHAR char0x246A
ENCODING 9322
SWIDTH 1200 0
DWIDTH 12 0
BBX 11 12 0 -2
BITMAP
0E00
3180
4040
9920
AB20
8920
8920
8920
8920
4940
2080
1F00
ENDCHAR
STARTCHAR char0x246B
ENCODING 9323
SWIDTH 1200 0
DWIDTH 12 0
BBX 11 12 0 -2
BITMAP
0E00
3180
4040
B7A0
90A0
90A0
9120
9220
9420
43C0
2080
1F00
ENDCHAR
STARTCHAR char0x246C
ENCODING 9324
SWIDTH 1200 0
DWIDTH 12 0
BBX 11 12 0 -2
BITMAP
0E00
3180
4040
B7A0
90A0
91A0
90A0
90A0
94A0
4340
2080
1F00
ENDCHAR
STARTCHAR char0x246D
ENCODING 9325
SWIDTH 1200 0
DWIDTH 12 0
BBX 11 12 0 -2
BITMAP
0E00
3180
4040
B1A0
92A0
92A0
94A0
97E0
90A0
4040
2080
1F00
ENDCHAR
STARTCHAR char0x246E
ENCODING 9326
SWIDTH 1200 0
DWIDTH 12 0
BBX 11 12 0 -2
BITMAP
0E00
3180
4040
B7A0
9420
9720
90A0
90A0
94A0
4340
2080
1F00
ENDCHAR
STARTCHAR char0x2474
ENCODING 9332
SWIDTH 1200 0
DWIDTH 12 0
BBX 11 11 0 -2
BITMAP
4040
8620
8A20
8220
8220
8220
8220
8220
8220
4040
4040
ENDCHAR
STARTCHAR char0x2475
ENCODING 9333
SWIDTH 1200 0
DWIDTH 12 0
BBX 11 11 0 -2
BITMAP
4040
8E20
9120
8120
8120
8220
8420
8820
8F20
4040
4040
ENDCHAR
STARTCHAR char0x2476
ENCODING 9334
SWIDTH 1200 0
DWIDTH 12 0
BBX 11 11 0 -2
BITMAP
4040
8E20
9120
8120
8720
8120
8120
9120
8E20
4040
4040
ENDCHAR
STARTCHAR char0x2477
ENCODING 9335
SWIDTH 1200 0
DWIDTH 12 0
BBX 11 12 0 -2
BITMAP
4040
4040
8220
8620
8620
8A20
9220
9F20
8220
8220
4040
4040
ENDCHAR
STARTCHAR char0x2478
ENCODING 9336
SWIDTH 1200 0
DWIDTH 12 0
BBX 11 11 0 -2
BITMAP
4040
8F20
8820
8820
8E20
8120
8120
8120
9E20
4040
4040
ENDCHAR
STARTCHAR char0x2479
ENCODING 9337
SWIDTH 1200 0
DWIDTH 12 0
BBX 11 11 0 -2
BITMAP
4040
8720
8820
8820
9720
9920
9120
8920
8E20
4040
4040
ENDCHAR
STARTCHAR char0x247A
ENCODING 9338
SWIDTH 1200 0
DWIDTH 12 0
BBX 11 11 0 -2
BITMAP
4040
8020
9F20
8120
8220
8220
8220
8420
8420
4840
4040
ENDCHAR
STARTCHAR char0x247B
ENCODING 9339
SWIDTH 1200 0
DWIDTH 12 0
BBX 11 11 0 -2
BITMAP
4040
8E20
8920
9120
8F20
8920
9120
9120
8F20
4040
4040
ENDCHAR
STARTCHAR char0x247C
ENCODING 9340
SWIDTH 1200 0
DWIDTH 12 0
BBX 11 11 0 -2
BITMAP
4040
8620
8920
9120
9120
8F20
8120
8120
8E20
4040
4040
ENDCHAR
STARTCHAR char0x247D
ENCODING 9341
SWIDTH 1200 0
DWIDTH 12 0
BBX 11 11 0 -2
BITMAP
4040
9320
B4A0
9460
9460
9460
9460
94A0
93A0
4040
4040
ENDCHAR
STARTCHAR char0x247E
ENCODING 9342
SWIDTH 1200 0
DWIDTH 12 0
BBX 11 11 0 -2
BITMAP
4040
91A0
B2A0
90A0
90A0
90A0
90A0
90A0
90A0
4040
4040
ENDCHAR
STARTCHAR char0x247F
ENCODING 9343
SWIDTH 1200 0
DWIDTH 12 0
BBX 11 11 0 -2
BITMAP
4040
93A0
B4A0
90A0
90A0
9120
9220
9220
97A0
4040
4040
ENDCHAR
STARTCHAR char0x2480
ENCODING 9344
SWIDTH 1200 0
DWIDTH 12 0
BBX 11 11 0 -2
BITMAP
4040
93A0
B4A0
90A0
91A0
90A0
90A0
98A0
97A0
4040
4040
ENDCHAR
STARTCHAR char0x2481
ENCODING 9345
SWIDTH 1200 0
DWIDTH 12 0
BBX 11 11 0 -2
BITMAP
4040
91A0
B1A0
92A0
92A0
94A0
97E0
90A0
90A0
4040
4040
ENDCHAR
STARTCHAR char0x2482
ENCODING 9346
SWIDTH 1200 0
DWIDTH 12 0
BBX 11 11 0 -2
BITMAP
4040
93A0
B420
9420
9720
90A0
9060
90A0
97A0
4040
4040
ENDCHAR
STARTCHAR char0x249C
ENCODING 9372
SWIDTH 1200 0
DWIDTH 12 0
BBX 11 11 0 -2
BITMAP
4040
8020
8F20
9120
8720
9920
9120
9F20
8020
4040
4040
ENDCHAR
STARTCHAR char0x249D
ENCODING 9373
SWIDTH 1200 0
DWIDTH 12 0
BBX 11 11 0 -2
BITMAP
4040
8820
8820
8F20
89A0
88A0
88A0
88A0
8F20
4040
4040
ENDCHAR
STARTCHAR char0x249E
ENCODING 9374
SWIDTH 1200 0
DWIDTH 12 0
BBX 11 11 0 -2
BITMAP
4040
8020
8720
8820
9020
9020
8820
8F20
8020
4040
4040
ENDCHAR
STARTCHAR char0x249F
ENCODING 9375
SWIDTH 1200 0
DWIDTH 12 0
BBX 11 11 0 -2
BITMAP
4040
8120
8120
8F20
9920
9120
9120
9120
8F20
4040
4040
ENDCHAR
STARTCHAR char0x24A0
ENCODING 9376
SWIDTH 1200 0
DWIDTH 12 0
BBX 11 11 0 -2
BITMAP
4040
8020
8F20
9920
9120
9E20
9020
8F20
8020
4040
4040
ENDCHAR
STARTCHAR char0x24A1
ENCODING 9377
SWIDTH 1200 0
DWIDTH 12 0
BBX 11 11 0 -2
BITMAP
4040
8720
8420
8420
8E20
8420
8420
8420
8420
4040
4040
ENDCHAR
STARTCHAR char0x24A2
ENCODING 9378
SWIDTH 1200 0
DWIDTH 12 0
BBX 11 11 0 -2
BITMAP
4040
8F20
9120
9120
9120
9120
8F20
8120
9320
4C40
4040
ENDCHAR
STARTCHAR char0x24A3
ENCODING 9379
SWIDTH 1200 0
DWIDTH 12 0
BBX 11 11 0 -2
BITMAP
4040
8820
8820
8F20
8920
88A0
88A0
88A0
88A0
4040
4040
ENDCHAR
STARTCHAR char0x24A4
ENCODING 9380
SWIDTH 1200 0
DWIDTH 12 0
BBX 11 11 0 -2
BITMAP
4040
8420
8620
8020
8420
8420
8420
8420
8420
4040
4040
ENDCHAR
STARTCHAR char0x24A5
ENCODING 9381
SWIDTH 1200 0
DWIDTH 12 0
BBX 11 11 0 -2
BITMAP
4440
8620
8020
8420
8420
8420
8420
8420
8420
4C40
4040
ENDCHAR
STARTCHAR char0x24A6
ENCODING 9382
SWIDTH 1200 0
DWIDTH 12 0
BBX 11 11 0 -2
BITMAP
4040
8820
8820
8920
8A20
8C20
8E20
8A20
8920
40C0
4040
ENDCHAR
STARTCHAR char0x24A7
ENCODING 9383
SWIDTH 1200 0
DWIDTH 12 0
BBX 11 11 0 -2
BITMAP
4040
8420
8420
8420
8420
8420
8420
8420
8420
4040
4040
ENDCHAR
STARTCHAR char0x24A8
ENCODING 9384
SWIDTH 1200 0
DWIDTH 12 0
BBX 11 11 0 -2
BITMAP
4040
8020
ADA0
B6A0
A4A0
A4A0
A4A0
A4A0
8020
4040
4040
ENDCHAR
STARTCHAR char0x24A9
ENCODING 9385
SWIDTH 1200 0
DWIDTH 12 0
BBX 11 11 0 -2
BITMAP
4040
8020
9720
9920
9120
9120
9120
9120
8020
4040
4040
ENDCHAR
STARTCHAR char0x24AA
ENCODING 9386
SWIDTH 1200 0
DWIDTH 12 0
BBX 11 11 0 -2
BITMAP
4040
8020
8E20
9120
90A0
90A0
9120
8F20
8020
4040
4040
ENDCHAR
STARTCHAR char0x24AB
ENCODING 9387
SWIDTH 1200 0
DWIDTH 12 0
BBX 11 11 0 -2
BITMAP
4040
8F20
89A0
88A0
88A0
88A0
8D20
8A20
8820
4840
4040
ENDCHAR
STARTCHAR char0x24AC
ENCODING 9388
SWIDTH 1200 0
DWIDTH 12 0
BBX 11 11 0 -2
BITMAP
4040
8D20
9320
9120
9120
9120
9B20
8520
8120
4140
4040
ENDCHAR
STARTCHAR char0x24AD
ENCODING 9389
SWIDTH 1200 0
DWIDTH 12 0
BBX 11 11 0 -2
BITMAP
4040
8020
8720
8420
8420
8420
8420
8420
8020
4040
4040
ENDCHAR
STARTCHAR char0x24AE
ENCODING 9390
SWIDTH 1200 0
DWIDTH 12 0
BBX 11 11 0 -2
BITMAP
4040
8020
8F20
8820
8C20
8320
8120
8F20
8020
4040
4040
ENDCHAR
STARTCHAR char0x24AF
ENCODING 9391
SWIDTH 1200 0
DWIDTH 12 0
BBX 11 11 0 -2
BITMAP
4040
8420
8420
8F20
8420
8420
8420
8420
8720
4040
4040
ENDCHAR
STARTCHAR char0x24B0
ENCODING 9392
SWIDTH 1200 0
DWIDTH 12 0
BBX 11 11 0 -2
BITMAP
4040
8020
9120
9120
9120
9120
9120
8F20
8020
4040
4040
ENDCHAR
STARTCHAR char0x24B1
ENCODING 9393
SWIDTH 1200 0
DWIDTH 12 0
BBX 11 11 0 -2
BITMAP
4040
8020
91A0
9920
8920
8A20
8620
8620
8020
4040
4040
ENDCHAR
STARTCHAR char0x24B2
ENCODING 9394
SWIDTH 1200 0
DWIDTH 12 0
BBX 11 11 0 -2
BITMAP
4040
8020
A4A0
A6A0
96A0
9AA0
9B20
9920
8020
4040
4040
ENDCHAR
STARTCHAR char0x24B3
ENCODING 9395
SWIDTH 1200 0
DWIDTH 12 0
BBX 11 11 0 -2
BITMAP
4040
8020
9120
8A20
8620
8620
8A20
9920
80A0
4040
4040
ENDCHAR
STARTCHAR char0x24B4
ENCODING 9396
SWIDTH 1200 0
DWIDTH 12 0
BBX 11 11 0 -2
BITMAP
4040
90A0
8920
8920
8920
8620
8620
8420
8420
4840
4040
ENDCHAR
STARTCHAR char0x24B5
ENCODING 9397
SWIDTH 1200 0
DWIDTH 12 0
BBX 11 11 0 -2
BITMAP
4040
8020
8F20
8220
8220
8420
8820
8F20
8020
4040
4040
ENDCHAR
STARTCHAR char0x24D0
ENCODING 9424
SWIDTH 1200 0
DWIDTH 12 0
BBX 11 12 0 -2
BITMAP
0E00
3180
4040
8E20
9120
8720
8920
9120
8F20
4040
2080
1F00
ENDCHAR
STARTCHAR char0x24D1
ENCODING 9425
SWIDTH 1200 0
DWIDTH 12 0
BBX 11 12 0 -2
BITMAP
0E00
3180
4840
8820
8F20
8920
88A0
88A0
8920
4F40
2080
1F00
ENDCHAR
STARTCHAR char0x24D2
ENCODING 9426
SWIDTH 1200 0
DWIDTH 12 0
BBX 11 12 0 -2
BITMAP
0E00
3180
4040
8620
8920
9020
9020
8820
8F20
4040
2080
1F00
ENDCHAR
STARTCHAR char0x24D3
ENCODING 9427
SWIDTH 1200 0
DWIDTH 12 0
BBX 11 12 0 -2
BITMAP
0E00
3180
4140
8120
8F20
9120
9120
9120
9320
4D40
2080
1F00
ENDCHAR
STARTCHAR char0x24D4
ENCODING 9428
SWIDTH 1200 0
DWIDTH 12 0
BBX 11 12 0 -2
BITMAP
0E00
3180
4040
8E20
9920
9F20
9020
9920
8F20
4040
2080
1F00
ENDCHAR
STARTCHAR char0x24D5
ENCODING 9429
SWIDTH 1200 0
DWIDTH 12 0
BBX 11 12 0 -2
BITMAP
0E00
3180
4340
8420
8420
8E20
8420
8420
8420
4440
2080
1F00
ENDCHAR
STARTCHAR char0x24D6
ENCODING 9430
SWIDTH 1200 0
DWIDTH 12 0
BBX 11 12 0 -2
BITMAP
0E00
3180
4F40
9920
9120
9120
9920
8F20
8120
4F40
2080
1F00
ENDCHAR
STARTCHAR char0x24D7
ENCODING 9431
SWIDTH 1200 0
DWIDTH 12 0
BBX 11 12 0 -2
BITMAP
0E00
3180
4840
8820
8F20
8920
8920
8920
8920
4940
2080
1F00
ENDCHAR
STARTCHAR char0x24D8
ENCODING 9432
SWIDTH 1200 0
DWIDTH 12 0
BBX 11 12 0 -2
BITMAP
0E00
3180
4440
8620
8020
8420
8420
8420
8420
4440
2080
1F00
ENDCHAR
STARTCHAR char0x24D9
ENCODING 9433
SWIDTH 1200 0
DWIDTH 12 0
BBX 11 12 0 -2
BITMAP
0E00
3180
4640
8020
8620
8620
8620
8620
8420
4440
2880
1F00
ENDCHAR
STARTCHAR char0x24DA
ENCODING 9434
SWIDTH 1200 0
DWIDTH 12 0
BBX 11 12 0 -2
BITMAP
0E00
3180
4840
8820
8920
8A20
8C20
8A20
8920
49C0
2080
1F00
ENDCHAR
STARTCHAR char0x24DB
ENCODING 9435
SWIDTH 1200 0
DWIDTH 12 0
BBX 11 12 0 -2
BITMAP
0E00
3180
4440
8420
8420
8420
8420
8420
8420
4440
2080
1F00
ENDCHAR
STARTCHAR char0x24DC
ENCODING 9436
SWIDTH 1200 0
DWIDTH 12 0
BBX 11 12 0 -2
BITMAP
0E00
3180
4040
A9A0
B6A0
A4A0
A4A0
A4A0
A4A0
4040
2080
1F00
ENDCHAR
STARTCHAR char0x24DD
ENCODING 9437
SWIDTH 1200 0
DWIDTH 12 0
BBX 11 12 0 -2
BITMAP
0E00
3180
4040
9E20
9920
9920
9920
9920
9920
4040
2080
1F00
ENDCHAR
STARTCHAR char0x24DE
ENCODING 9438
SWIDTH 1200 0
DWIDTH 12 0
BBX 11 12 0 -2
BITMAP
0E00
3180
4040
8620
8920
9120
9120
9120
8E20
4040
2080
1F00
ENDCHAR
STARTCHAR char0x24DF
ENCODING 9439
SWIDTH 1200 0
DWIDTH 12 0
BBX 11 12 0 -2
BITMAP
0E00
3180
4040
8F20
88A0
88A0
88A0
8920
8E20
4840
2080
1F00
ENDCHAR
STARTCHAR char0x24E0
ENCODING 9440
SWIDTH 1200 0
DWIDTH 12 0
BBX 11 12 0 -2
BITMAP
0E00
3180
4040
9F20
9120
9120
9120
9B20
8520
4140
2080
1F00
ENDCHAR
STARTCHAR char0x24E1
ENCODING 9441
SWIDTH 1200 0
DWIDTH 12 0
BBX 11 12 0 -2
BITMAP
0E00
3180
4040
8120
8720
8420
8420
8420
8420
4040
2080
1F00
ENDCHAR
STARTCHAR char0x24E2
ENCODING 9442
SWIDTH 1200 0
DWIDTH 12 0
BBX 11 12 0 -2
BITMAP
0E00
3180
4040
8620
8920
8C20
8320
8120
8E20
4040
2080
1F00
ENDCHAR
STARTCHAR char0x24E3
ENCODING 9443
SWIDTH 1200 0
DWIDTH 12 0
BBX 11 12 0 -2
BITMAP
0E00
3180
4040
8420
8E20
8420
8420
8420
8420
4340
2080
1F00
ENDCHAR
STARTCHAR char0x24E4
ENCODING 9444
SWIDTH 1200 0
DWIDTH 12 0
BBX 11 12 0 -2
BITMAP
0E00
3180
4040
9120
9120
9120
9120
9120
8F20
4040
2080
1F00
ENDCHAR
STARTCHAR char0x24E5
ENCODING 9445
SWIDTH 1200 0
DWIDTH 12 0
BBX 11 12 0 -2
BITMAP
0E00
3180
4040
9120
8920
8920
8A20
8620
8420
4040
2080
1F00
ENDCHAR
STARTCHAR char0x24E6
ENCODING 9446
SWIDTH 1200 0
DWIDTH 12 0
BBX 11 12 0 -2
BITMAP
0E00
3180
4040
8020
A6E0
A6A0
9AA0
9AA0
9920
4040
2080
1F00
ENDCHAR
STARTCHAR char0x24E7
ENCODING 9447
SWIDTH 1200 0
DWIDTH 12 0
BBX 11 12 0 -2
BITMAP
0E00
3180
4040
9120
8B20
8620
8620
8A20
9920
4040
2080
1F00
ENDCHAR
STARTCHAR char0x24E8
ENCODING 9448
SWIDTH 1200 0
DWIDTH 12 0
BBX 11 12 0 -2
BITMAP
0E00
3180
4040
99A0
8920
8520
8620
8620
8420
5440
2880
1F00
ENDCHAR
STARTCHAR char0x24E9
ENCODING 9449
SWIDTH 1200 0
DWIDTH 12 0
BBX 11 12 0 -2
BITMAP
0E00
3180
4040
8F20
8220
8220
8420
8820
8F20
4040
2080
1F00
ENDCHAR
STARTCHAR char0x2500
ENCODING 9472
SWIDTH 1200 0
DWIDTH 12 0
BBX 12 1 0 4
BITMAP
FFF0
ENDCHAR
STARTCHAR char0x2501
ENCODING 9473
SWIDTH 1200 0
DWIDTH 12 0
BBX 12 1 0 3
BITMAP
FFF0
ENDCHAR
STARTCHAR char0x2502
ENCODING 9474
SWIDTH 1200 0
DWIDTH 12 0
BBX 1 13 6 -3
BITMAP
80
80
80
80
80
80
80
80
80
80
80
80
80
ENDCHAR
STARTCHAR char0x2503
ENCODING 9475
SWIDTH 1200 0
DWIDTH 12 0
BBX 1 13 5 -3
BITMAP
80
80
80
80
80
80
80
80
80
80
80
80
80
ENDCHAR
STARTCHAR char0x250C
ENCODING 9484
SWIDTH 1200 0
DWIDTH 12 0
BBX 6 7 6 -3
BITMAP
FC
80
80
80
80
80
80
ENDCHAR
STARTCHAR char0x250D
ENCODING 9485
SWIDTH 1200 0
DWIDTH 12 0
BBX 6 7 6 -3
BITMAP
FC
80
80
80
80
80
80
ENDCHAR
STARTCHAR char0x250E
ENCODING 9486
SWIDTH 1200 0
DWIDTH 12 0
BBX 7 7 5 -3
BITMAP
FE
80
80
80
80
80
80
ENDCHAR
STARTCHAR char0x250F
ENCODING 9487
SWIDTH 1200 0
DWIDTH 12 0
BBX 7 7 5 -3
BITMAP
FE
80
80
80
80
80
80
ENDCHAR
STARTCHAR char0x2510
ENCODING 9488
SWIDTH 1200 0
DWIDTH 12 0
BBX 6 7 0 -3
BITMAP
FC
04
04
04
04
04
04
ENDCHAR
STARTCHAR char0x2511
ENCODING 9489
SWIDTH 1200 0
DWIDTH 12 0
BBX 6 7 0 -3
BITMAP
FC
04
04
04
04
04
04
ENDCHAR
STARTCHAR char0x2512
ENCODING 9490
SWIDTH 1200 0
DWIDTH 12 0
BBX 6 7 0 -3
BITMAP
FC
04
04
04
04
04
04
ENDCHAR
STARTCHAR char0x2513
ENCODING 9491
SWIDTH 1200 0
DWIDTH 12 0
BBX 6 7 0 -3
BITMAP
FC
04
04
04
04
04
04
ENDCHAR
STARTCHAR char0x2514
ENCODING 9492
SWIDTH 1200 0
DWIDTH 12 0
BBX 6 6 6 4
BITMAP
80
80
80
80
80
FC
ENDCHAR
STARTCHAR char0x2515
ENCODING 9493
SWIDTH 1200 0
DWIDTH 12 0
BBX 6 7 6 3
BITMAP
80
80
80
80
80
80
FC
ENDCHAR
STARTCHAR char0x2516
ENCODING 9494
SWIDTH 1200 0
DWIDTH 12 0
BBX 7 6 5 4
BITMAP
80
80
80
80
80
FE
ENDCHAR
STARTCHAR char0x2517
ENCODING 9495
SWIDTH 1200 0
DWIDTH 12 0
BBX 7 7 5 3
BITMAP
80
80
80
80
80
80
FE
ENDCHAR
STARTCHAR char0x2518
ENCODING 9496
SWIDTH 1200 0
DWIDTH 12 0
BBX 6 6 0 4
BITMAP
04
04
04
04
04
FC
ENDCHAR
STARTCHAR char0x2519
ENCODING 9497
SWIDTH 1200 0
DWIDTH 12 0
BBX 6 7 0 3
BITMAP
04
04
04
04
04
04
FC
ENDCHAR
STARTCHAR char0x251A
ENCODING 9498
SWIDTH 1200 0
DWIDTH 12 0
BBX 6 6 0 4
BITMAP
04
04
04
04
04
FC
ENDCHAR
STARTCHAR char0x251B
ENCODING 9499
SWIDTH 1200 0
DWIDTH 12 0
BBX 6 7 0 3
BITMAP
04
04
04
04
04
04
FC
ENDCHAR
STARTCHAR char0x251C
ENCODING 9500
SWIDTH 1200 0
DWIDTH 12 0
BBX 6 13 6 -3
BITMAP
80
80
80
80
80
80
FC
80
80
80
80
80
80
ENDCHAR
STARTCHAR char0x251D
ENCODING 9501
SWIDTH 1200 0
DWIDTH 12 0
BBX 6 13 6 -3
BITMAP
80
80
80
80
80
80
FC
80
80
80
80
80
80
ENDCHAR
STARTCHAR char0x251E
ENCODING 9502
SWIDTH 1200 0
DWIDTH 12 0
BBX 7 13 5 -3
BITMAP
80
80
80
80
80
80
FE
80
80
80
80
80
80
ENDCHAR
STARTCHAR char0x251F
ENCODING 9503
SWIDTH 1200 0
DWIDTH 12 0
BBX 7 13 5 -3
BITMAP
80
80
80
80
80
80
FE
80
80
80
80
80
80
ENDCHAR
STARTCHAR char0x2520
ENCODING 9504
SWIDTH 1200 0
DWIDTH 12 0
BBX 7 13 5 -3
BITMAP
80
80
80
80
80
80
FE
80
80
80
80
80
80
ENDCHAR
STARTCHAR char0x2521
ENCODING 9505
SWIDTH 1200 0
DWIDTH 12 0
BBX 7 13 5 -3
BITMAP
80
80
80
80
80
80
FE
80
80
80
80
80
80
ENDCHAR
STARTCHAR char0x2522
ENCODING 9506
SWIDTH 1200 0
DWIDTH 12 0
BBX 7 13 5 -3
BITMAP
80
80
80
80
80
80
FE
80
80
80
80
80
80
ENDCHAR
STARTCHAR char0x2523
ENCODING 9507
SWIDTH 1200 0
DWIDTH 12 0
BBX 7 13 5 -3
BITMAP
80
80
80
80
80
80
FE
80
80
80
80
80
80
ENDCHAR
STARTCHAR char0x2524
ENCODING 9508
SWIDTH 1200 0
DWIDTH 12 0
BBX 6 13 0 -3
BITMAP
04
04
04
04
04
04
FC
04
04
04
04
04
04
ENDCHAR
STARTCHAR char0x2525
ENCODING 9509
SWIDTH 1200 0
DWIDTH 12 0
BBX 6 13 0 -3
BITMAP
04
04
04
04
04
04
FC
04
04
04
04
04
04
ENDCHAR
STARTCHAR char0x2526
ENCODING 9510
SWIDTH 1200 0
DWIDTH 12 0
BBX 6 13 0 -3
BITMAP
04
04
04
04
04
04
FC
04
04
04
04
04
04
ENDCHAR
STARTCHAR char0x2527
ENCODING 9511
SWIDTH 1200 0
DWIDTH 12 0
BBX 6 13 0 -3
BITMAP
04
04
04
04
04
04
FC
04
04
04
04
04
04
ENDCHAR
STARTCHAR char0x2528
ENCODING 9512
SWIDTH 1200 0
DWIDTH 12 0
BBX 6 13 0 -3
BITMAP
04
04
04
04
04
04
FC
04
04
04
04
04
04
ENDCHAR
STARTCHAR char0x2529
ENCODING 9513
SWIDTH 1200 0
DWIDTH 12 0
BBX 6 13 0 -3
BITMAP
04
04
04
04
04
04
FC
04
04
04
04
04
04
ENDCHAR
STARTCHAR char0x252A
ENCODING 9514
SWIDTH 1200 0
DWIDTH 12 0
BBX 6 13 0 -3
BITMAP
04
04
04
04
04
04
FC
04
04
04
04
04
04
ENDCHAR
STARTCHAR char0x252B
ENCODING 9515
SWIDTH 1200 0
DWIDTH 12 0
BBX 6 13 0 -3
BITMAP
04
04
04
04
04
04
FC
04
04
04
04
04
04
ENDCHAR
STARTCHAR char0x252C
ENCODING 9516
SWIDTH 1200 0
DWIDTH 12 0
BBX 12 7 0 -3
BITMAP
FFF0
0400
0400
0400
0400
0400
0400
ENDCHAR
STARTCHAR char0x252D
ENCODING 9517
SWIDTH 1200 0
DWIDTH 12 0
BBX 12 7 0 -3
BITMAP
FFF0
0400
0400
0400
0400
0400
0400
ENDCHAR
STARTCHAR char0x252E
ENCODING 9518
SWIDTH 1200 0
DWIDTH 12 0
BBX 12 7 0 -3
BITMAP
FFF0
0400
0400
0400
0400
0400
0400
ENDCHAR
STARTCHAR char0x252F
ENCODING 9519
SWIDTH 1200 0
DWIDTH 12 0
BBX 12 7 0 -3
BITMAP
FFF0
0400
0400
0400
0400
0400
0400
ENDCHAR
STARTCHAR char0x2530
ENCODING 9520
SWIDTH 1200 0
DWIDTH 12 0
BBX 12 7 0 -3
BITMAP
FFF0
0400
0400
0400
0400
0400
0400
ENDCHAR
STARTCHAR char0x2531
ENCODING 9521
SWIDTH 1200 0
DWIDTH 12 0
BBX 12 7 0 -3
BITMAP
FFF0
0400
0400
0400
0400
0400
0400
ENDCHAR
STARTCHAR char0x2532
ENCODING 9522
SWIDTH 1200 0
DWIDTH 12 0
BBX 12 7 0 -3
BITMAP
FFF0
0400
0400
0400
0400
0400
0400
ENDCHAR
STARTCHAR char0x2533
ENCODING 9523
SWIDTH 1200 0
DWIDTH 12 0
BBX 12 7 0 -3
BITMAP
FFF0
0400
0400
0400
0400
0400
0400
ENDCHAR
STARTCHAR char0x2534
ENCODING 9524
SWIDTH 1200 0
DWIDTH 12 0
BBX 12 6 0 4
BITMAP
0400
0400
0400
0400
0400
FFF0
ENDCHAR
STARTCHAR char0x2535
ENCODING 9525
SWIDTH 1200 0
DWIDTH 12 0
BBX 12 7 0 3
BITMAP
0400
0400
0400
0400
0400
0400
FFF0
ENDCHAR
STARTCHAR char0x2536
ENCODING 9526
SWIDTH 1200 0
DWIDTH 12 0
BBX 12 7 0 3
BITMAP
0400
0400
0400
0400
0400
0400
FBF0
ENDCHAR
STARTCHAR char0x2537
ENCODING 9527
SWIDTH 1200 0
DWIDTH 12 0
BBX 12 7 0 3
BITMAP
0400
0400
0400
0400
0400
0400
FFF0
ENDCHAR
STARTCHAR char0x2538
ENCODING 9528
SWIDTH 1200 0
DWIDTH 12 0
BBX 12 6 0 4
BITMAP
0400
0400
0400
0400
0400
FFF0
ENDCHAR
STARTCHAR char0x2539
ENCODING 9529
SWIDTH 1200 0
DWIDTH 12 0
BBX 12 7 0 3
BITMAP
0400
0400
0400
0400
0400
0400
FFF0
ENDCHAR
STARTCHAR char0x253A
ENCODING 9530
SWIDTH 1200 0
DWIDTH 12 0
BBX 12 7 0 3
BITMAP
0400
0400
0400
0400
0400
0400
FFF0
ENDCHAR
STARTCHAR char0x253B
ENCODING 9531
SWIDTH 1200 0
DWIDTH 12 0
BBX 12 7 0 3
BITMAP
0400
0400
0400
0400
0400
0400
FFF0
ENDCHAR
STARTCHAR char0x253C
ENCODING 9532
SWIDTH 1200 0
DWIDTH 12 0
BBX 12 13 0 -3
BITMAP
0400
0400
0400
0400
0400
0400
FFF0
0400
0400
0400
0400
0400
0400
ENDCHAR
STARTCHAR char0x253D
ENCODING 9533
SWIDTH 1200 0
DWIDTH 12 0
BBX 12 13 0 -3
BITMAP
0400
0400
0400
0400
0400
0400
FFF0
0400
0400
0400
0400
0400
0400
ENDCHAR
STARTCHAR char0x253E
ENCODING 9534
SWIDTH 1200 0
DWIDTH 12 0
BBX 12 13 0 -3
BITMAP
0400
0400
0400
0400
0400
0400
FBF0
0400
0400
0400
0400
0400
0400
ENDCHAR
STARTCHAR char0x253F
ENCODING 9535
SWIDTH 1200 0
DWIDTH 12 0
BBX 12 13 0 -3
BITMAP
0400
0400
0400
0400
0400
0400
FFF0
0400
0400
0400
0400
0400
0400
ENDCHAR
STARTCHAR char0x2540
ENCODING 9536
SWIDTH 1200 0
DWIDTH 12 0
BBX 12 13 0 -3
BITMAP
0400
0400
0400
0400
0400
0400
FFF0
0400
0400
0400
0400
0400
0400
ENDCHAR
STARTCHAR char0x2541
ENCODING 9537
SWIDTH 1200 0
DWIDTH 12 0
BBX 12 13 0 -3
BITMAP
0400
0400
0400
0400
0400
0400
FFF0
0400
0400
0400
0400
0400
0400
ENDCHAR
STARTCHAR char0x2542
ENCODING 9538
SWIDTH 1200 0
DWIDTH 12 0
BBX 12 13 0 -3
BITMAP
0400
0400
0400
0400
0400
0400
FFF0
0400
0400
0400
0400
0400
0400
ENDCHAR
STARTCHAR char0x2543
ENCODING 9539
SWIDTH 1200 0
DWIDTH 12 0
BBX 12 13 0 -3
BITMAP
0400
0400
0400
0400
0400
0400
FFF0
0400
0400
0400
0400
0400
0400
ENDCHAR
STARTCHAR char0x2544
ENCODING 9540
SWIDTH 1200 0
DWIDTH 12 0
BBX 12 13 0 -3
BITMAP
0400
0400
0400
0400
0400
0400
FFF0
0400
0400
0400
0400
0400
0400
ENDCHAR
STARTCHAR char0x2545
ENCODING 9541
SWIDTH 1200 0
DWIDTH 12 0
BBX 12 13 0 -3
BITMAP
0400
0400
0400
0400
0400
0400
FFF0
0400
0400
0400
0400
0400
0400
ENDCHAR
STARTCHAR char0x2546
ENCODING 9542
SWIDTH 1200 0
DWIDTH 12 0
BBX 12 13 0 -3
BITMAP
0400
0400
0400
0400
0400
0400
FFF0
0400
0400
0400
0400
0400
0400
ENDCHAR
STARTCHAR char0x2547
ENCODING 9543
SWIDTH 1200 0
DWIDTH 12 0
BBX 12 13 0 -3
BITMAP
0400
0400
0400
0400
0400
0400
FFF0
0400
0400
0400
0400
0400
0400
ENDCHAR
STARTCHAR char0x2548
ENCODING 9544
SWIDTH 1200 0
DWIDTH 12 0
BBX 12 13 0 -3
BITMAP
0400
0400
0400
0400
0400
0400
FFF0
0400
0400
0400
0400
0400
0400
ENDCHAR
STARTCHAR char0x2549
ENCODING 9545
SWIDTH 1200 0
DWIDTH 12 0
BBX 12 13 0 -3
BITMAP
0400
0400
0400
0400
0400
0400
FFF0
0400
0400
0400
0400
0400
0400
ENDCHAR
STARTCHAR char0x254A
ENCODING 9546
SWIDTH 1200 0
DWIDTH 12 0
BBX 12 13 0 -3
BITMAP
0400
0400
0400
0400
0400
0400
FFF0
0400
0400
0400
0400
0400
0400
ENDCHAR
STARTCHAR char0x254B
ENCODING 9547
SWIDTH 1200 0
DWIDTH 12 0
BBX 12 13 0 -3
BITMAP
0400
0400
0400
0400
0400
0400
FFF0
0400
0400
0400
0400
0400
0400
ENDCHAR
STARTCHAR char0x2592
ENCODING 9618
SWIDTH 1200 0
DWIDTH 12 0
BBX 10 10 1 -1
BITMAP
FFC0
8040
8040
AAC0
8040
8040
D540
8040
8040
FFC0
ENDCHAR
STARTCHAR char0x25A0
ENCODING 9632
SWIDTH 1200 0
DWIDTH 12 0
BBX 10 10 1 -1
BITMAP
FFC0
FFC0
FFC0
FFC0
FFC0
FFC0
FFC0
FFC0
FFC0
FFC0
ENDCHAR
STARTCHAR char0x25A1
ENCODING 9633
SWIDTH 1200 0
DWIDTH 12 0
BBX 10 10 1 -1
BITMAP
FFC0
8040
8040
8040
8040
8040
8040
8040
8040
FFC0
ENDCHAR
STARTCHAR char0x25A3
ENCODING 9635
SWIDTH 1200 0
DWIDTH 12 0
BBX 10 10 1 -1
BITMAP
FFC0
8040
BF40
BF40
BF40
BF40
BF40
BF40
8040
FFC0
ENDCHAR
STARTCHAR char0x25A4
ENCODING 9636
SWIDTH 1200 0
DWIDTH 12 0
BBX 10 10 1 -1
BITMAP
FFC0
8040
FFC0
8040
8040
FFC0
8040
FFC0
8040
FFC0
ENDCHAR
STARTCHAR char0x25A5
ENCODING 9637
SWIDTH 1200 0
DWIDTH 12 0
BBX 10 10 1 -1
BITMAP
FFC0
C940
C940
C940
C940
C940
C940
C940
C940
FFC0
ENDCHAR
STARTCHAR char0x25A6
ENCODING 9638
SWIDTH 1200 0
DWIDTH 12 0
BBX 10 10 1 -1
BITMAP
FFC0
AA40
FFC0
AA40
AA40
FFC0
AA40
FFC0
AA40
FFC0
ENDCHAR
STARTCHAR char0x25A7
ENCODING 9639
SWIDTH 1200 0
DWIDTH 12 0
BBX 10 10 1 -1
BITMAP
FFC0
C8C0
A440
9240
8940
C4C0
A240
9140
C8C0
FFC0
ENDCHAR
STARTCHAR char0x25A8
ENCODING 9640
SWIDTH 1200 0
DWIDTH 12 0
BBX 10 10 1 -1
BITMAP
FFC0
C8C0
9140
A240
C440
89C0
9240
A440
C8C0
FFC0
ENDCHAR
STARTCHAR char0x25A9
ENCODING 9641
SWIDTH 1200 0
DWIDTH 12 0
BBX 10 10 1 -1
BITMAP
FFC0
CDC0
CDC0
B240
B5C0
C9C0
B640
B6C0
C940
FFC0
ENDCHAR
STARTCHAR char0x25B2
ENCODING 9650
SWIDTH 1200 0
DWIDTH 12 0
BBX 12 10 0 -1
BITMAP
0400
0600
0E00
0F00
1F00
1F80
3FC0
7FC0
7FE0
FFF0
ENDCHAR
STARTCHAR char0x25B3
ENCODING 9651
SWIDTH 1200 0
DWIDTH 12 0
BBX 12 10 0 -1
BITMAP
0400
0600
0A00
0900
1100
2080
2040
4040
4020
FFF0
ENDCHAR
STARTCHAR char0x25B6
ENCODING 9654
SWIDTH 1200 0
DWIDTH 12 0
BBX 10 12 1 -2
BITMAP
8000
C000
F000
FC00
FF00
FF80
FFC0
FF00
FC00
F000
C000
8000
ENDCHAR
STARTCHAR char0x25B7
ENCODING 9655
SWIDTH 1200 0
DWIDTH 12 0
BBX 10 12 1 -2
BITMAP
8000
C000
B000
8C00
8200
8180
80C0
8300
8C00
9000
E000
8000
ENDCHAR
STARTCHAR char0x25BC
ENCODING 9660
SWIDTH 1200 0
DWIDTH 12 0
BBX 12 10 0 -1
BITMAP
FFF0
7FE0
7FC0
3FC0
1F80
1F00
0F00
0E00
0600
0400
ENDCHAR
STARTCHAR char0x25BD
ENCODING 9661
SWIDTH 1200 0
DWIDTH 12 0
BBX 12 10 0 -1
BITMAP
FFF0
8020
4040
2040
2080
1080
1100
0A00
0600
0400
ENDCHAR
STARTCHAR char0x25C0
ENCODING 9664
SWIDTH 1200 0
DWIDTH 12 0
BBX 10 12 0 -2
BITMAP
0040
00C0
01C0
07C0
1FC0
7FC0
FFC0
1FC0
07C0
03C0
00C0
0040
ENDCHAR
STARTCHAR char0x25C1
ENCODING 9665
SWIDTH 1200 0
DWIDTH 12 0
BBX 10 12 0 -2
BITMAP
0040
00C0
0140
0640
1840
6040
E040
1040
0C40
0340
00C0
0040
ENDCHAR
STARTCHAR char0x25C6
ENCODING 9670
SWIDTH 1200 0
DWIDTH 12 0
BBX 11 12 0 -2
BITMAP
0400
0600
0F00
1F80
3FC0
7FE0
FFE0
7FC0
3F80
1F00
0E00
0400
ENDCHAR
STARTCHAR char0x25C7
ENCODING 9671
SWIDTH 1200 0
DWIDTH 12 0
BBX 12 12 0 -2
BITMAP
0400
0600
0900
1080
2040
4020
8030
4040
2080
1100
0A00
0400
ENDCHAR
STARTCHAR char0x25C8
ENCODING 9672
SWIDTH 1200 0
DWIDTH 12 0
BBX 12 12 0 -2
BITMAP
0400
0A00
1100
2680
4F40
9FA0
BFB0
4F40
2640
1480
0900
0600
ENDCHAR
STARTCHAR char0x25CB
ENCODING 9675
SWIDTH 1200 0
DWIDTH 12 0
BBX 11 10 0 -1
BITMAP
1F00
20C0
4040
8020
8020
8020
8020
4020
2040
1F80
ENDCHAR
STARTCHAR char0x25CE
ENCODING 9678
SWIDTH 1200 0
DWIDTH 12 0
BBX 11 10 0 -1
BITMAP
1F00
20C0
4F40
90A0
A0A0
A0A0
90A0
4B20
2440
1F80
ENDCHAR
STARTCHAR char0x25CF
ENCODING 9679
SWIDTH 1200 0
DWIDTH 12 0
BBX 10 10 1 -1
BITMAP
3E00
7F80
FF80
FFC0
FFC0
FFC0
FFC0
FF80
7F80
3F00
ENDCHAR
STARTCHAR char0x25D0
ENCODING 9680
SWIDTH 1200 0
DWIDTH 12 0
BBX 11 11 0 -2
BITMAP
1F80
7C40
7C20
FC20
FC20
FC20
FC20
7C20
7C40
3C80
0F00
ENDCHAR
STARTCHAR char0x25D1
ENCODING 9681
SWIDTH 1200 0
DWIDTH 12 0
BBX 11 11 0 -2
BITMAP
1F80
63C0
43E0
83E0
83E0
83E0
83E0
43E0
43C0
3380
0E00
ENDCHAR
STARTCHAR char0x2605
ENCODING 9733
SWIDTH 1200 0
DWIDTH 12 0
BBX 12 11 0 -1
BITMAP
0400
0400
0600
0600
FFF0
7FC0
1F80
1F00
1F80
1180
2080
ENDCHAR
STARTCHAR char0x2606
ENCODING 9734
SWIDTH 1200 0
DWIDTH 12 0
BBX 12 11 0 -1
BITMAP
0400
0400
0600
0A00
FBF0
6040
1080
1100
1680
1980
2080
ENDCHAR
STARTCHAR char0x260E
ENCODING 9742
SWIDTH 1200 0
DWIDTH 12 0
BBX 11 8 0 0
BITMAP
1F00
7FE0
E960
5F60
1180
3180
3BC0
3FC0
ENDCHAR
STARTCHAR char0x260F
ENCODING 9743
SWIDTH 1200 0
DWIDTH 12 0
BBX 11 8 0 0
BITMAP
1F00
EFE0
B7A0
5760
2A80
2A80
4440
7FC0
ENDCHAR
STARTCHAR char0x261C
ENCODING 9756
SWIDTH 1200 0
DWIDTH 12 0
BBX 10 6 1 1
BITMAP
0400
FBC0
2940
5F40
7940
1680
ENDCHAR
STARTCHAR char0x261E
ENCODING 9758
SWIDTH 1200 0
DWIDTH 12 0
BBX 10 5 1 2
BITMAP
1F80
F440
8F80
BD00
FF00
ENDCHAR
STARTCHAR char0x2640
ENCODING 9792
SWIDTH 1200 0
DWIDTH 12 0
BBX 8 11 2 -1
BITMAP
10
6C
42
42
42
3C
10
FF
10
10
10
ENDCHAR
STARTCHAR char0x2642
ENCODING 9794
SWIDTH 1200 0
DWIDTH 12 0
BBX 8 12 2 -2
BITMAP
10
38
74
93
90
10
3C
42
42
42
64
18
ENDCHAR
STARTCHAR char0x2660
ENCODING 9824
SWIDTH 1200 0
DWIDTH 12 0
BBX 9 12 1 -2
BITMAP
0800
0800
0C00
1E00
3F00
7F80
FF80
FF80
7F80
0800
0C00
7F00
ENDCHAR
STARTCHAR char0x2661
ENCODING 9825
SWIDTH 1200 0
DWIDTH 12 0
BBX 10 11 1 -2
BITMAP
7380
8C80
8840
8080
8080
4100
2200
1200
0C00
0800
0800
ENDCHAR
STARTCHAR char0x2663
ENCODING 9827
SWIDTH 1200 0
DWIDTH 12 0
BBX 10 11 1 -2
BITMAP
1E00
3E00
3E00
7F80
FFC0
FFC0
FFC0
FB80
0C00
0C00
7F00
ENDCHAR
STARTCHAR char0x2664
ENCODING 9828
SWIDTH 1200 0
DWIDTH 12 0
BBX 9 12 1 -2
BITMAP
0800
0800
1400
1200
2100
4080
8080
8880
5C80
3700
1400
7F00
ENDCHAR
STARTCHAR char0x2665
ENCODING 9829
SWIDTH 1200 0
DWIDTH 12 0
BBX 10 11 1 -2
BITMAP
7380
FF80
FFC0
FF80
7F80
7F00
3E00
1E00
0C00
0800
0800
ENDCHAR
STARTCHAR char0x2667
ENCODING 9831
SWIDTH 1200 0
DWIDTH 12 0
BBX 10 11 1 -2
BITMAP
1E00
2200
2200
7380
8040
8040
8C40
FF80
1400
1400
7F00
ENDCHAR
STARTCHAR char0x2668
ENCODING 9832
SWIDTH 1200 0
DWIDTH 12 0
BBX 12 12 0 -2
BITMAP
0400
1500
1500
1500
1500
0A80
0A80
7360
9510
9630
60E0
1F00
ENDCHAR
STARTCHAR char0x2669
ENCODING 9833
SWIDTH 1200 0
DWIDTH 12 0
BBX 4 10 3 -1
BITMAP
10
10
10
10
10
10
10
10
70
E0
ENDCHAR
STARTCHAR char0x266A
ENCODING 9834
SWIDTH 1200 0
DWIDTH 12 0
BBX 7 10 2 -1
BITMAP
10
18
14
12
12
12
12
14
70
E0
ENDCHAR
STARTCHAR char0x266C
ENCODING 9836
SWIDTH 1200 0
DWIDTH 12 0
BBX 9 10 1 -1
BITMAP
0F80
1880
1780
1880
1080
1080
1080
1380
6700
E000
ENDCHAR
STARTCHAR char0x266D
ENCODING 9837
SWIDTH 1200 0
DWIDTH 12 0
BBX 5 10 4 -1
BITMAP
80
80
80
80
F8
88
88
90
A0
C0
ENDCHAR
STARTCHAR char0x3000
ENCODING 12288
SWIDTH 1200 0
DWIDTH 12 0
BBX 0 0 0 0
BITMAP
ENDCHAR
STARTCHAR char0x3001
ENCODING 12289
SWIDTH 600 0
DWIDTH 6 0
BBX 3 3 0 -2
BITMAP
80
40
20
ENDCHAR
STARTCHAR char0x3002
ENCODING 12290
SWIDTH 600 0
DWIDTH 6 0
BBX 3 3 0 -2
BITMAP
60
A0
60
ENDCHAR
STARTCHAR char0x3003
ENCODING 12291
SWIDTH 1200 0
DWIDTH 12 0
BBX 4 4 4 2
BITMAP
70
A0
C0
40
ENDCHAR
STARTCHAR char0x3008
ENCODING 12296
SWIDTH 600 0
DWIDTH 6 0
BBX 4 12 1 -2
BITMAP
10
10
20
20
40
40
80
40
20
20
10
10
ENDCHAR
STARTCHAR char0x3009
ENCODING 12297
SWIDTH 600 0
DWIDTH 6 0
BBX 5 12 0 -2
BITMAP
80
40
20
20
10
10
18
10
20
20
40
80
ENDCHAR
STARTCHAR char0x300A
ENCODING 12298
SWIDTH 600 0
DWIDTH 6 0
BBX 5 12 0 -2
BITMAP
18
28
30
50
60
A0
A0
60
50
30
28
18
ENDCHAR
STARTCHAR char0x300B
ENCODING 12299
SWIDTH 600 0
DWIDTH 6 0
BBX 5 12 0 -2
BITMAP
C0
60
50
30
28
18
18
28
30
50
60
A0
ENDCHAR
STARTCHAR char0x300C
ENCODING 12300
SWIDTH 600 0
DWIDTH 6 0
BBX 4 6 1 4
BITMAP
F0
80
80
80
80
80
ENDCHAR
STARTCHAR char0x300D
ENCODING 12301
SWIDTH 600 0
DWIDTH 6 0
BBX 4 5 0 -2
BITMAP
10
10
10
10
F0
ENDCHAR
STARTCHAR char0x300E
ENCODING 12302
SWIDTH 600 0
DWIDTH 6 0
BBX 4 6 1 4
BITMAP
F0
C0
C0
C0
C0
C0
ENDCHAR
STARTCHAR char0x300F
ENCODING 12303
SWIDTH 600 0
DWIDTH 6 0
BBX 4 5 0 -2
BITMAP
30
30
30
30
F0
ENDCHAR
STARTCHAR char0x3010
ENCODING 12304
SWIDTH 600 0
DWIDTH 6 0
BBX 4 12 1 -2
BITMAP
F0
E0
C0
80
80
80
80
80
80
C0
C0
F0
ENDCHAR
STARTCHAR char0x3011
ENCODING 12305
SWIDTH 600 0
DWIDTH 6 0
BBX 5 12 0 -2
BITMAP
F8
38
18
18
08
08
08
08
18
18
38
F8
ENDCHAR
STARTCHAR char0x3013
ENCODING 12307
SWIDTH 1200 0
DWIDTH 12 0
BBX 9 4 1 2
BITMAP
FF80
0000
0000
FF80
ENDCHAR
STARTCHAR char0x3014
ENCODING 12308
SWIDTH 600 0
DWIDTH 6 0
BBX 4 12 1 -2
BITMAP
30
E0
80
80
80
80
80
80
80
80
C0
30
ENDCHAR
STARTCHAR char0x3015
ENCODING 12309
SWIDTH 600 0
DWIDTH 6 0
BBX 5 12 0 -2
BITMAP
E0
38
08
08
08
08
08
08
08
08
38
E0
ENDCHAR
STARTCHAR char0x3041
ENCODING 12353
SWIDTH 1200 0
DWIDTH 12 0
BBX 7 8 2 -2
BITMAP
10
7C
28
3E
72
92
F6
08
ENDCHAR
STARTCHAR char0x3042
ENCODING 12354
SWIDTH 1200 0
DWIDTH 12 0
BBX 10 12 1 -2
BITMAP
1000
1800
9E00
7000
1200
1F80
7480
D840
9840
B880
D300
0400
ENDCHAR
STARTCHAR char0x3043
ENCODING 12355
SWIDTH 1200 0
DWIDTH 12 0
BBX 7 5 2 -1
BITMAP
84
84
82
62
70
ENDCHAR
STARTCHAR char0x3044
ENCODING 12356
SWIDTH 1200 0
DWIDTH 12 0
BBX 10 8 1 0
BITMAP
8000
8100
8180
8080
8080
90C0
5000
2000
ENDCHAR
STARTCHAR char0x3045
ENCODING 12357
SWIDTH 1200 0
DWIDTH 12 0
BBX 5 8 3 -1
BITMAP
20
18
00
78
88
08
08
10
ENDCHAR
STARTCHAR char0x3046
ENCODING 12358
SWIDTH 1200 0
DWIDTH 12 0
BBX 6 12 3 -2
BITMAP
20
18
08
10
EC
84
04
04
08
08
10
20
ENDCHAR
STARTCHAR char0x3047
ENCODING 12359
SWIDTH 1200 0
DWIDTH 12 0
BBX 6 8 3 -2
BITMAP
20
10
30
F0
20
50
94
88
ENDCHAR
STARTCHAR char0x3048
ENCODING 12360
SWIDTH 1200 0
DWIDTH 12 0
BBX 9 11 1 -1
BITMAP
1000
0E00
0000
0400
7E00
0C00
0800
1C00
2400
4200
C380
ENDCHAR
STARTCHAR char0x3049
ENCODING 12361
SWIDTH 1200 0
DWIDTH 12 0
BBX 7 8 2 -2
BITMAP
20
34
62
2C
32
E2
A4
48
ENDCHAR
STARTCHAR char0x304A
ENCODING 12362
SWIDTH 1200 0
DWIDTH 12 0
BBX 10 10 1 -1
BITMAP
2000
2900
F8C0
2000
2600
3980
6080
A080
A180
6700
ENDCHAR
STARTCHAR char0x304B
ENCODING 12363
SWIDTH 1200 0
DWIDTH 12 0
BBX 11 10 0 -1
BITMAP
0800
1000
1EC0
F240
1220
2200
2200
4200
4600
9C00
ENDCHAR
STARTCHAR char0x304C
ENCODING 12364
SWIDTH 1200 0
DWIDTH 12 0
BBX 11 11 0 -1
BITMAP
0020
1860
1040
1E80
F240
2260
2240
6200
4200
C400
0800
ENDCHAR
STARTCHAR char0x304D
ENCODING 12365
SWIDTH 1200 0
DWIDTH 12 0
BBX 7 11 2 -1
BITMAP
10
14
1C
6A
0E
74
06
7E
80
80
78
ENDCHAR
STARTCHAR char0x304E
ENCODING 12366
SWIDTH 1200 0
DWIDTH 12 0
BBX 9 11 1 -1
BITMAP
1080
3580
1F00
6A00
0E00
7400
0400
7E00
8000
C000
7C00
ENDCHAR
STARTCHAR char0x304F
ENCODING 12367
SWIDTH 1200 0
DWIDTH 12 0
BBX 5 11 3 -1
BITMAP
10
18
10
20
40
C0
40
20
10
10
08
ENDCHAR
STARTCHAR char0x3050
ENCODING 12368
SWIDTH 1200 0
DWIDTH 12 0
BBX 8 11 2 -1
BITMAP
20
10
22
67
44
80
C0
40
20
10
18
ENDCHAR
STARTCHAR char0x3051
ENCODING 12369
SWIDTH 1200 0
DWIDTH 12 0
BBX 9 10 1 -1
BITMAP
4100
8100
8F80
8100
8100
8100
C100
C200
4200
8400
ENDCHAR
STARTCHAR char0x3052
ENCODING 12370
SWIDTH 1200 0
DWIDTH 12 0
BBX 11 11 0 -1
BITMAP
0060
41E0
4140
41C0
8F00
8100
8100
E100
4100
4200
4600
ENDCHAR
STARTCHAR char0x3053
ENCODING 12371
SWIDTH 1200 0
DWIDTH 12 0
BBX 8 8 2 0
BITMAP
3E
08
00
00
80
80
80
7F
ENDCHAR
STARTCHAR char0x3054
ENCODING 12372
SWIDTH 1200 0
DWIDTH 12 0
BBX 10 8 1 0
BITMAP
7E80
0940
0080
0000
8000
8000
8000
7E00
ENDCHAR
STARTCHAR char0x3055
ENCODING 12373
SWIDTH 1200 0
DWIDTH 12 0
BBX 8 10 2 -1
BITMAP
10
0A
7C
04
06
7E
83
80
C0
7C
ENDCHAR
STARTCHAR char0x3056
ENCODING 12374
SWIDTH 1200 0
DWIDTH 12 0
BBX 10 11 1 -1
BITMAP
0080
1140
0A80
FC00
0400
0400
7E00
8200
8000
C000
3800
ENDCHAR
STARTCHAR char0x3057
ENCODING 12375
SWIDTH 1200 0
DWIDTH 12 0
BBX 7 10 2 -1
BITMAP
80
80
80
80
80
80
82
82
44
78
ENDCHAR
STARTCHAR char0x3058
ENCODING 12376
SWIDTH 1200 0
DWIDTH 12 0
BBX 7 10 2 -1
BITMAP
84
8A
84
80
80
80
82
82
44
38
ENDCHAR
STARTCHAR char0x3059
ENCODING 12377
SWIDTH 1200 0
DWIDTH 12 0
BBX 10 11 1 -2
BITMAP
0400
3FC0
C400
1C00
2400
2400
2400
1C00
0400
0800
1000
ENDCHAR
STARTCHAR char0x305A
ENCODING 12378
SWIDTH 1200 0
DWIDTH 12 0
BBX 10 12 1 -2
BITMAP
0080
05C0
0500
FFC0
0400
1C00
2400
2400
1C00
0400
0800
1000
ENDCHAR
STARTCHAR char0x305B
ENCODING 12379
SWIDTH 1200 0
DWIDTH 12 0
BBX 10 10 1 -1
BITMAP
2100
2100
2100
FFC0
2100
2200
2600
2000
3100
0E00
ENDCHAR
STARTCHAR char0x305C
ENCODING 12380
SWIDTH 1200 0
DWIDTH 12 0
BBX 11 11 0 -1
BITMAP
0020
2160
1140
1100
FFE0
1100
1100
1200
1000
1080
0F00
ENDCHAR
STARTCHAR char0x305D
ENCODING 12381
SWIDTH 1200 0
DWIDTH 12 0
BBX 10 11 1 -1
BITMAP
0200
2300
1600
0400
1F80
E440
0800
0800
0800
0800
0700
ENDCHAR
STARTCHAR char0x305E
ENCODING 12382
SWIDTH 1200 0
DWIDTH 12 0
BBX 11 11 0 -1
BITMAP
0200
23A0
1240
0400
1FC0
E600
0C00
0800
0800
0C00
0700
ENDCHAR
STARTCHAR char0x305F
ENCODING 12383
SWIDTH 1200 0
DWIDTH 12 0
BBX 10 11 1 -1
BITMAP
2000
1000
3000
F800
27C0
2100
2200
4000
4800
4C00
8380
ENDCHAR
STARTCHAR char0x3060
ENCODING 12384
SWIDTH 1200 0
DWIDTH 12 0
BBX 10 11 1 -1
BITMAP
4000
20C0
21C0
F080
4780
4100
4200
4000
8800
9800
8780
ENDCHAR
STARTCHAR char0x3061
ENCODING 12385
SWIDTH 1200 0
DWIDTH 12 0
BBX 9 10 1 -1
BITMAP
2000
2600
F800
2000
2700
3880
2080
0080
0300
0C00
ENDCHAR
STARTCHAR char0x3062
ENCODING 12386
SWIDTH 1200 0
DWIDTH 12 0
BBX 10 10 1 -1
BITMAP
2080
25C0
F900
2000
4F00
7180
6080
0100
0300
1C00
ENDCHAR
STARTCHAR char0x3063
ENCODING 12387
SWIDTH 1200 0
DWIDTH 12 0
BBX 7 5 2 -1
BITMAP
7E
82
02
02
1C
ENDCHAR
STARTCHAR char0x3064
ENCODING 12388
SWIDTH 1200 0
DWIDTH 12 0
BBX 10 8 1 0
BITMAP
0F00
F080
8040
0040
0040
0080
0300
0E00
ENDCHAR
STARTCHAR char0x3065
ENCODING 12389
SWIDTH 1200 0
DWIDTH 12 0
BBX 12 10 0 0
BITMAP
0020
0070
0740
78C0
8040
0040
0040
00C0
0180
0600
ENDCHAR
STARTCHAR char0x3066
ENCODING 12390
SWIDTH 1200 0
DWIDTH 12 0
BBX 9 10 1 -1
BITMAP
0380
FF00
0400
0800
0800
0800
0800
0C00
0600
0100
ENDCHAR
STARTCHAR char0x3067
ENCODING 12391
SWIDTH 1200 0
DWIDTH 12 0
BBX 11 10 0 -1
BITMAP
03C0
FF00
0420
0C60
0840
0800
0800
0400
0700
0180
ENDCHAR
STARTCHAR char0x3068
ENCODING 12392
SWIDTH 1200 0
DWIDTH 12 0
BBX 7 10 2 -1
BITMAP
20
22
16
18
20
40
80
80
42
3E
ENDCHAR
STARTCHAR char0x3069
ENCODING 12393
SWIDTH 1200 0
DWIDTH 12 0
BBX 10 11 1 -1
BITMAP
0080
6140
2280
2E00
1800
6000
4000
8000
8000
C200
3E00
ENDCHAR
STARTCHAR char0x306A
ENCODING 12394
SWIDTH 1200 0
DWIDTH 12 0
BBX 10 11 1 -1
BITMAP
2000
1000
3900
E080
2340
4200
4200
8200
0E00
1380
1E00
ENDCHAR
STARTCHAR char0x306B
ENCODING 12395
SWIDTH 1200 0
DWIDTH 12 0
BBX 9 10 1 -1
BITMAP
4000
4F80
8100
8200
8000
8000
C800
C800
4780
8000
ENDCHAR
STARTCHAR char0x306C
ENCODING 12396
SWIDTH 1200 0
DWIDTH 12 0
BBX 11 10 0 -1
BITMAP
0400
4400
5F80
2440
6440
5840
9840
9BC0
72E0
0300
ENDCHAR
STARTCHAR char0x306D
ENCODING 12397
SWIDTH 1200 0
DWIDTH 12 0
BBX 11 11 0 -1
BITMAP
2000
1000
1000
77C0
9C40
3040
2040
6140
E6E0
24A0
2300
ENDCHAR
STARTCHAR char0x306E
ENCODING 12398
SWIDTH 1200 0
DWIDTH 12 0
BBX 10 8 1 0
BITMAP
3F00
4480
8840
8840
8840
9040
9080
6300
ENDCHAR
STARTCHAR char0x306F
ENCODING 12399
SWIDTH 1200 0
DWIDTH 12 0
BBX 10 10 1 -1
BITMAP
4300
4200
8F80
8100
8100
8100
C100
CF80
C9C0
4E00
ENDCHAR
STARTCHAR char0x3070
ENCODING 12400
SWIDTH 1200 0
DWIDTH 12 0
BBX 11 11 0 -1
BITMAP
0020
4160
4140
4FC0
8100
8100
8100
C100
EFC0
4940
4F00
ENDCHAR
STARTCHAR char0x3071
ENCODING 12401
SWIDTH 1200 0
DWIDTH 12 0
BBX 11 11 0 -1
BITMAP
0060
41A0
4140
4FC0
4100
8100
8100
A100
6FC0
4940
4600
ENDCHAR
STARTCHAR char0x3072
ENCODING 12402
SWIDTH 1200 0
DWIDTH 12 0
BBX 10 10 1 -1
BITMAP
2200
F300
4100
41C0
8180
8100
8200
8200
4400
3800
ENDCHAR
STARTCHAR char0x3073
ENCODING 12403
SWIDTH 1200 0
DWIDTH 12 0
BBX 11 11 0 -1
BITMAP
0020
1160
F140
2180
4140
4100
4100
4100
4300
6600
1C00
ENDCHAR
STARTCHAR char0x3074
ENCODING 12404
SWIDTH 1200 0
DWIDTH 12 0
BBX 11 11 0 -1
BITMAP
0040
11A0
F160
2180
2140
4140
4100
4100
4200
6600
1800
ENDCHAR
STARTCHAR char0x3075
ENCODING 12405
SWIDTH 1200 0
DWIDTH 12 0
BBX 11 9 0 0
BITMAP
0400
0A00
0400
0800
0800
0440
8240
6320
7700
ENDCHAR
STARTCHAR char0x3076
ENCODING 12406
SWIDTH 1200 0
DWIDTH 12 0
BBX 10 9 1 0
BITMAP
0800
1480
0940
1080
1000
0880
8480
C640
EE00
ENDCHAR
STARTCHAR char0x3077
ENCODING 12407
SWIDTH 1200 0
DWIDTH 12 0
BBX 11 9 0 0
BITMAP
0400
0A60
04A0
0860
0800
0440
8240
6320
7700
ENDCHAR
STARTCHAR char0x3078
ENCODING 12408
SWIDTH 1200 0
DWIDTH 12 0
BBX 11 6 0 1
BITMAP
1800
3400
6300
C180
0060
0020
ENDCHAR
STARTCHAR char0x3079
ENCODING 12409
SWIDTH 1200 0
DWIDTH 12 0
BBX 11 7 0 1
BITMAP
0040
18E0
3480
6300
C180
0060
0020
ENDCHAR
STARTCHAR char0x307A
ENCODING 12410
SWIDTH 1200 0
DWIDTH 12 0
BBX 11 7 0 1
BITMAP
00C0
1940
34C0
6300
C180
0060
0020
ENDCHAR
STARTCHAR char0x307B
ENCODING 12411
SWIDTH 1200 0
DWIDTH 12 0
BBX 10 10 1 -1
BITMAP
5F80
8200
8200
9F80
8200
8200
C200
DF00
92C0
8E00
ENDCHAR
STARTCHAR char0x307C
ENCODING 12412
SWIDTH 1200 0
DWIDTH 12 0
BBX 11 10 0 -1
BITMAP
7FC0
43A0
4340
5F80
4100
8100
C100
5F00
51C0
4E00
ENDCHAR
STARTCHAR char0x307D
ENCODING 12413
SWIDTH 1200 0
DWIDTH 12 0
BBX 11 10 0 -1
BITMAP
5FC0
42A0
4260
5F80
8200
8200
CA00
5F00
52C0
4E00
ENDCHAR
STARTCHAR char0x307E
ENCODING 12414
SWIDTH 1200 0
DWIDTH 12 0
BBX 7 10 2 -1
BITMAP
08
7E
08
0A
7C
08
08
7C
8A
70
ENDCHAR
STARTCHAR char0x307F
ENCODING 12415
SWIDTH 1200 0
DWIDTH 12 0
BBX 10 10 1 -1
BITMAP
0C00
7C00
0A00
0980
3900
D700
A1C0
A280
C600
0C00
ENDCHAR
STARTCHAR char0x3080
ENCODING 12416
SWIDTH 1200 0
DWIDTH 12 0
BBX 10 11 1 -1
BITMAP
1000
1000
F900
1080
3040
F000
9000
B000
6080
2080
1F00
ENDCHAR
STARTCHAR char0x3081
ENCODING 12417
SWIDTH 1200 0
DWIDTH 12 0
BBX 10 10 1 -1
BITMAP
0600
4400
5F00
6480
6840
B840
9040
B880
C300
0400
ENDCHAR
STARTCHAR char0x3082
ENCODING 12418
SWIDTH 1200 0
DWIDTH 12 0
BBX 8 10 2 -1
BITMAP
20
20
F0
20
C4
F2
41
41
62
3C
ENDCHAR
STARTCHAR char0x3083
ENCODING 12419
SWIDTH 1200 0
DWIDTH 12 0
BBX 8 7 2 -1
BITMAP
10
5E
5B
62
AE
10
10
ENDCHAR
STARTCHAR char0x3084
ENCODING 12420
SWIDTH 1200 0
DWIDTH 12 0
BBX 10 11 1 -1
BITMAP
1000
0800
4D00
6EC0
3040
F040
9780
1000
0800
0800
0C00
ENDCHAR
STARTCHAR char0x3085
ENCODING 12421
SWIDTH 1200 0
DWIDTH 12 0
BBX 7 8 2 -2
BITMAP
08
C8
BE
CA
EA
9E
90
10
ENDCHAR
STARTCHAR char0x3086
ENCODING 12422
SWIDTH 1200 0
DWIDTH 12 0
BBX 10 10 1 -1
BITMAP
4600
8700
9D80
A4C0
C440
C440
9480
8F00
8400
0800
ENDCHAR
STARTCHAR char0x3087
ENCODING 12423
SWIDTH 1200 0
DWIDTH 12 0
BBX 6 7 3 -1
BITMAP
10
20
18
20
20
F0
FC
ENDCHAR
STARTCHAR char0x3088
ENCODING 12424
SWIDTH 1200 0
DWIDTH 12 0
BBX 8 11 2 -1
BITMAP
10
18
10
1E
10
10
10
70
9E
93
F0
ENDCHAR
STARTCHAR char0x3089
ENCODING 12425
SWIDTH 1200 0
DWIDTH 12 0
BBX 7 11 2 -1
BITMAP
20
30
00
40
80
9E
E2
C2
02
06
18
ENDCHAR
STARTCHAR char0x308A
ENCODING 12426
SWIDTH 1200 0
DWIDTH 12 0
BBX 6 10 3 -1
BITMAP
CC
84
84
C4
C4
84
88
08
18
30
ENDCHAR
STARTCHAR char0x308B
ENCODING 12427
SWIDTH 1200 0
DWIDTH 12 0
BBX 8 10 2 -1
BITMAP
7C
08
10
2C
73
C1
81
39
2E
18
ENDCHAR
STARTCHAR char0x308C
ENCODING 12428
SWIDTH 1200 0
DWIDTH 12 0
BBX 11 10 0 -1
BITMAP
1000
1200
3F80
5C80
1080
3080
7080
5120
90C0
1000
ENDCHAR
STARTCHAR char0x308D
ENCODING 12429
SWIDTH 1200 0
DWIDTH 12 0
BBX 9 10 1 -1
BITMAP
3E00
0400
0800
1800
1F00
3080
4080
8080
0180
0E00
ENDCHAR
STARTCHAR char0x308E
ENCODING 12430
SWIDTH 1200 0
DWIDTH 12 0
BBX 7 8 2 -2
BITMAP
20
20
EC
32
62
62
AC
20
ENDCHAR
STARTCHAR char0x308F
ENCODING 12431
SWIDTH 1200 0
DWIDTH 12 0
BBX 10 11 1 -1
BITMAP
2000
3000
2000
F300
AD80
3040
6040
6040
A080
A300
2200
ENDCHAR
STARTCHAR char0x3090
ENCODING 12432
SWIDTH 1200 0
DWIDTH 12 0
BBX 10 10 1 -1
BITMAP
0C00
3400
0800
0F00
3880
50C0
9040
AE80
AA80
4F00
ENDCHAR
STARTCHAR char0x3091
ENCODING 12433
SWIDTH 1200 0
DWIDTH 12 0
BBX 10 10 1 -1
BITMAP
3E00
0400
0F00
1180
6C80
1D00
1600
6700
DC80
88C0
ENDCHAR
STARTCHAR char0x3092
ENCODING 12434
SWIDTH 1200 0
DWIDTH 12 0
BBX 9 11 1 -1
BITMAP
1000
0800
7C00
1000
2800
7580
4600
9C00
3400
2000
1F00
ENDCHAR
STARTCHAR char0x3093
ENCODING 12435
SWIDTH 1200 0
DWIDTH 12 0
BBX 9 10 1 -1
BITMAP
0800
0C00
1000
1000
1000
3C00
2400
4480
4280
8300
ENDCHAR
STARTCHAR char0x30A1
ENCODING 12449
SWIDTH 1200 0
DWIDTH 12 0
BBX 7 7 2 -2
BITMAP
FE
14
18
10
20
60
40
ENDCHAR
STARTCHAR char0x30A2
ENCODING 12450
SWIDTH 1200 0
DWIDTH 12 0
BBX 10 10 1 -1
BITMAP
0080
FFC0
1180
0B00
0C00
0800
1000
1000
2000
4000
ENDCHAR
STARTCHAR char0x30A3
ENCODING 12451
SWIDTH 1200 0
DWIDTH 12 0
BBX 6 8 3 -2
BITMAP
04
08
10
70
90
10
10
10
ENDCHAR
STARTCHAR char0x30A4
ENCODING 12452
SWIDTH 1200 0
DWIDTH 12 0
BBX 8 10 2 -1
BITMAP
01
02
0C
18
68
88
08
08
08
08
ENDCHAR
STARTCHAR char0x30A5
ENCODING 12453
SWIDTH 1200 0
DWIDTH 12 0
BBX 6 8 3 -2
BITMAP
20
20
DC
84
08
08
30
40
ENDCHAR
STARTCHAR char0x30A6
ENCODING 12454
SWIDTH 1200 0
DWIDTH 12 0
BBX 8 10 2 -1
BITMAP
10
10
EF
81
81
02
02
04
08
10
ENDCHAR
STARTCHAR char0x30A7
ENCODING 12455
SWIDTH 1200 0
DWIDTH 12 0
BBX 6 5 3 -1
BITMAP
FC
20
20
20
FC
ENDCHAR
STARTCHAR char0x30A8
ENCODING 12456
SWIDTH 1200 0
DWIDTH 12 0
BBX 10 7 1 1
BITMAP
7F80
0800
0800
0800
0800
0800
FFC0
ENDCHAR
STARTCHAR char0x30A9
ENCODING 12457
SWIDTH 1200 0
DWIDTH 12 0
BBX 6 7 3 -2
BITMAP
10
FC
30
30
D0
10
20
ENDCHAR
STARTCHAR char0x30AA
ENCODING 12458
SWIDTH 1200 0
DWIDTH 12 0
BBX 9 10 1 -1
BITMAP
0200
0200
7F80
0600
0A00
1200
2200
C200
0200
0C00
ENDCHAR
STARTCHAR char0x30AB
ENCODING 12459
SWIDTH 1200 0
DWIDTH 12 0
BBX 8 10 2 -1
BITMAP
10
10
FF
11
11
11
21
61
C2
0C
ENDCHAR
STARTCHAR char0x30AC
ENCODING 12460
SWIDTH 1200 0
DWIDTH 12 0
BBX 10 11 1 -1
BITMAP
0080
1940
1080
FF00
1100
1100
1100
2100
6100
C200
0C00
ENDCHAR
STARTCHAR char0x30AD
ENCODING 12461
SWIDTH 1200 0
DWIDTH 12 0
BBX 9 10 1 -1
BITMAP
0800
0900
7E00
0800
0880
FF00
0400
0400
0400
0400
ENDCHAR
STARTCHAR char0x30AE
ENCODING 12462
SWIDTH 1200 0
DWIDTH 12 0
BBX 10 11 1 -1
BITMAP
0080
11C0
1100
FE00
1000
0900
FE00
0800
0800
0800
0800
ENDCHAR
STARTCHAR char0x30AF
ENCODING 12463
SWIDTH 1200 0
DWIDTH 12 0
BBX 8 10 2 -1
BITMAP
18
1E
21
42
82
04
08
10
60
C0
ENDCHAR
STARTCHAR char0x30B0
ENCODING 12464
SWIDTH 1200 0
DWIDTH 12 0
BBX 10 11 1 -1
BITMAP
0080
1940
1E80
2300
4200
8600
0400
0800
1000
6000
8000
ENDCHAR
STARTCHAR char0x30B1
ENCODING 12465
SWIDTH 1200 0
DWIDTH 12 0
BBX 10 10 1 -1
BITMAP
1000
1000
3FC0
2200
4200
8200
0400
0400
0800
1000
ENDCHAR
STARTCHAR char0x30B2
ENCODING 12466
SWIDTH 1200 0
DWIDTH 12 0
BBX 12 11 0 -1
BITMAP
0020
0870
1040
1FC0
2200
4200
8200
0200
0400
0800
1000
ENDCHAR
STARTCHAR char0x30B3
ENCODING 12467
SWIDTH 1200 0
DWIDTH 12 0
BBX 8 7 2 1
BITMAP
FF
01
01
01
01
01
FF
ENDCHAR
STARTCHAR char0x30B4
ENCODING 12468
SWIDTH 1200 0
DWIDTH 12 0
BBX 10 9 1 1
BITMAP
0080
01C0
0100
FE00
0200
0200
0200
0200
FE00
ENDCHAR
STARTCHAR char0x30B5
ENCODING 12469
SWIDTH 1200 0
DWIDTH 12 0
BBX 10 10 1 -1
BITMAP
2300
2200
FFC0
2200
2200
2200
0200
0400
0C00
1800
ENDCHAR
STARTCHAR char0x30B6
ENCODING 12470
SWIDTH 1200 0
DWIDTH 12 0
BBX 11 11 0 -1
BITMAP
0060
11E0
1140
FFE0
1100
1100
1100
0100
0200
0600
0C00
ENDCHAR
STARTCHAR char0x30B7
ENCODING 12471
SWIDTH 1200 0
DWIDTH 12 0
BBX 9 10 1 -1
BITMAP
2000
1000
0000
C080
2080
0100
0600
0C00
3000
4000
ENDCHAR
STARTCHAR char0x30B8
ENCODING 12472
SWIDTH 1200 0
DWIDTH 12 0
BBX 9 10 1 -1
BITMAP
2180
1300
0000
C080
6080
0100
0600
0C00
3000
4000
ENDCHAR
STARTCHAR char0x30B9
ENCODING 12473
SWIDTH 1200 0
DWIDTH 12 0
BBX 9 8 1 0
BITMAP
7F00
0100
0200
0400
0E00
1900
3080
C080
ENDCHAR
STARTCHAR char0x30BA
ENCODING 12474
SWIDTH 1200 0
DWIDTH 12 0
BBX 10 10 1 0
BITMAP
0080
01C0
7F00
0200
0400
0400
0C00
1200
6100
C180
ENDCHAR
STARTCHAR char0x30BB
ENCODING 12475
SWIDTH 1200 0
DWIDTH 12 0
BBX 10 9 1 0
BITMAP
1000
1000
1380
7CC0
9100
1200
1000
1000
1F80
ENDCHAR
STARTCHAR char0x30BC
ENCODING 12476
SWIDTH 1200 0
DWIDTH 12 0
BBX 11 10 0 0
BITMAP
0020
1060
1040
13C0
7C80
9080
1100
1200
1000
1F80
ENDCHAR
STARTCHAR char0x30BD
ENCODING 12477
SWIDTH 1200 0
DWIDTH 12 0
BBX 8 10 2 -1
BITMAP
80
81
42
42
02
04
08
18
30
40
ENDCHAR
STARTCHAR char0x30BE
ENCODING 12478
SWIDTH 1200 0
DWIDTH 12 0
BBX 10 11 1 -1
BITMAP
0080
0140
8180
8200
4200
0200
0400
0C00
0800
3000
6000
ENDCHAR
STARTCHAR char0x30BF
ENCODING 12479
SWIDTH 1200 0
DWIDTH 12 0
BBX 8 10 2 -1
BITMAP
10
3F
23
62
92
0C
08
10
20
C0
ENDCHAR
STARTCHAR char0x30C0
ENCODING 12480
SWIDTH 1200 0
DWIDTH 12 0
BBX 10 11 1 -1
BITMAP
0080
11C0
3F00
2300
6200
9200
0C00
0800
1000
2000
C000
ENDCHAR
STARTCHAR char0x30C1
ENCODING 12481
SWIDTH 1200 0
DWIDTH 12 0
BBX 10 10 1 -1
BITMAP
0300
7C00
0400
0400
FFC0
0400
0800
0800
1000
6000
ENDCHAR
STARTCHAR char0x30C2
ENCODING 12482
SWIDTH 1200 0
DWIDTH 12 0
BBX 11 10 0 -1
BITMAP
0320
3C60
0400
0400
FFC0
0400
0400
0800
1000
2000
ENDCHAR
STARTCHAR char0x30C3
ENCODING 12483
SWIDTH 1200 0
DWIDTH 12 0
BBX 7 6 2 -1
BITMAP
92
52
84
04
08
30
ENDCHAR
STARTCHAR char0x30C4
ENCODING 12484
SWIDTH 1200 0
DWIDTH 12 0
BBX 10 10 1 -1
BITMAP
1000
98C0
4880
4080
0100
0100
0200
0400
1800
1000
ENDCHAR
STARTCHAR char0x30C5
ENCODING 12485
SWIDTH 1200 0
DWIDTH 12 0
BBX 11 11 0 -1
BITMAP
0020
0060
1040
C880
4880
4080
0100
0300
0200
0C00
1000
ENDCHAR
STARTCHAR char0x30C6
ENCODING 12486
SWIDTH 1200 0
DWIDTH 12 0
BBX 10 10 1 -1
BITMAP
3F00
0000
0000
FFC0
0400
0400
0C00
0800
1000
2000
ENDCHAR
STARTCHAR char0x30C7
ENCODING 12487
SWIDTH 1200 0
DWIDTH 12 0
BBX 11 10 0 -1
BITMAP
3F20
0040
0000
FFC0
0400
0400
0400
0800
1000
2000
ENDCHAR
STARTCHAR char0x30C8
ENCODING 12488
SWIDTH 1200 0
DWIDTH 12 0
BBX 4 10 4 -1
BITMAP
80
80
80
C0
A0
90
80
80
80
80
ENDCHAR
STARTCHAR char0x30C9
ENCODING 12489
SWIDTH 1200 0
DWIDTH 12 0
BBX 6 11 3 -1
BITMAP
08
94
88
80
C0
B0
90
80
80
80
80
ENDCHAR
STARTCHAR char0x30CA
ENCODING 12490
SWIDTH 1200 0
DWIDTH 12 0
BBX 10 10 1 -1
BITMAP
0400
0400
FFC0
0400
0400
0800
0800
1800
1000
2000
ENDCHAR
STARTCHAR char0x30CB
ENCODING 12491
SWIDTH 1200 0
DWIDTH 12 0
BBX 9 7 1 1
BITMAP
3F00
0000
0000
0000
0000
0000
FF80
ENDCHAR
STARTCHAR char0x30CC
ENCODING 12492
SWIDTH 1200 0
DWIDTH 12 0
BBX 8 10 2 -1
BITMAP
7E
02
02
22
1C
04
0A
11
60
80
ENDCHAR
STARTCHAR char0x30CD
ENCODING 12493
SWIDTH 1200 0
DWIDTH 12 0
BBX 10 10 1 -1
BITMAP
0C00
7F00
0100
0200
0600
1D00
E4C0
0400
0400
0400
ENDCHAR
STARTCHAR char0x30CE
ENCODING 12494
SWIDTH 1200 0
DWIDTH 12 0
BBX 8 10 2 -1
BITMAP
02
03
02
04
04
08
18
30
40
80
ENDCHAR
STARTCHAR char0x30CF
ENCODING 12495
SWIDTH 1200 0
DWIDTH 12 0
BBX 11 7 0 1
BITMAP
0100
0880
1080
1040
2040
2020
C020
ENDCHAR
STARTCHAR char0x30D0
ENCODING 12496
SWIDTH 1200 0
DWIDTH 12 0
BBX 11 8 0 1
BITMAP
00A0
0140
1900
1080
1080
2040
6040
C060
ENDCHAR
STARTCHAR char0x30D1
ENCODING 12497
SWIDTH 1200 0
DWIDTH 12 0
BBX 11 8 0 1
BITMAP
0060
0060
1900
1080
1080
2040
6040
C060
ENDCHAR
STARTCHAR char0x30D2
ENCODING 12498
SWIDTH 1200 0
DWIDTH 12 0
BBX 7 9 2 0
BITMAP
80
84
8E
B8
C0
80
80
80
FE
ENDCHAR
STARTCHAR char0x30D3
ENCODING 12499
SWIDTH 1200 0
DWIDTH 12 0
BBX 9 10 1 0
BITMAP
0080
8180
8100
8600
9800
E000
8000
8000
8000
FE00
ENDCHAR
STARTCHAR char0x30D4
ENCODING 12500
SWIDTH 1200 0
DWIDTH 12 0
BBX 9 11 1 -1
BITMAP
0080
8380
8580
8E00
B000
C000
8000
8000
8000
CE00
3000
ENDCHAR
STARTCHAR char0x30D5
ENCODING 12501
SWIDTH 1200 0
DWIDTH 12 0
BBX 9 9 1 -1
BITMAP
FF80
0080
0100
0100
0200
0600
0C00
1800
2000
ENDCHAR
STARTCHAR char0x30D6
ENCODING 12502
SWIDTH 1200 0
DWIDTH 12 0
BBX 10 11 1 -1
BITMAP
0080
01C0
0100
FF00
0100
0200
0200
0400
0C00
1800
6000
ENDCHAR
STARTCHAR char0x30D7
ENCODING 12503
SWIDTH 1200 0
DWIDTH 12 0
BBX 10 11 1 -1
BITMAP
00C0
0140
0080
FF00
0100
0200
0200
0400
0C00
1800
6000
ENDCHAR
STARTCHAR char0x30D8
ENCODING 12504
SWIDTH 1200 0
DWIDTH 12 0
BBX 11 6 0 1
BITMAP
1800
3600
6300
C180
0060
0040
ENDCHAR
STARTCHAR char0x30D9
ENCODING 12505
SWIDTH 1200 0
DWIDTH 12 0
BBX 11 7 0 2
BITMAP
0080
01C0
1800
3600
6300
C180
0060
ENDCHAR
STARTCHAR char0x30DA
ENCODING 12506
SWIDTH 1200 0
DWIDTH 12 0
BBX 11 8 0 1
BITMAP
0180
0180
1800
3600
6300
C180
0060
0040
ENDCHAR
STARTCHAR char0x30DB
ENCODING 12507
SWIDTH 1200 0
DWIDTH 12 0
BBX 10 10 1 -1
BITMAP
0C00
0800
FF80
0800
0800
6900
4880
88C0
8800
3800
ENDCHAR
STARTCHAR char0x30DC
ENCODING 12508
SWIDTH 1200 0
DWIDTH 12 0
BBX 10 11 1 -1
BITMAP
0080
0DC0
0900
FF80
0800
0800
6900
4880
8880
8840
3800
ENDCHAR
STARTCHAR char0x30DD
ENCODING 12509
SWIDTH 1200 0
DWIDTH 12 0
BBX 10 11 1 -1
BITMAP
0180
0D40
0880
7F80
0C00
0C00
6D00
4C80
8C40
8800
3800
ENDCHAR
STARTCHAR char0x30DE
ENCODING 12510
SWIDTH 1200 0
DWIDTH 12 0
BBX 10 8 1 0
BITMAP
0080
FFC0
0080
0100
3200
1C00
0800
0400
ENDCHAR
STARTCHAR char0x30DF
ENCODING 12511
SWIDTH 1200 0
DWIDTH 12 0
BBX 6 9 3 0
BITMAP
40
38
08
C0
30
00
00
E0
1C
ENDCHAR
STARTCHAR char0x30E0
ENCODING 12512
SWIDTH 1200 0
DWIDTH 12 0
BBX 10 9 1 0
BITMAP
0800
0C00
0800
1000
1200
2100
2180
6380
FC40
ENDCHAR
STARTCHAR char0x30E1
ENCODING 12513
SWIDTH 1200 0
DWIDTH 12 0
BBX 8 10 2 -1
BITMAP
02
01
02
32
0C
0C
1A
30
C0
80
ENDCHAR
STARTCHAR char0x30E2
ENCODING 12514
SWIDTH 1200 0
DWIDTH 12 0
BBX 10 8 1 0
BITMAP
7F00
0800
0800
FFC0
0800
0800
0800
0F80
ENDCHAR
STARTCHAR char0x30E3
ENCODING 12515
SWIDTH 1200 0
DWIDTH 12 0
BBX 7 7 2 -1
BITMAP
20
20
3E
D4
14
10
10
ENDCHAR
STARTCHAR char0x30E4
ENCODING 12516
SWIDTH 1200 0
DWIDTH 12 0
BBX 10 10 1 -1
BITMAP
3000
1000
17C0
F880
1100
0B00
0800
0800
0800
0800
ENDCHAR
STARTCHAR char0x30E5
ENCODING 12517
SWIDTH 1200 0
DWIDTH 12 0
BBX 7 5 2 -1
BITMAP
3C
04
04
04
FE
ENDCHAR
STARTCHAR char0x30E6
ENCODING 12518
SWIDTH 1200 0
DWIDTH 12 0
BBX 10 7 1 1
BITMAP
7E00
0200
0200
0200
0200
0200
FFC0
ENDCHAR
STARTCHAR char0x30E7
ENCODING 12519
SWIDTH 1200 0
DWIDTH 12 0
BBX 5 5 3 -1
BITMAP
F8
08
F8
08
F8
ENDCHAR
STARTCHAR char0x30E8
ENCODING 12520
SWIDTH 1200 0
DWIDTH 12 0
BBX 8 8 2 0
BITMAP
FF
01
01
FF
01
01
01
FF
ENDCHAR
STARTCHAR char0x30E9
ENCODING 12521
SWIDTH 1200 0
DWIDTH 12 0
BBX 8 10 2 -1
BITMAP
7E
00
00
FF
01
02
04
0C
18
20
ENDCHAR
STARTCHAR char0x30EA
ENCODING 12522
SWIDTH 1200 0
DWIDTH 12 0
BBX 6 10 3 -1
BITMAP
84
84
88
88
88
88
08
18
10
20
ENDCHAR
STARTCHAR char0x30EB
ENCODING 12523
SWIDTH 1200 0
DWIDTH 12 0
BBX 11 9 0 0
BITMAP
0200
1200
1200
1200
1220
2240
22C0
6300
C600
ENDCHAR
STARTCHAR char0x30EC
ENCODING 12524
SWIDTH 1200 0
DWIDTH 12 0
BBX 8 9 2 0
BITMAP
80
80
80
80
83
86
8C
B0
C0
ENDCHAR
STARTCHAR char0x30ED
ENCODING 12525
SWIDTH 1200 0
DWIDTH 12 0
BBX 7 8 2 0
BITMAP
FE
82
82
82
82
82
FE
82
ENDCHAR
STARTCHAR char0x30EE
ENCODING 12526
SWIDTH 1200 0
DWIDTH 12 0
BBX 6 7 3 -2
BITMAP
FC
84
84
08
08
10
20
ENDCHAR
STARTCHAR char0x30EF
ENCODING 12527
SWIDTH 1200 0
DWIDTH 12 0
BBX 8 10 2 -1
BITMAP
FF
81
81
81
81
02
02
06
0C
18
ENDCHAR
STARTCHAR char0x30F0
ENCODING 12528
SWIDTH 1200 0
DWIDTH 12 0
BBX 10 11 1 -1
BITMAP
0200
0200
0200
7F80
2200
2200
2200
FFC0
0200
0200
0200
ENDCHAR
STARTCHAR char0x30F1
ENCODING 12529
SWIDTH 1200 0
DWIDTH 12 0
BBX 10 8 1 1
BITMAP
0100
7F80
0100
0E00
0800
0800
0800
FFC0
ENDCHAR
STARTCHAR char0x30F2
ENCODING 12530
SWIDTH 1200 0
DWIDTH 12 0
BBX 8 10 2 -1
BITMAP
FE
01
02
02
FE
04
0C
18
30
40
ENDCHAR
STARTCHAR char0x30F3
ENCODING 12531
SWIDTH 1200 0
DWIDTH 12 0
BBX 9 9 1 -1
BITMAP
4000
2000
0080
0180
0300
0400
1800
E000
8000
ENDCHAR
STARTCHAR char0x30F4
ENCODING 12532
SWIDTH 1200 0
DWIDTH 12 0
BBX 10 12 1 -2
BITMAP
0080
0140
1080
FF00
8100
8100
8100
0200
0200
0400
1800
1000
ENDCHAR
STARTCHAR char0x30F5
ENCODING 12533
SWIDTH 1200 0
DWIDTH 12 0
BBX 6 7 3 -2
BITMAP
30
FC
24
24
44
C4
18
ENDCHAR
STARTCHAR char0x30F6
ENCODING 12534
SWIDTH 1200 0
DWIDTH 12 0
BBX 7 8 2 -2
BITMAP
20
30
3E
48
88
08
10
20
ENDCHAR
STARTCHAR char0x3131
ENCODING 12593
SWIDTH 1200 0
DWIDTH 12 0
BBX 8 6 2 1
BITMAP
FF
03
03
03
03
03
ENDCHAR
STARTCHAR char0x3132
ENCODING 12594
SWIDTH 1200 0
DWIDTH 12 0
BBX 9 6 1 1
BITMAP
F780
1080
1080
1080
1080
1080
ENDCHAR
STARTCHAR char0x3133
ENCODING 12595
SWIDTH 1200 0
DWIDTH 12 0
BBX 10 7 1 0
BITMAP
F100
1100
1300
1300
1380
14C0
0800
ENDCHAR
STARTCHAR char0x3134
ENCODING 12596
SWIDTH 1200 0
DWIDTH 12 0
BBX 8 6 2 1
BITMAP
80
80
80
80
80
FF
ENDCHAR
STARTCHAR char0x3135
ENCODING 12597
SWIDTH 1200 0
DWIDTH 12 0
BBX 9 6 2 1
BITMAP
8F00
8100
8200
8200
8500
F880
ENDCHAR
STARTCHAR char0x3136
ENCODING 12598
SWIDTH 1200 0
DWIDTH 12 0
BBX 9 6 2 1
BITMAP
8F00
8000
9F80
8900
8900
F600
ENDCHAR
STARTCHAR char0x3137
ENCODING 12599
SWIDTH 1200 0
DWIDTH 12 0
BBX 8 6 2 1
BITMAP
FF
80
80
80
80
FF
ENDCHAR
STARTCHAR char0x3138
ENCODING 12600
SWIDTH 1200 0
DWIDTH 12 0
BBX 9 6 1 1
BITMAP
F780
C400
C400
C400
C400
FF80
ENDCHAR
STARTCHAR char0x3139
ENCODING 12601
SWIDTH 1200 0
DWIDTH 12 0
BBX 8 6 2 1
BITMAP
FF
03
FF
80
80
FF
ENDCHAR
STARTCHAR char0x313A
ENCODING 12602
SWIDTH 1200 0
DWIDTH 12 0
BBX 8 6 2 1
BITMAP
FF
11
F1
81
81
F1
ENDCHAR
STARTCHAR char0x313B
ENCODING 12603
SWIDTH 1200 0
DWIDTH 12 0
BBX 9 6 1 1
BITMAP
7780
1480
F480
C480
C480
FF80
ENDCHAR
STARTCHAR char0x313C
ENCODING 12604
SWIDTH 1200 0
DWIDTH 12 0
BBX 9 6 1 1
BITMAP
7480
1480
F780
C480
C480
FF80
ENDCHAR
STARTCHAR char0x313D
ENCODING 12605
SWIDTH 1200 0
DWIDTH 12 0
BBX 9 6 2 1
BITMAP
E200
2200
E600
8600
8D00
F980
ENDCHAR
STARTCHAR char0x313E
ENCODING 12606
SWIDTH 1200 0
DWIDTH 12 0
BBX 9 6 1 1
BITMAP
7780
1400
F780
C400
C400
FF80
ENDCHAR
STARTCHAR char0x313F
ENCODING 12607
SWIDTH 1200 0
DWIDTH 12 0
BBX 9 6 1 1
BITMAP
7780
1280
F280
C280
C280
FF80
ENDCHAR
STARTCHAR char0x3140
ENCODING 12608
SWIDTH 1200 0
DWIDTH 12 0
BBX 10 6 1 1
BITMAP
7380
1000
F7C0
C480
C480
FB80
ENDCHAR
STARTCHAR char0x3141
ENCODING 12609
SWIDTH 1200 0
DWIDTH 12 0
BBX 8 6 2 1
BITMAP
FF
83
83
83
83
FF
ENDCHAR
STARTCHAR char0x3142
ENCODING 12610
SWIDTH 1200 0
DWIDTH 12 0
BBX 8 6 2 1
BITMAP
83
83
FF
83
83
FF
ENDCHAR
STARTCHAR char0x3143
ENCODING 12611
SWIDTH 1200 0
DWIDTH 12 0
BBX 8 6 2 1
BITMAP
A9
A9
EF
A9
A9
EF
ENDCHAR
STARTCHAR char0x3144
ENCODING 12612
SWIDTH 1200 0
DWIDTH 12 0
BBX 10 6 1 1
BITMAP
D100
D100
F300
D300
D680
FCC0
ENDCHAR
STARTCHAR char0x3145
ENCODING 12613
SWIDTH 1200 0
DWIDTH 12 0
BBX 10 6 1 1
BITMAP
0800
0800
0C00
1400
3300
C1C0
ENDCHAR
STARTCHAR char0x3146
ENCODING 12614
SWIDTH 1200 0
DWIDTH 12 0
BBX 11 7 0 0
BITMAP
1100
1100
1100
3980
6640
C420
0800
ENDCHAR
STARTCHAR char0x3147
ENCODING 12615
SWIDTH 1200 0
DWIDTH 12 0
BBX 8 6 2 1
BITMAP
7C
C2
81
81
C2
7C
ENDCHAR
STARTCHAR char0x3148
ENCODING 12616
SWIDTH 1200 0
DWIDTH 12 0
BBX 10 6 1 1
BITMAP
7F00
0200
0600
0C00
3300
C0C0
ENDCHAR
STARTCHAR char0x3149
ENCODING 12617
SWIDTH 1200 0
DWIDTH 12 0
BBX 10 7 1 0
BITMAP
7780
1100
1100
3300
4F80
8C40
1800
ENDCHAR
STARTCHAR char0x314A
ENCODING 12618
SWIDTH 1200 0
DWIDTH 12 0
BBX 9 7 1 1
BITMAP
3E00
0000
7F00
0300
0600
1E00
E180
ENDCHAR
STARTCHAR char0x314B
ENCODING 12619
SWIDTH 1200 0
DWIDTH 12 0
BBX 7 6 2 1
BITMAP
FE
02
02
FE
02
02
ENDCHAR
STARTCHAR char0x314C
ENCODING 12620
SWIDTH 1200 0
DWIDTH 12 0
BBX 8 6 2 1
BITMAP
FF
80
FF
80
80
FF
ENDCHAR
STARTCHAR char0x314D
ENCODING 12621
SWIDTH 1200 0
DWIDTH 12 0
BBX 9 6 1 1
BITMAP
7F80
2200
2200
2200
2200
FF80
ENDCHAR
STARTCHAR char0x314E
ENCODING 12622
SWIDTH 1200 0
DWIDTH 12 0
BBX 9 8 1 0
BITMAP
3E00
0000
FF80
0000
3F00
6100
6100
3E00
ENDCHAR
STARTCHAR char0x314F
ENCODING 12623
SWIDTH 1200 0
DWIDTH 12 0
BBX 4 12 5 -2
BITMAP
80
80
80
80
80
F0
80
80
80
80
80
80
ENDCHAR
STARTCHAR char0x3150
ENCODING 12624
SWIDTH 1200 0
DWIDTH 12 0
BBX 4 12 4 -2
BITMAP
90
90
90
90
90
F0
90
90
90
90
90
90
ENDCHAR
STARTCHAR char0x3151
ENCODING 12625
SWIDTH 1200 0
DWIDTH 12 0
BBX 4 12 5 -2
BITMAP
80
80
80
F0
80
80
80
F0
80
80
80
80
ENDCHAR
STARTCHAR char0x3152
ENCODING 12626
SWIDTH 1200 0
DWIDTH 12 0
BBX 4 12 4 -2
BITMAP
90
90
90
F0
90
90
90
F0
90
90
90
90
ENDCHAR
STARTCHAR char0x3153
ENCODING 12627
SWIDTH 1200 0
DWIDTH 12 0
BBX 4 12 4 -2
BITMAP
10
10
10
10
10
F0
10
10
10
10
10
10
ENDCHAR
STARTCHAR char0x3154
ENCODING 12628
SWIDTH 1200 0
DWIDTH 12 0
BBX 6 12 2 -2
BITMAP
14
14
14
14
14
F4
14
14
14
14
14
14
ENDCHAR
STARTCHAR char0x3155
ENCODING 12629
SWIDTH 1200 0
DWIDTH 12 0
BBX 4 12 4 -2
BITMAP
10
10
10
F0
10
10
10
F0
10
10
10
10
ENDCHAR
STARTCHAR char0x3156
ENCODING 12630
SWIDTH 1200 0
DWIDTH 12 0
BBX 6 12 2 -2
BITMAP
14
14
14
F4
14
14
14
F4
14
14
14
14
ENDCHAR
STARTCHAR char0x3157
ENCODING 12631
SWIDTH 1200 0
DWIDTH 12 0
BBX 11 6 0 1
BITMAP
0400
0400
0400
0400
0400
FFE0
ENDCHAR
STARTCHAR char0x3158
ENCODING 12632
SWIDTH 1200 0
DWIDTH 12 0
BBX 12 12 0 -2
BITMAP
0040
0040
0040
0040
1840
1870
1840
1840
FF40
0040
0040
0040
ENDCHAR
STARTCHAR char0x3159
ENCODING 12633
SWIDTH 1200 0
DWIDTH 12 0
BBX 10 12 0 -2
BITMAP
0140
0140
0140
0140
1140
11C0
1140
1140
FD40
0140
0140
0040
ENDCHAR
STARTCHAR char0x315A
ENCODING 12634
SWIDTH 1200 0
DWIDTH 12 0
BBX 10 12 0 -2
BITMAP
0040
0040
0040
0040
0840
0840
0840
0840
FFC0
0040
0040
0040
ENDCHAR
STARTCHAR char0x315B
ENCODING 12635
SWIDTH 1200 0
DWIDTH 12 0
BBX 11 6 0 1
BITMAP
1100
1100
1100
1100
1100
FFE0
ENDCHAR
STARTCHAR char0x315C
ENCODING 12636
SWIDTH 1200 0
DWIDTH 12 0
BBX 11 6 0 0
BITMAP
FFE0
0400
0400
0400
0400
0400
ENDCHAR
STARTCHAR char0x315D
ENCODING 12637
SWIDTH 1200 0
DWIDTH 12 0
BBX 10 12 0 -2
BITMAP
0040
0040
0040
0040
0040
FFC0
1840
1840
1BC0
1840
1840
0040
ENDCHAR
STARTCHAR char0x315E
ENCODING 12638
SWIDTH 1200 0
DWIDTH 12 0
BBX 10 12 0 -2
BITMAP
0140
0140
0140
0140
0140
FF40
1140
1140
1740
1140
1140
0140
ENDCHAR
STARTCHAR char0x315F
ENCODING 12639
SWIDTH 1200 0
DWIDTH 12 0
BBX 10 12 0 -2
BITMAP
0040
0040
0040
0040
0040
0040
FFC0
0840
0840
0840
0840
0840
ENDCHAR
STARTCHAR char0x3160
ENCODING 12640
SWIDTH 1200 0
DWIDTH 12 0
BBX 11 6 0 0
BITMAP
FFE0
1100
1100
1100
1100
1100
ENDCHAR
STARTCHAR char0x3161
ENCODING 12641
SWIDTH 1200 0
DWIDTH 12 0
BBX 11 1 0 2
BITMAP
FFE0
ENDCHAR
STARTCHAR char0x3162
ENCODING 12642
SWIDTH 1200 0
DWIDTH 12 0
BBX 10 12 0 -2
BITMAP
0040
0040
0040
0040
0040
0040
0040
0040
FFC0
0040
0040
0040
ENDCHAR
STARTCHAR char0x3163
ENCODING 12643
SWIDTH 1200 0
DWIDTH 12 0
BBX 1 12 5 -2
BITMAP
80
80
80
80
80
80
80
80
80
80
80
80
ENDCHAR
STARTCHAR char0x3164
ENCODING 12644
SWIDTH 1200 0
DWIDTH 12 0
BBX 0 0 0 0
BITMAP
ENDCHAR
STARTCHAR char0x3165
ENCODING 12645
SWIDTH 1200 0
DWIDTH 12 0
BBX 8 6 2 1
BITMAP
88
88
88
88
88
FF
ENDCHAR
STARTCHAR char0x3166
ENCODING 12646
SWIDTH 1200 0
DWIDTH 12 0
BBX 8 6 2 1
BITMAP
8F
88
88
88
88
FF
ENDCHAR
STARTCHAR char0x3167
ENCODING 12647
SWIDTH 1200 0
DWIDTH 12 0
BBX 9 6 2 1
BITMAP
8200
8200
8600
8600
8F00
F980
ENDCHAR
STARTCHAR char0x3168
ENCODING 12648
SWIDTH 1200 0
DWIDTH 12 0
BBX 8 7 2 1
BITMAP
04
84
86
86
8A
89
FF
ENDCHAR
STARTCHAR char0x3169
ENCODING 12649
SWIDTH 1200 0
DWIDTH 12 0
BBX 10 6 1 1
BITMAP
FC80
2500
E580
8580
8580
F640
ENDCHAR
STARTCHAR char0x316A
ENCODING 12650
SWIDTH 1200 0
DWIDTH 12 0
BBX 9 6 1 1
BITMAP
7F80
1C00
FC00
C400
C400
FF80
ENDCHAR
STARTCHAR char0x316B
ENCODING 12651
SWIDTH 1200 0
DWIDTH 12 0
BBX 10 6 1 1
BITMAP
EA80
2A80
EE80
8B80
8B80
EE40
ENDCHAR
STARTCHAR char0x316C
ENCODING 12652
SWIDTH 1200 0
DWIDTH 12 0
BBX 8 7 2 1
BITMAP
04
E4
26
E6
85
89
FF
ENDCHAR
STARTCHAR char0x316D
ENCODING 12653
SWIDTH 1200 0
DWIDTH 12 0
BBX 9 6 1 1
BITMAP
7780
1000
F300
C680
C480
FF80
ENDCHAR
STARTCHAR char0x316E
ENCODING 12654
SWIDTH 1200 0
DWIDTH 12 0
BBX 8 6 2 1
BITMAP
F9
99
9F
99
99
FF
ENDCHAR
STARTCHAR char0x316F
ENCODING 12655
SWIDTH 1200 0
DWIDTH 12 0
BBX 9 6 2 1
BITMAP
F200
9200
9600
9600
9500
F980
ENDCHAR
STARTCHAR char0x3170
ENCODING 12656
SWIDTH 1200 0
DWIDTH 12 0
BBX 8 7 2 1
BITMAP
04
F4
96
96
96
99
FF
ENDCHAR
STARTCHAR char0x3171
ENCODING 12657
SWIDTH 1200 0
DWIDTH 12 0
BBX 6 10 3 -1
BITMAP
FC
84
84
84
FC
78
8C
84
84
78
ENDCHAR
STARTCHAR char0x3172
ENCODING 12658
SWIDTH 1200 0
DWIDTH 12 0
BBX 8 6 2 1
BITMAP
9F
91
F1
91
91
F1
ENDCHAR
STARTCHAR char0x3173
ENCODING 12659
SWIDTH 1200 0
DWIDTH 12 0
BBX 8 6 2 1
BITMAP
9F
98
F8
98
98
FF
ENDCHAR
STARTCHAR char0x3174
ENCODING 12660
SWIDTH 1200 0
DWIDTH 12 0
BBX 10 6 1 1
BITMAP
A7C0
A440
E440
AC40
AC40
FA40
ENDCHAR
STARTCHAR char0x3175
ENCODING 12661
SWIDTH 1200 0
DWIDTH 12 0
BBX 10 6 1 1
BITMAP
A5C0
A500
E500
AD00
AD00
FBC0
ENDCHAR
STARTCHAR char0x3176
ENCODING 12662
SWIDTH 1200 0
DWIDTH 12 0
BBX 9 6 2 1
BITMAP
9F00
9100
F200
9200
9500
F980
ENDCHAR
STARTCHAR char0x3177
ENCODING 12663
SWIDTH 1200 0
DWIDTH 12 0
BBX 8 6 2 1
BITMAP
9F
98
FF
98
98
FF
ENDCHAR
STARTCHAR char0x3178
ENCODING 12664
SWIDTH 1200 0
DWIDTH 12 0
BBX 6 10 3 -1
BITMAP
84
84
FC
84
FC
78
8C
84
84
78
ENDCHAR
STARTCHAR char0x3179
ENCODING 12665
SWIDTH 1200 0
DWIDTH 12 0
BBX 7 10 2 -1
BITMAP
AA
AA
EE
AA
EE
3C
46
42
42
3C
ENDCHAR
STARTCHAR char0x317A
ENCODING 12666
SWIDTH 1200 0
DWIDTH 12 0
BBX 9 6 1 1
BITMAP
3780
2080
3080
3080
7880
CC80
ENDCHAR
STARTCHAR char0x317B
ENCODING 12667
SWIDTH 1200 0
DWIDTH 12 0
BBX 9 6 1 1
BITMAP
2600
2600
2600
3600
5600
CF80
ENDCHAR
STARTCHAR char0x317C
ENCODING 12668
SWIDTH 1200 0
DWIDTH 12 0
BBX 9 6 1 1
BITMAP
2780
2400
2400
3400
5400
CF80
ENDCHAR
STARTCHAR char0x317D
ENCODING 12669
SWIDTH 1200 0
DWIDTH 12 0
BBX 9 6 1 1
BITMAP
2480
2480
2780
3480
5480
CF80
ENDCHAR
STARTCHAR char0x317E
ENCODING 12670
SWIDTH 1200 0
DWIDTH 12 0
BBX 10 6 1 1
BITMAP
2780
2180
2100
3100
5A80
CCC0
ENDCHAR
STARTCHAR char0x317F
ENCODING 12671
SWIDTH 1200 0
DWIDTH 12 0
BBX 6 7 3 1
BITMAP
20
30
30
50
48
88
FC
ENDCHAR
STARTCHAR char0x3180
ENCODING 12672
SWIDTH 1200 0
DWIDTH 12 0
BBX 10 6 1 1
BITMAP
7380
DC80
8CC0
8CC0
9C80
7380
ENDCHAR
STARTCHAR char0x3181
ENCODING 12673
SWIDTH 1200 0
DWIDTH 12 0
BBX 7 10 2 -1
BITMAP
10
10
10
3C
42
82
82
C2
66
38
ENDCHAR
STARTCHAR char0x3182
ENCODING 12674
SWIDTH 1200 0
DWIDTH 12 0
BBX 10 6 1 1
BITMAP
2100
2100
5900
4B00
CA80
7CC0
ENDCHAR
STARTCHAR char0x3183
ENCODING 12675
SWIDTH 1200 0
DWIDTH 12 0
BBX 9 7 1 1
BITMAP
0200
2200
2300
5B00
4B00
CC80
7F80
ENDCHAR
STARTCHAR char0x3184
ENCODING 12676
SWIDTH 1200 0
DWIDTH 12 0
BBX 6 10 3 -1
BITMAP
FC
48
48
48
FC
70
8C
84
84
78
ENDCHAR
STARTCHAR char0x3185
ENCODING 12677
SWIDTH 1200 0
DWIDTH 12 0
BBX 8 6 2 1
BITMAP
E6
FF
00
EE
A9
EF
ENDCHAR
STARTCHAR char0x3186
ENCODING 12678
SWIDTH 1200 0
DWIDTH 12 0
BBX 7 8 2 0
BITMAP
FE
00
3C
46
42
42
46
3C
ENDCHAR
STARTCHAR char0x3187
ENCODING 12679
SWIDTH 1200 0
DWIDTH 12 0
BBX 11 12 0 -2
BITMAP
0040
0040
0040
0060
2440
2440
2440
2460
FF40
0040
0040
0040
ENDCHAR
STARTCHAR char0x3188
ENCODING 12680
SWIDTH 1200 0
DWIDTH 12 0
BBX 10 12 0 -2
BITMAP
0140
0140
0140
01C0
2940
2940
2940
29C0
FD40
0140
0140
0140
ENDCHAR
STARTCHAR char0x3189
ENCODING 12681
SWIDTH 1200 0
DWIDTH 12 0
BBX 10 12 0 -2
BITMAP
0040
0040
0040
0040
1640
1640
1640
1640
FFC0
0040
0040
0040
ENDCHAR
STARTCHAR char0x318A
ENCODING 12682
SWIDTH 1200 0
DWIDTH 12 0
BBX 10 12 0 -2
BITMAP
0040
0040
0040
0040
0040
FFC0
3440
35C0
3440
35C0
3440
3440
ENDCHAR
STARTCHAR char0x318B
ENCODING 12683
SWIDTH 1200 0
DWIDTH 12 0
BBX 10 12 0 -2
BITMAP
0140
0140
0140
0140
0140
FF40
2940
2B40
2940
2B40
2940
2940
ENDCHAR
STARTCHAR char0x318C
ENCODING 12684
SWIDTH 1200 0
DWIDTH 12 0
BBX 10 12 0 -2
BITMAP
0040
0040
0040
0040
0040
07C0
FA40
3240
3240
3240
3240
3240
ENDCHAR
STARTCHAR char0x318D
ENCODING 12685
SWIDTH 1200 0
DWIDTH 12 0
BBX 2 1 5 4
BITMAP
C0
ENDCHAR
STARTCHAR char0x318E
ENCODING 12686
SWIDTH 1200 0
DWIDTH 12 0
BBX 5 12 3 -2
BITMAP
08
08
08
08
08
C8
08
08
08
08
08
08
ENDCHAR
STARTCHAR char0x3200
ENCODING 12800
SWIDTH 1200 0
DWIDTH 12 0
BBX 11 11 0 -2
BITMAP
4040
8020
9F20
8120
8120
8120
8120
8120
8020
4040
4040
ENDCHAR
STARTCHAR char0x3201
ENCODING 12801
SWIDTH 1200 0
DWIDTH 12 0
BBX 11 11 0 -2
BITMAP
4040
8020
9020
9020
9020
9020
9020
9FA0
8020
4040
4040
ENDCHAR
STARTCHAR char0x3202
ENCODING 12802
SWIDTH 1200 0
DWIDTH 12 0
BBX 11 11 0 -2
BITMAP
4040
8020
9FA0
9020
9020
9020
9020
9FA0
8020
4040
4040
ENDCHAR
STARTCHAR char0x3203
ENCODING 12803
SWIDTH 1200 0
DWIDTH 12 0
BBX 11 11 0 -2
BITMAP
4040
8020
9FA0
80A0
80A0
9F20
9020
9FA0
8020
4040
4040
ENDCHAR
STARTCHAR char0x3204
ENCODING 12804
SWIDTH 1200 0
DWIDTH 12 0
BBX 11 11 0 -2
BITMAP
4040
8020
9FA0
90A0
90A0
90A0
90A0
9FA0
8020
4040
4040
ENDCHAR
STARTCHAR char0x3205
ENCODING 12805
SWIDTH 1200 0
DWIDTH 12 0
BBX 11 11 0 -2
BITMAP
4040
8020
90A0
90A0
9FA0
90A0
90A0
9FA0
8020
4040
4040
ENDCHAR
STARTCHAR char0x3206
ENCODING 12806
SWIDTH 1200 0
DWIDTH 12 0
BBX 11 11 0 -2
BITMAP
4040
8020
8420
8420
8620
8A20
9920
B0A0
8020
4040
4040
ENDCHAR
STARTCHAR char0x3207
ENCODING 12807
SWIDTH 1200 0
DWIDTH 12 0
BBX 11 11 0 -2
BITMAP
4040
8020
8F20
9120
90A0
90A0
9120
8F20
8020
4040
4040
ENDCHAR
STARTCHAR char0x3208
ENCODING 12808
SWIDTH 1200 0
DWIDTH 12 0
BBX 11 11 0 -2
BITMAP
4040
8020
9F20
8120
8220
8620
8920
B0A0
8020
4040
4040
ENDCHAR
STARTCHAR char0x3209
ENCODING 12809
SWIDTH 1200 0
DWIDTH 12 0
BBX 11 11 0 -2
BITMAP
4040
8E20
8020
9F20
8120
8220
8F20
B9A0
8020
4040
4040
ENDCHAR
STARTCHAR char0x320A
ENCODING 12810
SWIDTH 1200 0
DWIDTH 12 0
BBX 11 11 0 -2
BITMAP
4040
8020
9FA0
81A0
81A0
9FA0
81A0
81A0
8020
4040
4040
ENDCHAR
STARTCHAR char0x320B
ENCODING 12811
SWIDTH 1200 0
DWIDTH 12 0
BBX 11 11 0 -2
BITMAP
4040
8020
9FA0
9020
9020
9FA0
9020
9FA0
8020
4040
4040
ENDCHAR
STARTCHAR char0x320C
ENCODING 12812
SWIDTH 1200 0
DWIDTH 12 0
BBX 11 11 0 -2
BITMAP
4040
8020
9FA0
8020
8920
8920
8920
9FA0
8020
4040
4040
ENDCHAR
STARTCHAR char0x320D
ENCODING 12813
SWIDTH 1200 0
DWIDTH 12 0
BBX 11 11 0 -2
BITMAP
4040
8F20
8020
9FA0
8620
9920
9120
8F20
8020
4040
4040
ENDCHAR
STARTCHAR char0x320E
ENCODING 12814
SWIDTH 1200 0
DWIDTH 12 0
BBX 11 11 0 -2
BITMAP
4040
80A0
9EA0
84A0
84E0
88A0
98A0
A0A0
80A0
4040
4040
ENDCHAR
STARTCHAR char0x320F
ENCODING 12815
SWIDTH 1200 0
DWIDTH 12 0
BBX 11 11 0 -2
BITMAP
4040
8120
9120
9120
91E0
9120
9F20
8120
8120
4040
4040
ENDCHAR
STARTCHAR char0x3210
ENCODING 12816
SWIDTH 1200 0
DWIDTH 12 0
BBX 11 11 0 -2
BITMAP
4040
80A0
9CA0
90A0
90E0
90A0
9EA0
80A0
80A0
4040
4040
ENDCHAR
STARTCHAR char0x3211
ENCODING 12817
SWIDTH 1200 0
DWIDTH 12 0
BBX 11 11 0 -2
BITMAP
4040
8120
9D20
8520
9DE0
9120
9320
8D20
8120
4040
4040
ENDCHAR
STARTCHAR char0x3212
ENCODING 12818
SWIDTH 1200 0
DWIDTH 12 0
BBX 11 11 0 -2
BITMAP
4040
8120
9D20
9520
95E0
9520
9D20
8120
8120
4040
4040
ENDCHAR
STARTCHAR char0x3213
ENCODING 12819
SWIDTH 1200 0
DWIDTH 12 0
BBX 11 11 0 -2
BITMAP
4040
8120
9520
9520
9DE0
9520
9D20
8120
8120
4040
4040
ENDCHAR
STARTCHAR char0x3214
ENCODING 12820
SWIDTH 1200 0
DWIDTH 12 0
BBX 11 11 0 -2
BITMAP
4040
8120
8920
8920
89E0
9520
B720
A120
8120
4040
4040
ENDCHAR
STARTCHAR char0x3215
ENCODING 12821
SWIDTH 1200 0
DWIDTH 12 0
BBX 11 11 0 -2
BITMAP
4040
8120
9D20
A520
A3E0
A520
9520
8920
8120
4040
4040
ENDCHAR
STARTCHAR char0x3216
ENCODING 12822
SWIDTH 1200 0
DWIDTH 12 0
BBX 11 11 0 -2
BITMAP
4040
8120
BD20
8520
8DE0
8D20
9320
A120
8120
4040
4040
ENDCHAR
STARTCHAR char0x3217
ENCODING 12823
SWIDTH 1200 0
DWIDTH 12 0
BBX 11 11 0 -2
BITMAP
4040
8120
9D20
BD20
85E0
8D20
9720
A320
8120
4040
4040
ENDCHAR
STARTCHAR char0x3218
ENCODING 12824
SWIDTH 1200 0
DWIDTH 12 0
BBX 11 11 0 -2
BITMAP
4040
8120
9F20
8520
BDE0
8920
9920
A120
8120
4040
4040
ENDCHAR
STARTCHAR char0x3219
ENCODING 12825
SWIDTH 1200 0
DWIDTH 12 0
BBX 11 11 0 -2
BITMAP
4040
8120
9D20
9120
9DE0
9120
9F20
8120
8120
4040
4040
ENDCHAR
STARTCHAR char0x321A
ENCODING 12826
SWIDTH 1200 0
DWIDTH 12 0
BBX 11 11 0 -2
BITMAP
4040
8120
BF20
9520
95E0
9520
BF20
8120
8120
4040
4040
ENDCHAR
STARTCHAR char0x321B
ENCODING 12827
SWIDTH 1200 0
DWIDTH 12 0
BBX 11 11 0 -2
BITMAP
4040
8120
9D20
BF20
9D20
95E0
9520
8920
8120
4040
4040
ENDCHAR
STARTCHAR char0x321C
ENCODING 12828
SWIDTH 1200 0
DWIDTH 12 0
BBX 11 11 0 -2
BITMAP
4040
9F20
8220
8620
B9A0
8020
BFE0
8420
8420
4040
4040
ENDCHAR
STARTCHAR char0x3260
ENCODING 12896
SWIDTH 1200 0
DWIDTH 12 0
BBX 11 12 0 -2
BITMAP
0E00
3180
4040
8020
9F20
8120
8120
8120
8120
4040
2080
1F00
ENDCHAR
STARTCHAR char0x3261
ENCODING 12897
SWIDTH 1200 0
DWIDTH 12 0
BBX 11 12 0 -2
BITMAP
0E00
3180
4040
9020
9020
9020
9020
9FA0
8020
4040
2080
1F00
ENDCHAR
STARTCHAR char0x3262
ENCODING 12898
SWIDTH 1200 0
DWIDTH 12 0
BBX 11 12 0 -2
BITMAP
0E00
3180
4040
9FA0
9020
9020
9020
9020
9FA0
4040
2080
1F00
ENDCHAR
STARTCHAR char0x3263
ENCODING 12899
SWIDTH 1200 0
DWIDTH 12 0
BBX 11 12 0 -2
BITMAP
0E00
3180
4040
9F20
8120
8120
9E20
9020
9FA0
4040
2080
1F00
ENDCHAR
STARTCHAR char0x3264
ENCODING 12900
SWIDTH 1200 0
DWIDTH 12 0
BBX 11 12 0 -2
BITMAP
0E00
3180
4040
9FA0
91A0
91A0
91A0
91A0
9FA0
4040
2080
1F00
ENDCHAR
STARTCHAR char0x3265
ENCODING 12901
SWIDTH 1200 0
DWIDTH 12 0
BBX 11 12 0 -2
BITMAP
0E00
3180
4040
91A0
91A0
9FA0
91A0
91A0
9FA0
4040
2080
1F00
ENDCHAR
STARTCHAR char0x3266
ENCODING 12902
SWIDTH 1200 0
DWIDTH 12 0
BBX 11 12 0 -2
BITMAP
0E00
3180
4040
8420
8420
8620
8A20
99A0
A0A0
4040
2080
1F00
ENDCHAR
STARTCHAR char0x3267
ENCODING 12903
SWIDTH 1200 0
DWIDTH 12 0
BBX 11 12 0 -2
BITMAP
0E00
3180
4040
8E20
9920
90A0
90A0
9120
8E20
4040
2080
1F00
ENDCHAR
STARTCHAR char0x3268
ENCODING 12904
SWIDTH 1200 0
DWIDTH 12 0
BBX 11 12 0 -2
BITMAP
0E00
3180
4040
9F20
8120
8220
8620
99A0
B0A0
4040
2080
1F00
ENDCHAR
STARTCHAR char0x3269
ENCODING 12905
SWIDTH 1200 0
DWIDTH 12 0
BBX 11 12 0 -2
BITMAP
0E00
3180
4040
8E20
9F20
8120
8220
8F20
90A0
4040
2080
1F00
ENDCHAR
STARTCHAR char0x326A
ENCODING 12906
SWIDTH 1200 0
DWIDTH 12 0
BBX 11 12 0 -2
BITMAP
0E00
3180
4040
8020
9F20
8120
9F20
8120
8120
4040
2080
1F00
ENDCHAR
STARTCHAR char0x326B
ENCODING 12907
SWIDTH 1200 0
DWIDTH 12 0
BBX 11 12 0 -2
BITMAP
0E00
3180
4040
9FA0
9020
9020
9FA0
9020
9FA0
4040
2080
1F00
ENDCHAR
STARTCHAR char0x326C
ENCODING 12908
SWIDTH 1200 0
DWIDTH 12 0
BBX 11 12 0 -2
BITMAP
0E00
3180
4040
9FA0
8020
8920
8920
8920
9FA0
4040
2080
1F00
ENDCHAR
STARTCHAR char0x326D
ENCODING 12909
SWIDTH 1200 0
DWIDTH 12 0
BBX 11 12 0 -2
BITMAP
0E00
3180
4040
8F20
9FA0
8420
8B20
9120
8F20
4040
2080
1F00
ENDCHAR
STARTCHAR char0x326E
ENCODING 12910
SWIDTH 1200 0
DWIDTH 12 0
BBX 11 12 0 -2
BITMAP
0E00
3180
4140
BD20
8520
85E0
8920
9120
A120
4140
2080
1F00
ENDCHAR
STARTCHAR char0x326F
ENCODING 12911
SWIDTH 1200 0
DWIDTH 12 0
BBX 11 12 0 -2
BITMAP
0E00
3180
4140
A120
A120
A1E0
A120
9F20
8120
4140
2080
1F00
ENDCHAR
STARTCHAR char0x3270
ENCODING 12912
SWIDTH 1200 0
DWIDTH 12 0
BBX 11 12 0 -2
BITMAP
0E00
3180
4140
9D20
A120
A1E0
A120
9F20
8120
4140
2080
1F00
ENDCHAR
STARTCHAR char0x3271
ENCODING 12913
SWIDTH 1200 0
DWIDTH 12 0
BBX 11 12 0 -2
BITMAP
0E00
3180
4140
BD20
8520
9DE0
A120
A320
9D20
4140
2080
1F00
ENDCHAR
STARTCHAR char0x3272
ENCODING 12914
SWIDTH 1200 0
DWIDTH 12 0
BBX 11 12 0 -2
BITMAP
0E00
3180
4140
9D20
A520
A5E0
A520
9D20
8120
4140
2080
1F00
ENDCHAR
STARTCHAR char0x3273
ENCODING 12915
SWIDTH 1200 0
DWIDTH 12 0
BBX 11 12 0 -2
BITMAP
0E00
3180
4140
A520
A520
9DE0
A520
9D20
8120
4140
2080
1F00
ENDCHAR
STARTCHAR char0x3274
ENCODING 12916
SWIDTH 1200 0
DWIDTH 12 0
BBX 11 12 0 -2
BITMAP
0E00
3180
4140
8920
8920
89E0
9520
B720
A120
4140
2080
1F00
ENDCHAR
STARTCHAR char0x3275
ENCODING 12917
SWIDTH 1200 0
DWIDTH 12 0
BBX 11 12 0 -2
BITMAP
0E00
3180
4140
9D20
A520
A5A0
A520
9520
8920
4140
2080
1F00
ENDCHAR
STARTCHAR char0x3276
ENCODING 12918
SWIDTH 1200 0
DWIDTH 12 0
BBX 11 12 0 -2
BITMAP
0E00
3180
4140
BD20
8520
89E0
8D20
9320
A120
4140
2080
1F00
ENDCHAR
STARTCHAR char0x3277
ENCODING 12919
SWIDTH 1200 0
DWIDTH 12 0
BBX 11 12 0 -2
BITMAP
0E00
3180
4140
9D20
BD20
85E0
8D20
9720
A320
4140
2080
1F00
ENDCHAR
STARTCHAR char0x3278
ENCODING 12920
SWIDTH 1200 0
DWIDTH 12 0
BBX 11 12 0 -2
BITMAP
0E00
3180
4140
9D20
8520
BDE0
8920
9120
A120
4140
2080
1F00
ENDCHAR
STARTCHAR char0x3279
ENCODING 12921
SWIDTH 1200 0
DWIDTH 12 0
BBX 11 12 0 -2
BITMAP
0E00
3180
4140
9D20
9120
9DE0
9120
9F20
8120
4140
2080
1F00
ENDCHAR
STARTCHAR char0x327A
ENCODING 12922
SWIDTH 1200 0
DWIDTH 12 0
BBX 11 12 0 -2
BITMAP
0E00
3180
4140
BF20
9520
94E0
9520
BF20
8120
4140
2080
1F00
ENDCHAR
STARTCHAR char0x327B
ENCODING 12923
SWIDTH 1200 0
DWIDTH 12 0
BBX 11 12 0 -2
BITMAP
0E00
3180
4140
9D20
BF20
9D20
95E0
9720
8D20
4140
2080
1F00
ENDCHAR
STARTCHAR char0x327F
ENCODING 12927
SWIDTH 1200 0
DWIDTH 12 0
BBX 11 11 0 -2
BITMAP
1F00
20C0
5140
9220
9420
FC60
9220
5120
50C0
2080
1F00
ENDCHAR
STARTCHAR char0x3380
ENCODING 13184
SWIDTH 1200 0
DWIDTH 12 0
BBX 10 12 1 -3
BITMAP
0300
0300
0300
E500
9480
9480
9F80
9840
B840
E840
9000
8000
ENDCHAR
STARTCHAR char0x3381
ENCODING 13185
SWIDTH 1200 0
DWIDTH 12 0
BBX 10 10 1 -1
BITMAP
0300
0300
0300
E500
A480
A480
A780
A840
A840
A840
ENDCHAR
STARTCHAR char0x3382
ENCODING 13186
SWIDTH 1200 0
DWIDTH 12 0
BBX 11 11 0 -2
BITMAP
0180
0180
0180
4A80
4A40
4A40
4BC0
5C20
5420
AC20
8000
ENDCHAR
STARTCHAR char0x3383
ENCODING 13187
SWIDTH 1200 0
DWIDTH 12 0
BBX 11 10 0 -1
BITMAP
0080
0180
0180
F940
A940
AA40
ABE0
AA20
AC20
AC20
ENDCHAR
STARTCHAR char0x3384
ENCODING 13188
SWIDTH 1200 0
DWIDTH 12 0
BBX 10 10 1 -1
BITMAP
8300
8300
8300
B500
A480
C480
CF80
A840
A840
9840
ENDCHAR
STARTCHAR char0x3388
ENCODING 13192
SWIDTH 1200 0
DWIDTH 12 0
BBX 12 10 0 -1
BITMAP
0060
00A0
00A0
6FA0
9AA0
8AA0
8AA0
8AA0
9A60
6DF0
ENDCHAR
STARTCHAR char0x3389
ENCODING 13193
SWIDTH 1200 0
DWIDTH 12 0
BBX 12 10 0 -1
BITMAP
8020
8060
8060
BBE0
D6E0
D2E0
D2E0
D2E0
B7E0
BBF0
ENDCHAR
STARTCHAR char0x338A
ENCODING 13194
SWIDTH 1200 0
DWIDTH 12 0
BBX 10 12 1 -3
BITMAP
07C0
0400
0400
F400
9F80
8F80
8C00
8C00
D400
F400
8000
8000
ENDCHAR
STARTCHAR char0x338B
ENCODING 13195
SWIDTH 1200 0
DWIDTH 12 0
BBX 9 10 2 -1
BITMAP
0F80
0800
0800
E800
AF00
AF00
A800
A800
A800
A800
ENDCHAR
STARTCHAR char0x338C
ENCODING 13196
SWIDTH 1200 0
DWIDTH 12 0
BBX 11 11 0 -2
BITMAP
03E0
0200
0200
2600
47E0
4BE0
4A00
4A00
5A00
6E00
8000
ENDCHAR
STARTCHAR char0x338D
ENCODING 13197
SWIDTH 1200 0
DWIDTH 12 0
BBX 10 9 1 -3
BITMAP
4BC0
4CC0
9440
9440
94C0
B3C0
F880
8480
0380
ENDCHAR
STARTCHAR char0x338E
ENCODING 13198
SWIDTH 1200 0
DWIDTH 12 0
BBX 10 9 1 -3
BITMAP
F3C0
ACC0
AC40
AC40
AC40
ABC0
A840
0480
0380
ENDCHAR
STARTCHAR char0x338F
ENCODING 13199
SWIDTH 1200 0
DWIDTH 12 0
BBX 9 12 1 -3
BITMAP
8000
8000
8000
9B80
9480
A480
E480
9480
9380
8880
0480
0380
ENDCHAR
STARTCHAR char0x3390
ENCODING 13200
SWIDTH 1200 0
DWIDTH 12 0
BBX 10 10 1 -1
BITMAP
8800
8800
8800
8BC0
F880
8880
8900
8A00
8A00
8FC0
ENDCHAR
STARTCHAR char0x3391
ENCODING 13201
SWIDTH 1200 0
DWIDTH 12 0
BBX 11 10 0 -1
BITMAP
8500
8500
8500
95E0
A720
A720
E540
A540
9540
95E0
ENDCHAR
STARTCHAR char0x3392
ENCODING 13202
SWIDTH 1200 0
DWIDTH 12 0
BBX 11 10 0 -1
BITMAP
CC80
CC80
DC80
DCE0
DFA0
DCA0
BCC0
ACC0
ACC0
ACE0
ENDCHAR
STARTCHAR char0x3393
ENCODING 13203
SWIDTH 1200 0
DWIDTH 12 0
BBX 11 10 0 -1
BITMAP
7500
5500
9500
8560
8720
9520
9540
9540
5540
7560
ENDCHAR
STARTCHAR char0x3394
ENCODING 13204
SWIDTH 1200 0
DWIDTH 12 0
BBX 11 10 0 -1
BITMAP
F500
2500
2500
2560
2720
2520
2540
2540
2540
2560
ENDCHAR
STARTCHAR char0x3395
ENCODING 13205
SWIDTH 1200 0
DWIDTH 12 0
BBX 11 11 0 -2
BITMAP
00C0
0140
0120
2520
2560
4540
4940
49C0
59A0
7EE0
C000
ENDCHAR
STARTCHAR char0x3396
ENCODING 13206
SWIDTH 1200 0
DWIDTH 12 0
BBX 10 10 1 -1
BITMAP
0180
0240
0240
DA40
AA40
AA40
AA80
AA80
AB40
AFC0
ENDCHAR
STARTCHAR char0x3397
ENCODING 13207
SWIDTH 1200 0
DWIDTH 12 0
BBX 10 10 1 -1
BITMAP
1380
1280
1280
7480
9480
9480
9480
9300
9380
75C0
ENDCHAR
STARTCHAR char0x3398
ENCODING 13208
SWIDTH 1200 0
DWIDTH 12 0
BBX 10 10 1 -1
BITMAP
8180
8280
8280
9A80
B680
A280
E280
B380
9380
9DC0
ENDCHAR
STARTCHAR char0x3399
ENCODING 13209
SWIDTH 1200 0
DWIDTH 12 0
BBX 9 10 1 -1
BITMAP
2000
4000
4000
EF80
4A80
4A80
4A80
4A80
4A80
4A80
ENDCHAR
STARTCHAR char0x339A
ENCODING 13210
SWIDTH 1200 0
DWIDTH 12 0
BBX 10 7 1 -1
BITMAP
EF80
9940
9940
9940
9940
9940
9940
ENDCHAR
STARTCHAR char0x339B
ENCODING 13211
SWIDTH 1200 0
DWIDTH 12 0
BBX 11 8 0 -2
BITMAP
4FE0
4AA0
4AA0
4AA0
4AA0
5AA0
AAA0
8000
ENDCHAR
STARTCHAR char0x339C
ENCODING 13212
SWIDTH 1200 0
DWIDTH 12 0
BBX 10 7 1 -1
BITMAP
F7C0
AD40
AD40
AD40
AD40
AD40
AD40
ENDCHAR
STARTCHAR char0x339D
ENCODING 13213
SWIDTH 1200 0
DWIDTH 12 0
BBX 11 7 0 -1
BITMAP
7BE0
4AA0
42A0
C2A0
42A0
4AA0
7AA0
ENDCHAR
STARTCHAR char0x339E
ENCODING 13214
SWIDTH 1200 0
DWIDTH 12 0
BBX 10 10 1 -1
BITMAP
8000
8000
8000
97C0
A540
E540
E540
A540
B540
9540
ENDCHAR
STARTCHAR char0x339F
ENCODING 13215
SWIDTH 1200 0
DWIDTH 12 0
BBX 12 10 0 -1
BITMAP
0060
0020
0040
F7F0
AE80
AE80
AE80
AE80
AE80
AE80
ENDCHAR
STARTCHAR char0x33A0
ENCODING 13216
SWIDTH 1200 0
DWIDTH 12 0
BBX 12 10 0 -1
BITMAP
0060
0020
0040
77F0
9680
8680
8680
8680
9680
7680
ENDCHAR
STARTCHAR char0x33A1
ENCODING 13217
SWIDTH 1200 0
DWIDTH 12 0
BBX 9 10 2 -1
BITMAP
0300
0180
0100
FF80
B400
A400
A400
A400
A400
A400
ENDCHAR
STARTCHAR char0x33A2
ENCODING 13218
SWIDTH 1200 0
DWIDTH 12 0
BBX 11 10 1 -1
BITMAP
80C0
8040
8080
BFE0
ED00
CD00
CD00
CD00
AD00
BD00
ENDCHAR
STARTCHAR char0x33A3
ENCODING 13219
SWIDTH 1200 0
DWIDTH 12 0
BBX 11 10 0 -1
BITMAP
0060
0020
0020
F7E0
AE80
AE80
AE80
AE80
AE80
AE80
ENDCHAR
STARTCHAR char0x33A4
ENCODING 13220
SWIDTH 1200 0
DWIDTH 12 0
BBX 11 10 0 -1
BITMAP
0060
0020
0020
77E0
9680
8680
8680
8680
9680
7680
ENDCHAR
STARTCHAR char0x33A5
ENCODING 13221
SWIDTH 1200 0
DWIDTH 12 0
BBX 9 10 2 -1
BITMAP
0300
0100
0100
FF80
A400
A400
A400
A400
A400
A400
ENDCHAR
STARTCHAR char0x33A6
ENCODING 13222
SWIDTH 1200 0
DWIDTH 12 0
BBX 11 10 1 -1
BITMAP
80C0
8040
8020
BFC0
ED00
CD00
CD00
CD00
AD00
BD00
ENDCHAR
STARTCHAR char0x33A7
ENCODING 13223
SWIDTH 1200 0
DWIDTH 12 0
BBX 10 10 1 -1
BITMAP
F040
B080
B100
B200
B400
0B80
1240
2180
4440
C380
ENDCHAR
STARTCHAR char0x33A8
ENCODING 13224
SWIDTH 1200 0
DWIDTH 12 0
BBX 10 10 1 -1
BITMAP
F080
D080
D100
D240
D440
0F40
1500
2700
4880
8700
ENDCHAR
STARTCHAR char0x33A9
ENCODING 13225
SWIDTH 1200 0
DWIDTH 12 0
BBX 10 10 1 -1
BITMAP
F000
9800
8800
8BC0
8C80
F480
8480
8480
8480
8340
ENDCHAR
STARTCHAR char0x33AA
ENCODING 13226
SWIDTH 1200 0
DWIDTH 12 0
BBX 11 10 0 -1
BITMAP
8E00
8900
8900
99E0
A9A0
CEA0
E8A0
A8A0
A8A0
98E0
ENDCHAR
STARTCHAR char0x33AB
ENCODING 13227
SWIDTH 1200 0
DWIDTH 12 0
BBX 12 10 0 -1
BITMAP
8F00
DD00
DD00
DD60
DDA0
DFA0
ECA0
ACA0
ACA0
AC70
ENDCHAR
STARTCHAR char0x33AC
ENCODING 13228
SWIDTH 1200 0
DWIDTH 12 0
BBX 11 10 0 -1
BITMAP
7600
5500
9500
8560
85A0
97A0
94A0
94A0
54A0
7460
ENDCHAR
STARTCHAR char0x33AD
ENCODING 13229
SWIDTH 1200 0
DWIDTH 12 0
BBX 11 10 0 -1
BITMAP
0020
0020
0020
AEE0
D320
D320
9320
9320
9320
8EE0
ENDCHAR
STARTCHAR char0x33AE
ENCODING 13230
SWIDTH 1200 0
DWIDTH 12 0
BBX 12 12 0 -2
BITMAP
0100
0100
FF10
AD20
AD40
1280
0100
02C0
04A0
0960
10C0
2000
ENDCHAR
STARTCHAR char0x33AF
ENCODING 13231
SWIDTH 1200 0
DWIDTH 12 0
BBX 12 12 0 -2
BITMAP
0100
0100
FF30
A940
AD40
12A0
0120
03A0
0540
0AC0
1180
2000
ENDCHAR
STARTCHAR char0x33B0
ENCODING 13232
SWIDTH 1200 0
DWIDTH 12 0
BBX 10 9 1 -3
BITMAP
F380
9C40
8E00
8B80
8840
D440
F380
8000
8000
ENDCHAR
STARTCHAR char0x33B1
ENCODING 13233
SWIDTH 1200 0
DWIDTH 12 0
BBX 10 7 1 -1
BITMAP
F780
94C0
9600
9380
90C0
94C0
9380
ENDCHAR
STARTCHAR char0x33B2
ENCODING 13234
SWIDTH 1200 0
DWIDTH 12 0
BBX 10 8 1 -2
BITMAP
4B80
4C40
9600
9380
9040
9440
FB80
8000
ENDCHAR
STARTCHAR char0x33B3
ENCODING 13235
SWIDTH 1200 0
DWIDTH 12 0
BBX 10 7 1 -1
BITMAP
FB80
AC40
AE00
A980
A840
AC40
AB80
ENDCHAR
STARTCHAR char0x33B4
ENCODING 13236
SWIDTH 1200 0
DWIDTH 12 0
BBX 10 12 1 -3
BITMAP
1840
0840
0880
F880
9480
9480
9500
9300
9300
E200
8000
8000
ENDCHAR
STARTCHAR char0x33B5
ENCODING 13237
SWIDTH 1200 0
DWIDTH 12 0
BBX 10 10 1 -1
BITMAP
1040
08C0
0880
E880
9C80
9500
9500
9500
9300
9200
ENDCHAR
STARTCHAR char0x33B6
ENCODING 13238
SWIDTH 1200 0
DWIDTH 12 0
BBX 11 11 0 -2
BITMAP
0420
0420
0420
6A40
4A40
4A40
4A80
5980
5180
6980
8000
ENDCHAR
STARTCHAR char0x33B7
ENCODING 13239
SWIDTH 1200 0
DWIDTH 12 0
BBX 10 10 1 -1
BITMAP
0840
0840
0840
F480
D480
D480
D500
D300
D300
D300
ENDCHAR
STARTCHAR char0x33B8
ENCODING 13240
SWIDTH 1200 0
DWIDTH 12 0
BBX 10 10 1 -1
BITMAP
8840
8840
8840
9C80
A480
C480
E500
A300
B300
9300
ENDCHAR
STARTCHAR char0x33B9
ENCODING 13241
SWIDTH 1200 0
DWIDTH 12 0
BBX 10 10 1 -1
BITMAP
8E40
8A40
8A40
9A40
DA40
D980
D980
E980
A980
A980
ENDCHAR
STARTCHAR char0x33BA
ENCODING 13242
SWIDTH 1200 0
DWIDTH 12 0
BBX 10 12 1 -3
BITMAP
1240
1240
1240
F540
B540
AD80
AD80
AD80
AD80
E880
8000
8000
ENDCHAR
STARTCHAR char0x33BB
ENCODING 13243
SWIDTH 1200 0
DWIDTH 12 0
BBX 10 10 1 -1
BITMAP
1240
1240
1240
F540
B540
AD80
AD80
AD80
AD80
A880
ENDCHAR
STARTCHAR char0x33BC
ENCODING 13244
SWIDTH 1200 0
DWIDTH 12 0
BBX 11 11 0 -2
BITMAP
05A0
05A0
05A0
4DA0
55A0
55A0
56C0
5240
5240
FA40
8000
ENDCHAR
STARTCHAR char0x33BD
ENCODING 13245
SWIDTH 1200 0
DWIDTH 12 0
BBX 11 10 0 -1
BITMAP
05A0
05A0
05A0
FDA0
ADA0
ADA0
AEC0
AA40
AA40
AA40
ENDCHAR
STARTCHAR char0x33BE
ENCODING 13246
SWIDTH 1200 0
DWIDTH 12 0
BBX 10 10 1 -1
BITMAP
8A40
8B40
8B40
BB40
AB40
CB80
CD80
A480
A480
9480
ENDCHAR
STARTCHAR char0x33BF
ENCODING 13247
SWIDTH 1200 0
DWIDTH 12 0
BBX 11 10 0 -1
BITMAP
8CA0
CAA0
CAA0
CAA0
DBA0
DB60
BB60
BB60
BB40
A940
ENDCHAR
STARTCHAR char0x33C0
ENCODING 13248
SWIDTH 1200 0
DWIDTH 12 0
BBX 10 10 1 -1
BITMAP
8300
8480
8440
9440
A440
C440
E480
A780
B300
9780
ENDCHAR
STARTCHAR char0x33C1
ENCODING 13249
SWIDTH 1200 0
DWIDTH 12 0
BBX 10 10 1 -1
BITMAP
8980
9A40
9C40
9C40
DC40
DC40
EE40
EBC0
E980
ABC0
ENDCHAR
STARTCHAR char0x33C2
ENCODING 13250
SWIDTH 1200 0
DWIDTH 12 0
BBX 11 7 0 -1
BITMAP
77C0
1540
3540
D540
9540
BD60
4820
ENDCHAR
STARTCHAR char0x33C3
ENCODING 13251
SWIDTH 1200 0
DWIDTH 12 0
BBX 10 12 1 -3
BITMAP
F000
9000
8800
93C0
F4C0
9440
8C40
8C40
9EC0
F340
0040
0040
ENDCHAR
STARTCHAR char0x33C4
ENCODING 13252
SWIDTH 1200 0
DWIDTH 12 0
BBX 11 7 0 -1
BITMAP
79C0
4E20
4200
C200
4200
4E20
79C0
ENDCHAR
STARTCHAR char0x33C5
ENCODING 13253
SWIDTH 1200 0
DWIDTH 12 0
BBX 10 10 0 -1
BITMAP
0040
0040
0040
79C0
4A40
4240
C240
4240
4A40
79C0
ENDCHAR
STARTCHAR char0x33C6
ENCODING 13254
SWIDTH 1200 0
DWIDTH 12 0
BBX 11 12 0 -2
BITMAP
0040
3080
4900
4200
4C00
3400
0C00
1440
27A0
46A0
85E0
00E0
ENDCHAR
STARTCHAR char0x33C7
ENCODING 13255
SWIDTH 1200 0
DWIDTH 12 0
BBX 12 10 0 -1
BITMAP
1800
6400
4000
8180
8240
8240
8240
4240
6560
18B0
ENDCHAR
STARTCHAR char0x33C8
ENCODING 13256
SWIDTH 1200 0
DWIDTH 12 0
BBX 10 10 1 -1
BITMAP
1780
1480
1480
7480
9780
9480
9440
9440
9480
7780
ENDCHAR
STARTCHAR char0x33C9
ENCODING 13257
SWIDTH 1200 0
DWIDTH 12 0
BBX 11 12 0 -3
BITMAP
3800
4C00
4400
4320
8120
9D20
4540
44C0
4CC0
3C80
0080
0180
ENDCHAR
STARTCHAR char0x33CA
ENCODING 13258
SWIDTH 1200 0
DWIDTH 12 0
BBX 10 10 1 -1
BITMAP
8000
8000
8000
F380
9480
9480
9480
9480
9480
9340
ENDCHAR
STARTCHAR char0x33CF
ENCODING 13263
SWIDTH 1200 0
DWIDTH 12 0
BBX 8 10 2 -1
BITMAP
80
82
82
9F
A2
C2
E2
A2
92
9B
ENDCHAR
STARTCHAR char0x33D0
ENCODING 13264
SWIDTH 1200 0
DWIDTH 12 0
BBX 8 10 2 -1
BITMAP
80
80
80
9F
95
95
95
95
95
95
ENDCHAR
STARTCHAR char0x33D3
ENCODING 13267
SWIDTH 1200 0
DWIDTH 12 0
BBX 8 10 2 -1
BITMAP
C0
C0
C0
D3
CA
CC
C4
CE
DA
D1
ENDCHAR
STARTCHAR char0x33D6
ENCODING 13270
SWIDTH 1200 0
DWIDTH 12 0
BBX 10 10 1 -1
BITMAP
0040
0040
0040
F740
D540
D940
D940
D940
D540
D640
ENDCHAR
STARTCHAR char0x33D8
ENCODING 13272
SWIDTH 1200 0
DWIDTH 12 0
BBX 11 8 0 -2
BITMAP
F7C0
9540
9540
9540
9540
DD60
A820
8000
ENDCHAR
STARTCHAR char0x33DB
ENCODING 13275
SWIDTH 1200 0
DWIDTH 12 0
BBX 9 7 1 -1
BITMAP
7380
CB00
4200
3200
0A00
CA00
7200
ENDCHAR
STARTCHAR char0x33DC
ENCODING 13276
SWIDTH 1200 0
DWIDTH 12 0
BBX 11 10 0 -1
BITMAP
3800
4400
4400
4320
7120
1D20
0540
C4C0
44C0
3880
ENDCHAR
STARTCHAR char0x33DD
ENCODING 13277
SWIDTH 1200 0
DWIDTH 12 0
BBX 11 10 0 -1
BITMAP
9500
9500
5500
75C0
7520
7520
7920
6920
6920
29C0
ENDCHAR
STARTCHAR char0x4E00
ENCODING 19968
SWIDTH 1200 0
DWIDTH 12 0
BBX 10 1 1 4
BITMAP
FFC0
ENDCHAR
STARTCHAR char0x4E01
ENCODING 19969
SWIDTH 1200 0
DWIDTH 12 0
BBX 10 10 1 -1
BITMAP
FFC0
0400
0400
0400
0400
0400
0400
0400
0400
1800
ENDCHAR
STARTCHAR char0x4E03
ENCODING 19971
SWIDTH 1200 0
DWIDTH 12 0
BBX 10 11 1 -1
BITMAP
1000
1000
1000
1040
3F80
D000
1000
1000
1040
1040
1F80
ENDCHAR
STARTCHAR char0x4E07
ENCODING 19975
SWIDTH 1200 0
DWIDTH 12 0
BBX 10 10 1 -1
BITMAP
FFC0
1000
1000
1F80
1080
1080
2080
2100
4100
8700
ENDCHAR
STARTCHAR char0x4E08
ENCODING 19976
SWIDTH 1200 0
DWIDTH 12 0
BBX 11 11 0 -1
BITMAP
0600
0200
7FE0
0400
1400
1400
0C00
0C00
0C00
1300
E0E0
ENDCHAR
STARTCHAR char0x4E09
ENCODING 19977
SWIDTH 1200 0
DWIDTH 12 0
BBX 10 9 1 0
BITMAP
7F80
0000
0000
0000
7F00
0000
0000
0000
FFC0
ENDCHAR
STARTCHAR char0x4E0A
ENCODING 19978
SWIDTH 1200 0
DWIDTH 12 0
BBX 10 11 1 -1
BITMAP
0800
0800
0800
0800
0F80
0800
0800
0800
0800
0800
FFC0
ENDCHAR
STARTCHAR char0x4E0B
ENCODING 19979
SWIDTH 1200 0
DWIDTH 12 0
BBX 10 10 1 -1
BITMAP
FFC0
0800
0800
0C00
0A00
0980
0800
0800
0800
0800
ENDCHAR
STARTCHAR char0x4E0D
ENCODING 19981
SWIDTH 1200 0
DWIDTH 12 0
BBX 10 10 1 -1
BITMAP
FFC0
0800
0800
1A00
2900
6880
C8C0
8800
0800
0800
ENDCHAR
STARTCHAR char0x4E11
ENCODING 19985
SWIDTH 1200 0
DWIDTH 12 0
BBX 10 10 1 -1
BITMAP
7F80
1080
1100
1100
FFC0
2100
2100
2100
2100
FFC0
ENDCHAR
STARTCHAR char0x4E14
ENCODING 19988
SWIDTH 1200 0
DWIDTH 12 0
BBX 11 10 0 -1
BITMAP
3F80
2080
2080
3F80
2080
2080
3F80
2080
2080
FFE0
ENDCHAR
STARTCHAR char0x4E15
ENCODING 19989
SWIDTH 1200 0
DWIDTH 12 0
BBX 11 10 0 -1
BITMAP
7FE0
0400
0E00
0D00
34C0
6460
8400
0400
0400
FFE0
ENDCHAR
STARTCHAR char0x4E16
ENCODING 19990
SWIDTH 1200 0
DWIDTH 12 0
BBX 11 11 0 -1
BITMAP
2480
2480
2480
FFE0
2480
2480
2480
2780
2000
2000
3FE0
ENDCHAR
STARTCHAR char0x4E18
ENCODING 19992
SWIDTH 1200 0
DWIDTH 12 0
BBX 11 11 0 -1
BITMAP
0180
3E00
2000
2000
2000
3FC0
2200
2200
2200
2200
FFE0
ENDCHAR
STARTCHAR char0x4E19
ENCODING 19993
SWIDTH 1200 0
DWIDTH 12 0
BBX 10 10 1 -1
BITMAP
FFC0
0800
FF80
8880
8C80
9280
E180
8080
8080
8380
ENDCHAR
STARTCHAR char0x4E1E
ENCODING 19998
SWIDTH 1200 0
DWIDTH 12 0
BBX 11 11 0 -1
BITMAP
0080
3F00
0200
7560
15C0
1580
1480
2440
5460
8820
7FE0
ENDCHAR
STARTCHAR char0x4E2D
ENCODING 20013
SWIDTH 1200 0
DWIDTH 12 0
BBX 10 11 1 -1
BITMAP
0800
0800
FFC0
8840
8840
8840
FFC0
8840
0800
0800
0800
ENDCHAR
STARTCHAR char0x4E32
ENCODING 20018
SWIDTH 1200 0
DWIDTH 12 0
BBX 10 11 1 -1
BITMAP
0800
FF80
8880
8880
FF80
0800
FFC0
8840
8840
FFC0
0800
ENDCHAR
STARTCHAR char0x4E38
ENCODING 20024
SWIDTH 1200 0
DWIDTH 12 0
BBX 10 11 1 -1
BITMAP
1000
1000
FF00
1100
1100
7100
1900
1900
2540
4140
81C0
ENDCHAR
STARTCHAR char0x4E39
ENCODING 20025
SWIDTH 1200 0
DWIDTH 12 0
BBX 11 11 0 -1
BITMAP
3FC0
2040
2440
2240
2040
FFE0
2040
2040
2040
2040
4180
ENDCHAR
STARTCHAR char0x4E3B
ENCODING 20027
SWIDTH 1200 0
DWIDTH 12 0
BBX 11 11 0 -1
BITMAP
0C00
0200
7FE0
0400
0400
0400
3FC0
0400
0400
0400
FFE0
ENDCHAR
STARTCHAR char0x4E42
ENCODING 20034
SWIDTH 1200 0
DWIDTH 12 0
BBX 11 11 0 -1
BITMAP
0080
3080
1080
1100
0900
0A00
0600
0600
0900
3080
C060
ENDCHAR
STARTCHAR char0x4E43
ENCODING 20035
SWIDTH 1200 0
DWIDTH 12 0
BBX 10 11 1 -1
BITMAP
0100
FF00
1200
2200
23C0
2280
2080
4080
4080
C080
8700
ENDCHAR
STARTCHAR char0x4E45
ENCODING 20037
SWIDTH 1200 0
DWIDTH 12 0
BBX 11 11 0 -1
BITMAP
0C00
0800
1F00
1180
2100
4300
0500
0D80
1880
2040
C020
ENDCHAR
STARTCHAR char0x4E4B
ENCODING 20043
SWIDTH 1200 0
DWIDTH 12 0
BBX 10 11 1 -1
BITMAP
0800
0900
F780
0300
0600
0C00
1800
7000
6000
B000
8FC0
ENDCHAR
STARTCHAR char0x4E4D
ENCODING 20045
SWIDTH 1200 0
DWIDTH 12 0
BBX 11 12 0 -2
BITMAP
1000
1000
2FE0
6400
47C0
8400
0400
07E0
0400
0400
0400
0400
ENDCHAR
STARTCHAR char0x4E4E
ENCODING 20046
SWIDTH 1200 0
DWIDTH 12 0
BBX 11 12 0 -2
BITMAP
0180
3E40
0480
24C0
1480
1500
EEE0
0400
0400
0400
1400
1800
ENDCHAR
STARTCHAR char0x4E4F
ENCODING 20047
SWIDTH 1200 0
DWIDTH 12 0
BBX 10 11 1 -1
BITMAP
0300
FC80
0800
FF00
0100
0200
0400
0800
7000
A000
9FC0
ENDCHAR
STARTCHAR char0x4E56
ENCODING 20054
SWIDTH 1200 0
DWIDTH 12 0
BBX 11 12 0 -2
BITMAP
01C0
7E00
0400
FFE0
1500
1540
75C0
1500
1520
F520
04C0
0400
ENDCHAR
STARTCHAR char0x4E58
ENCODING 20056
SWIDTH 1200 0
DWIDTH 12 0
BBX 11 11 0 -1
BITMAP
01C0
3E00
0400
FFE0
1540
7580
1520
77C0
0D00
3480
4460
ENDCHAR
STARTCHAR char0x4E59
ENCODING 20057
SWIDTH 1200 0
DWIDTH 12 0
BBX 10 11 1 -1
BITMAP
0200
7F00
0400
0800
1000
2000
6000
4000
8040
8040
7F80
ENDCHAR
STARTCHAR char0x4E5D
ENCODING 20061
SWIDTH 1200 0
DWIDTH 12 0
BBX 11 11 0 -1
BITMAP
0800
0800
0900
7F80
0900
0900
0900
1100
1120
2120
C0E0
ENDCHAR
STARTCHAR char0x4E5E
ENCODING 20062
SWIDTH 1200 0
DWIDTH 12 0
BBX 11 11 0 -1
BITMAP
1800
1000
2FE0
4000
BF80
0300
0400
0800
1020
2020
3FE0
ENDCHAR
STARTCHAR char0x4E5F
ENCODING 20063
SWIDTH 1200 0
DWIDTH 12 0
BBX 11 11 0 -1
BITMAP
0400
2400
24C0
2740
3C40
6440
A440
25C0
2420
2020
3FC0
ENDCHAR
STARTCHAR char0x4E6B
ENCODING 20075
SWIDTH 1200 0
DWIDTH 12 0
BBX 11 12 0 -2
BITMAP
1000
7FC0
1640
2640
2640
DBC0
0000
7FC0
0E00
3020
4020
3FC0
ENDCHAR
STARTCHAR char0x4E6D
ENCODING 20077
SWIDTH 1200 0
DWIDTH 12 0
BBX 10 10 1 -1
BITMAP
FFC0
3F80
6080
A080
3F80
7F00
0780
3800
C040
FFC0
ENDCHAR
STARTCHAR char0x4E73
ENCODING 20083
SWIDTH 1200 0
DWIDTH 12 0
BBX 11 11 0 -1
BITMAP
0580
7A80
5480
7480
7C80
0880
1080
1E80
F0A0
10A0
30E0
ENDCHAR
STARTCHAR char0x4E76
ENCODING 20086
SWIDTH 1200 0
DWIDTH 12 0
BBX 10 11 1 -1
BITMAP
0B00
FFC0
7F80
4880
7F80
7F80
4980
FF00
1C00
6040
FFC0
ENDCHAR
STARTCHAR char0x4E77
ENCODING 20087
SWIDTH 1200 0
DWIDTH 12 0
BBX 10 11 1 -1
BITMAP
5300
2A80
9240
7280
4500
8E00
B000
7F00
1800
6040
FF80
ENDCHAR
STARTCHAR char0x4E7E
ENCODING 20094
SWIDTH 1200 0
DWIDTH 12 0
BBX 11 11 0 -1
BITMAP
1100
7D00
13E0
7A00
4C80
7B40
4880
7900
1120
FE20
13C0
ENDCHAR
STARTCHAR char0x4E82
ENCODING 20098
SWIDTH 1200 0
DWIDTH 12 0
BBX 10 12 1 -2
BITMAP
1D00
E500
9500
7900
3100
FD00
FD00
FD00
AD00
9540
EDC0
0800
ENDCHAR
STARTCHAR char0x4E86
ENCODING 20102
SWIDTH 1200 0
DWIDTH 12 0
BBX 8 11 2 -1
BITMAP
02
FF
0C
18
10
10
10
10
10
10
70
ENDCHAR
STARTCHAR char0x4E88
ENCODING 20104
SWIDTH 1200 0
DWIDTH 12 0
BBX 11 11 0 -1
BITMAP
3F80
00C0
0900
0600
FFC0
0460
0440
0440
0400
0400
0C00
ENDCHAR
STARTCHAR char0x4E8B
ENCODING 20107
SWIDTH 1200 0
DWIDTH 12 0
BBX 11 11 0 -1
BITMAP
0400
FFE0
3F80
2480
3F80
0400
7FC0
7FE0
0440
7FC0
1C00
ENDCHAR
STARTCHAR char0x4E8C
ENCODING 20108
SWIDTH 1200 0
DWIDTH 12 0
BBX 10 9 1 0
BITMAP
7F80
0000
0000
0000
0000
0000
0000
0000
FFC0
ENDCHAR
STARTCHAR char0x4E8E
ENCODING 20110
SWIDTH 1200 0
DWIDTH 12 0
BBX 10 10 1 -1
BITMAP
FF80
0800
0800
0800
FFC0
0800
0800
0800
0800
3800
ENDCHAR
STARTCHAR char0x4E90
ENCODING 20112
SWIDTH 1200 0
DWIDTH 12 0
BBX 10 11 1 -1
BITMAP
FF80
1000
1000
FFC0
2000
2000
3F80
4080
0100
0100
0700
ENDCHAR
STARTCHAR char0x4E91
ENCODING 20113
SWIDTH 1200 0
DWIDTH 12 0
BBX 10 10 1 -1
BITMAP
7F80
0000
0000
FFC0
1000
1000
2300
2100
3F80
C080
ENDCHAR
STARTCHAR char0x4E92
ENCODING 20114
SWIDTH 1200 0
DWIDTH 12 0
BBX 10 10 1 -1
BITMAP
FFC0
1000
1F00
1100
2100
2100
3F00
4100
0200
FFC0
ENDCHAR
STARTCHAR char0x4E94
ENCODING 20116
SWIDTH 1200 0
DWIDTH 12 0
BBX 10 10 1 -1
BITMAP
7F80
0800
0800
7F00
1100
1100
1100
1100
1100
FFC0
ENDCHAR
STARTCHAR char0x4E95
ENCODING 20117
SWIDTH 1200 0
DWIDTH 12 0
BBX 10 11 1 -1
BITMAP
1300
1200
1200
FFC0
1200
1200
FFC0
1200
2200
6200
C200
ENDCHAR
STARTCHAR char0x4E98
ENCODING 20120
SWIDTH 1200 0
DWIDTH 12 0
BBX 11 11 0 -1
BITMAP
7FE0
0000
3FC0
2040
2040
3FC0
2040
2040
3FC0
0000
FFE0
ENDCHAR
STARTCHAR char0x4E9B
ENCODING 20123
SWIDTH 1200 0
DWIDTH 12 0
BBX 11 11 0 -1
BITMAP
1100
1140
3DC0
3100
3140
3520
7BC0
0000
3FC0
0000
FFE0
ENDCHAR
STARTCHAR char0x4E9E
ENCODING 20126
SWIDTH 1200 0
DWIDTH 12 0
BBX 10 10 1 -1
BITMAP
FFC0
1200
F380
9280
8080
8080
F380
1200
1200
FFC0
ENDCHAR
STARTCHAR char0x4EA1
ENCODING 20129
SWIDTH 1200 0
DWIDTH 12 0
BBX 10 11 1 -1
BITMAP
0800
0800
FFC0
4000
4000
4000
4000
4000
4000
4000
7F80
ENDCHAR
STARTCHAR char0x4EA2
ENCODING 20130
SWIDTH 1200 0
DWIDTH 12 0
BBX 10 11 1 -1
BITMAP
0800
FFC0
0000
0000
3E00
2200
2200
2200
2240
4240
C3C0
ENDCHAR
STARTCHAR char0x4EA4
ENCODING 20132
SWIDTH 1200 0
DWIDTH 12 0
BBX 10 12 1 -2
BITMAP
0800
0800
F7C0
2200
4380
A2C0
1200
0C00
0C00
1A00
61C0
8000
ENDCHAR
STARTCHAR char0x4EA5
ENCODING 20133
SWIDTH 1200 0
DWIDTH 12 0
BBX 10 11 1 -1
BITMAP
0800
0800
FFC0
5200
3300
0C00
1900
2380
4600
1980
E0C0
ENDCHAR
STARTCHAR char0x4EA6
ENCODING 20134
SWIDTH 1200 0
DWIDTH 12 0
BBX 11 11 0 -1
BITMAP
0400
0400
FFE0
0900
29C0
2940
4940
4920
1100
3100
6700
ENDCHAR
STARTCHAR char0x4EA8
ENCODING 20136
SWIDTH 1200 0
DWIDTH 12 0
BBX 10 12 1 -2
BITMAP
0800
FFC0
0000
7F00
4100
3E00
FF80
0300
0C00
0C00
2800
1800
ENDCHAR
STARTCHAR char0x4EAB
ENCODING 20139
SWIDTH 1200 0
DWIDTH 12 0
BBX 11 12 0 -2
BITMAP
0400
7FE0
1F80
1080
1F80
0080
3F80
0600
FFE0
0400
1400
0C00
ENDCHAR
STARTCHAR char0x4EAC
ENCODING 20140
SWIDTH 1200 0
DWIDTH 12 0
BBX 10 11 1 -1
BITMAP
0800
FFC0
0000
7F80
4080
4080
7F80
4800
2B00
4980
B8C0
ENDCHAR
STARTCHAR char0x4EAD
ENCODING 20141
SWIDTH 1200 0
DWIDTH 12 0
BBX 11 12 0 -2
BITMAP
0400
FFE0
0000
3F80
3F80
0000
7FE0
4020
7FA0
0400
1400
0C00
ENDCHAR
STARTCHAR char0x4EAE
ENCODING 20142
SWIDTH 1200 0
DWIDTH 12 0
BBX 11 12 0 -2
BITMAP
0400
FFE0
0000
3F80
3F80
0000
7FE0
4A20
0A00
0A20
33E0
4000
ENDCHAR
STARTCHAR char0x4EB6
ENCODING 20150
SWIDTH 1200 0
DWIDTH 12 0
BBX 11 11 0 -1
BITMAP
0400
FFE0
3FC0
3F40
3140
2E40
1180
3F80
3F80
3F80
7FE0
ENDCHAR
STARTCHAR char0x4EBA
ENCODING 20154
SWIDTH 1200 0
DWIDTH 12 0
BBX 10 11 1 -1
BITMAP
0800
0800
0800
0800
0C00
1400
1400
3200
2100
4080
80C0
ENDCHAR
STARTCHAR char0x4EC0
ENCODING 20160
SWIDTH 1200 0
DWIDTH 12 0
BBX 11 12 0 -2
BITMAP
3100
2100
2100
2100
6FE0
6100
A100
2100
2100
2100
2100
2000
ENDCHAR
STARTCHAR char0x4EC1
ENCODING 20161
SWIDTH 1200 0
DWIDTH 12 0
BBX 11 12 0 -2
BITMAP
1000
2000
2FC0
2000
6000
A000
2000
2000
2000
3FE0
2000
2000
ENDCHAR
STARTCHAR char0x4EC4
ENCODING 20164
SWIDTH 1200 0
DWIDTH 12 0
BBX 11 11 0 -1
BITMAP
7FE0
4000
4600
4200
4600
4600
4600
4500
4900
5880
B060
ENDCHAR
STARTCHAR char0x4EC7
ENCODING 20167
SWIDTH 1200 0
DWIDTH 12 0
BBX 11 11 0 -1
BITMAP
1600
2400
2480
3F80
6480
A480
2480
2480
24A0
28A0
30E0
ENDCHAR
STARTCHAR char0x4ECA
ENCODING 20170
SWIDTH 1200 0
DWIDTH 12 0
BBX 11 11 0 -1
BITMAP
0400
0A00
1900
3080
5F60
8000
3F80
00C0
0080
0100
0300
ENDCHAR
STARTCHAR char0x4ECB
ENCODING 20171
SWIDTH 1200 0
DWIDTH 12 0
BBX 11 11 0 -1
BITMAP
0600
0600
0B00
1180
20C0
C920
0900
1100
1100
3100
6100
ENDCHAR
STARTCHAR char0x4ECD
ENCODING 20173
SWIDTH 1200 0
DWIDTH 12 0
BBX 11 11 0 -1
BITMAP
1080
2F40
2480
2480
64E0
A4A0
2420
2420
2420
2840
39C0
ENDCHAR
STARTCHAR char0x4ED4
ENCODING 20180
SWIDTH 1200 0
DWIDTH 12 0
BBX 11 12 0 -2
BITMAP
1040
17E0
2080
2180
6100
AFE0
2100
2100
2100
2100
2300
0200
ENDCHAR
STARTCHAR char0x4ED5
ENCODING 20181
SWIDTH 1200 0
DWIDTH 12 0
BBX 11 12 0 -2
BITMAP
1100
2100
2100
2100
7FE0
6100
A100
2100
2100
2100
2FE0
2000
ENDCHAR
STARTCHAR char0x4ED6
ENCODING 20182
SWIDTH 1200 0
DWIDTH 12 0
BBX 11 11 0 -1
BITMAP
3300
2200
2A40
29C0
7E40
AA40
2A40
2AC0
2A40
2820
27C0
ENDCHAR
STARTCHAR char0x4ED7
ENCODING 20183
SWIDTH 1200 0
DWIDTH 12 0
BBX 11 12 0 -2
BITMAP
3100
2100
2100
6FE0
6500
A500
2500
2300
2300
2580
3840
0020
ENDCHAR
STARTCHAR char0x4ED8
ENCODING 20184
SWIDTH 1200 0
DWIDTH 12 0
BBX 11 12 0 -2
BITMAP
10C0
2040
2040
3FE0
6040
6440
A440
2240
2040
2040
2180
2000
ENDCHAR
STARTCHAR char0x4ED9
ENCODING 20185
SWIDTH 1200 0
DWIDTH 12 0
BBX 11 11 0 -1
BITMAP
1100
2100
2100
2960
6940
E940
2940
2940
2940
2940
2FC0
ENDCHAR
STARTCHAR char0x4EDD
ENCODING 20189
SWIDTH 1200 0
DWIDTH 12 0
BBX 11 11 0 -1
BITMAP
0400
0600
0900
1180
6040
C020
3F80
0400
0400
0400
7FC0
ENDCHAR
STARTCHAR char0x4EDF
ENCODING 20191
SWIDTH 1200 0
DWIDTH 12 0
BBX 11 11 0 -1
BITMAP
10C0
2F00
2100
2100
6100
7FE0
A100
2100
2100
2100
2100
ENDCHAR
STARTCHAR char0x4EE3
ENCODING 20195
SWIDTH 1200 0
DWIDTH 12 0
BBX 11 11 0 -1
BITMAP
1300
1280
22C0
23E0
7E00
6200
A200
2100
2100
20A0
20C0
ENDCHAR
STARTCHAR char0x4EE4
ENCODING 20196
SWIDTH 1200 0
DWIDTH 12 0
BBX 11 11 0 -1
BITMAP
0400
0E00
0900
3080
7F60
8040
7FC0
0840
0840
08C0
0900
ENDCHAR
STARTCHAR char0x4EE5
ENCODING 20197
SWIDTH 1200 0
DWIDTH 12 0
BBX 10 12 1 -2
BITMAP
4080
4080
5080
4900
4D00
4100
4900
5100
6300
8680
0C40
1000
ENDCHAR
STARTCHAR char0x4EF0
ENCODING 20208
SWIDTH 1200 0
DWIDTH 12 0
BBX 11 11 0 -1
BITMAP
3200
2DE0
2920
2920
6920
E920
A920
2F20
31E0
2100
2100
ENDCHAR
STARTCHAR char0x4EF2
ENCODING 20210
SWIDTH 1200 0
DWIDTH 12 0
BBX 11 11 0 -1
BITMAP
1100
2100
2FE0
6920
6920
A920
2FE0
2900
2100
2100
2100
ENDCHAR
STARTCHAR char0x4EF6
ENCODING 20214
SWIDTH 1200 0
DWIDTH 12 0
BBX 11 11 0 -1
BITMAP
2900
2500
2D00
6FE0
7900
B100
3FE0
2100
2100
2100
2100
ENDCHAR
STARTCHAR char0x4EF7
ENCODING 20215
SWIDTH 1200 0
DWIDTH 12 0
BBX 12 12 0 -2
BITMAP
1100
2300
2280
2440
6830
B6C0
2480
2480
2480
2480
3880
2080
ENDCHAR
STARTCHAR char0x4EFB
ENCODING 20219
SWIDTH 1200 0
DWIDTH 12 0
BBX 11 12 0 -2
BITMAP
1040
2F80
2100
6100
6100
AFE0
2100
2100
2100
2100
2FE0
2000
ENDCHAR
STARTCHAR char0x4F01
ENCODING 20225
SWIDTH 1200 0
DWIDTH 12 0
BBX 11 11 0 -1
BITMAP
0400
0600
0900
10C0
6220
A200
23C0
2200
2200
2200
FFE0
ENDCHAR
STARTCHAR char0x4F09
ENCODING 20233
SWIDTH 1200 0
DWIDTH 12 0
BBX 11 11 0 -1
BITMAP
3100
2100
2FE0
6000
67C0
A4C0
24C0
24C0
24C0
28E0
3860
ENDCHAR
STARTCHAR char0x4F0A
ENCODING 20234
SWIDTH 1200 0
DWIDTH 12 0
BBX 11 11 0 -1
BITMAP
1FC0
2240
2240
7FE0
6240
A240
2FC0
2200
2400
2400
3800
ENDCHAR
STARTCHAR char0x4F0B
ENCODING 20235
SWIDTH 1200 0
DWIDTH 12 0
BBX 11 11 0 -1
BITMAP
1080
2F80
2480
24C0
6720
E640
2640
2540
2980
2980
3E60
ENDCHAR
STARTCHAR char0x4F0D
ENCODING 20237
SWIDTH 1200 0
DWIDTH 12 0
BBX 11 12 0 -2
BITMAP
3FE0
2200
2200
6200
6FC0
E240
2440
2440
2440
2440
3FE0
2000
ENDCHAR
STARTCHAR char0x4F0E
ENCODING 20238
SWIDTH 1200 0
DWIDTH 12 0
BBX 11 11 0 -1
BITMAP
1300
2100
3FE0
2100
6140
AEC0
2440
2280
2100
2280
3C60
ENDCHAR
STARTCHAR char0x4F0F
ENCODING 20239
SWIDTH 1200 0
DWIDTH 12 0
BBX 11 11 0 -1
BITMAP
1200
2280
22C0
2200
7FE0
6300
A300
2380
2480
2840
3020
ENDCHAR
STARTCHAR char0x4F10
ENCODING 20240
SWIDTH 1200 0
DWIDTH 12 0
BBX 11 12 0 -2
BITMAP
1600
2280
22C0
27E0
7A80
62C0
A280
2300
2300
2720
28E0
2000
ENDCHAR
STARTCHAR char0x4F11
ENCODING 20241
SWIDTH 1200 0
DWIDTH 12 0
BBX 11 12 0 -2
BITMAP
1300
2200
2200
3FE0
6200
E300
2680
2680
2A40
3220
2200
2200
ENDCHAR
STARTCHAR char0x4F2F
ENCODING 20271
SWIDTH 1200 0
DWIDTH 12 0
BBX 11 12 0 -2
BITMAP
1100
2100
2EE0
2820
6820
A820
2FE0
2820
2820
2820
2FE0
2800
ENDCHAR
STARTCHAR char0x4F34
ENCODING 20276
SWIDTH 1200 0
DWIDTH 12 0
BBX 11 11 0 -1
BITMAP
1100
2580
2940
3160
6F80
A100
2100
3FE0
2100
2100
2100
ENDCHAR
STARTCHAR char0x4F36
ENCODING 20278
SWIDTH 1200 0
DWIDTH 12 0
BBX 11 12 0 -2
BITMAP
1100
2300
2680
2440
7BA0
E000
AFC0
2240
2240
2240
22C0
2000
ENDCHAR
STARTCHAR char0x4F38
ENCODING 20280
SWIDTH 1200 0
DWIDTH 12 0
BBX 11 11 0 -1
BITMAP
1100
2100
2FE0
2920
6920
EFE0
2920
2FE0
2900
2100
2100
ENDCHAR
STARTCHAR char0x4F3A
ENCODING 20282
SWIDTH 1200 0
DWIDTH 12 0
BBX 11 11 0 -1
BITMAP
1FE0
2020
2020
2FA0
6020
6FA0
A8A0
28A0
2FA0
2020
20E0
ENDCHAR
STARTCHAR char0x4F3C
ENCODING 20284
SWIDTH 1200 0
DWIDTH 12 0
BBX 11 12 0 -2
BITMAP
1240
2A40
2940
2940
6840
E840
A840
2B80
2CC0
3160
2220
2400
ENDCHAR
STARTCHAR char0x4F3D
ENCODING 20285
SWIDTH 1200 0
DWIDTH 12 0
BBX 11 11 0 -1
BITMAP
1800
28E0
3EA0
2AA0
6AA0
AAA0
2AA0
2AA0
2AA0
32A0
36E0
ENDCHAR
STARTCHAR char0x4F43
ENCODING 20291
SWIDTH 1200 0
DWIDTH 12 0
BBX 11 11 0 -1
BITMAP
1000
1FE0
2920
2920
6920
AFE0
2920
2920
2920
2920
2EE0
ENDCHAR
STARTCHAR char0x4F46
ENCODING 20294
SWIDTH 1200 0
DWIDTH 12 0
BBX 11 12 0 -2
BITMAP
1000
17C0
2440
2440
67C0
E440
A440
2440
27C0
2000
2FE0
2000
ENDCHAR
STARTCHAR char0x4F47
ENCODING 20295
SWIDTH 1200 0
DWIDTH 12 0
BBX 11 12 0 -2
BITMAP
1100
2100
3EE0
3020
6000
BFE0
2100
2100
2100
2100
2500
0200
ENDCHAR
STARTCHAR char0x4F48
ENCODING 20296
SWIDTH 1200 0
DWIDTH 12 0
BBX 11 12 0 -2
BITMAP
2200
2200
2DE0
6500
6500
ABE0
3920
3920
2920
2960
2900
2100
ENDCHAR
STARTCHAR char0x4F4D
ENCODING 20301
SWIDTH 1200 0
DWIDTH 12 0
BBX 11 12 0 -2
BITMAP
1300
2200
3FE0
2000
6840
A880
2880
2480
2480
2480
3FE0
2000
ENDCHAR
STARTCHAR char0x4F4E
ENCODING 20302
SWIDTH 1200 0
DWIDTH 12 0
BBX 11 11 0 -1
BITMAP
1040
2F80
2900
2900
6FE0
A900
2900
2880
2EA0
3860
2FC0
ENDCHAR
STARTCHAR char0x4F4F
ENCODING 20303
SWIDTH 1200 0
DWIDTH 12 0
BBX 11 11 0 -1
BITMAP
1200
2100
2FE0
2100
6100
A100
2FC0
2100
2100
2100
3FE0
ENDCHAR
STARTCHAR char0x4F50
ENCODING 20304
SWIDTH 1200 0
DWIDTH 12 0
BBX 11 11 0 -1
BITMAP
1200
2200
3FE0
6400
6400
A400
2BC0
3900
3100
2100
3FE0
ENDCHAR
STARTCHAR char0x4F51
ENCODING 20305
SWIDTH 1200 0
DWIDTH 12 0
BBX 11 12 0 -2
BITMAP
1200
2200
2FE0
6400
6400
A400
2BC0
3840
2840
2840
2FC0
2000
ENDCHAR
STARTCHAR char0x4F55
ENCODING 20309
SWIDTH 1200 0
DWIDTH 12 0
BBX 11 12 0 -2
BITMAP
3000
2FE0
2040
6F40
6940
A940
2940
2F40
2940
2040
20C0
2000
ENDCHAR
STARTCHAR char0x4F59
ENCODING 20313
SWIDTH 1200 0
DWIDTH 12 0
BBX 11 11 0 -1
BITMAP
0400
0A00
1900
30C0
5FA0
8400
7FE0
0500
3480
6440
4C60
ENDCHAR
STARTCHAR char0x4F5A
ENCODING 20314
SWIDTH 1200 0
DWIDTH 12 0
BBX 11 11 0 -1
BITMAP
3900
2500
2FC0
6900
7100
BFE0
2300
2300
2280
24C0
3860
ENDCHAR
STARTCHAR char0x4F5B
ENCODING 20315
SWIDTH 1200 0
DWIDTH 12 0
BBX 11 11 0 -1
BITMAP
1280
2280
2FE0
22A0
6FE0
EA80
2FE0
34A0
24A0
24E0
3880
ENDCHAR
STARTCHAR char0x4F5C
ENCODING 20316
SWIDTH 1200 0
DWIDTH 12 0
BBX 11 12 0 -2
BITMAP
1200
1200
27E0
2900
6900
A1C0
2100
21E0
2100
2100
2100
0100
ENDCHAR
STARTCHAR char0x4F69
ENCODING 20329
SWIDTH 1200 0
DWIDTH 12 0
BBX 11 11 0 -1
BITMAP
2000
3FC0
5040
57C0
5240
D7C0
56C0
56C0
56C0
5760
7260
ENDCHAR
STARTCHAR char0x4F6F
ENCODING 20335
SWIDTH 1200 0
DWIDTH 12 0
BBX 11 12 0 -2
BITMAP
3480
2480
3FE0
2100
6100
EFC0
A100
2100
3FE0
2100
2100
2000
ENDCHAR
STARTCHAR char0x4F70
ENCODING 20336
SWIDTH 1200 0
DWIDTH 12 0
BBX 11 12 0 -2
BITMAP
1FE0
2100
2200
2FC0
6840
6840
A840
2FC0
2840
2840
2FC0
2800
ENDCHAR
STARTCHAR char0x4F73
ENCODING 20339
SWIDTH 1200 0
DWIDTH 12 0
BBX 11 11 0 -1
BITMAP
1100
2100
2FC0
2100
6100
BEE0
2100
2100
2FC0
2100
3FE0
ENDCHAR
STARTCHAR char0x4F76
ENCODING 20342
SWIDTH 1200 0
DWIDTH 12 0
BBX 11 12 0 -2
BITMAP
2100
2100
3FE0
6100
6100
AEE0
2000
2FC0
2840
2840
2FC0
2800
ENDCHAR
STARTCHAR char0x4F7A
ENCODING 20346
SWIDTH 1200 0
DWIDTH 12 0
BBX 11 12 0 -2
BITMAP
1700
2300
2280
64C0
7820
A7C0
2100
2100
27C0
2100
3FE0
2000
ENDCHAR
STARTCHAR char0x4F7E
ENCODING 20350
SWIDTH 1200 0
DWIDTH 12 0
BBX 12 12 0 -2
BITMAP
3780
2480
2840
7020
6FD0
A840
2FC0
2840
2FC0
2840
2940
2980
ENDCHAR
STARTCHAR char0x4F7F
ENCODING 20351
SWIDTH 1200 0
DWIDTH 12 0
BBX 11 11 0 -1
BITMAP
1100
2100
2FE0
6100
6FE0
A920
AFE0
2500
2600
2200
3DE0
ENDCHAR
STARTCHAR char0x4F81
ENCODING 20353
SWIDTH 1200 0
DWIDTH 12 0
BBX 11 12 0 -2
BITMAP
3100
2500
2FE0
2900
6900
FFE0
2280
2280
2480
24A0
2CE0
1000
ENDCHAR
STARTCHAR char0x4F83
ENCODING 20355
SWIDTH 1200 0
DWIDTH 12 0
BBX 11 12 0 -2
BITMAP
1FC0
2840
2840
2840
6FC0
A000
27C0
2680
2680
2AA0
3A60
2000
ENDCHAR
STARTCHAR char0x4F84
ENCODING 20356
SWIDTH 1200 0
DWIDTH 12 0
BBX 11 11 0 -1
BITMAP
2FE0
2200
2600
64C0
7FC0
A020
2100
2FC0
2100
2100
3FE0
ENDCHAR
STARTCHAR char0x4F86
ENCODING 20358
SWIDTH 1200 0
DWIDTH 12 0
BBX 11 12 0 -2
BITMAP
0400
7FE0
0400
1480
2480
5540
8E60
0D00
1580
24C0
C420
0400
ENDCHAR
STARTCHAR char0x4F88
ENCODING 20360
SWIDTH 1200 0
DWIDTH 12 0
BBX 11 11 0 -1
BITMAP
2300
27C0
3C80
6300
6680
B920
23E0
2F40
2180
2300
3C00
ENDCHAR
STARTCHAR char0x4F8A
ENCODING 20362
SWIDTH 1200 0
DWIDTH 12 0
BBX 11 11 0 -1
BITMAP
2100
2940
2540
4580
5FE0
C280
4480
4480
44C0
4CA0
58E0
ENDCHAR
STARTCHAR char0x4F8B
ENCODING 20363
SWIDTH 1200 0
DWIDTH 12 0
BBX 11 11 0 -1
BITMAP
2060
3EA0
28A0
6EA0
6AA0
AAA0
36A0
24A0
24A0
2820
30C0
ENDCHAR
STARTCHAR char0x4F8D
ENCODING 20365
SWIDTH 1200 0
DWIDTH 12 0
BBX 11 12 0 -2
BITMAP
3100
2FE0
2100
2100
6FE0
E080
BFE0
2880
2880
2480
2080
2100
ENDCHAR
STARTCHAR char0x4F8F
ENCODING 20367
SWIDTH 1200 0
DWIDTH 12 0
BBX 11 11 0 -1
BITMAP
1100
2500
2FC0
6900
7100
BFE0
2300
2780
2D40
3920
2100
ENDCHAR
STARTCHAR char0x4F91
ENCODING 20369
SWIDTH 1200 0
DWIDTH 12 0
BBX 11 12 0 -2
BITMAP
1200
2200
2FE0
2400
67C0
AC40
3FC0
3440
27C0
2440
2540
00C0
ENDCHAR
STARTCHAR char0x4F96
ENCODING 20374
SWIDTH 1200 0
DWIDTH 12 0
BBX 11 12 0 -2
BITMAP
0400
0A00
1180
60C0
9F20
7FC0
4A40
4A40
7FC0
4A40
4A40
4180
ENDCHAR
STARTCHAR char0x4F98
ENCODING 20376
SWIDTH 1200 0
DWIDTH 12 0
BBX 11 11 0 -1
BITMAP
1100
2FE0
2820
2040
6F80
A100
21E0
3F00
2100
2120
21E0
ENDCHAR
STARTCHAR char0x4F9B
ENCODING 20379
SWIDTH 1200 0
DWIDTH 12 0
BBX 11 11 0 -1
BITMAP
1480
2480
2480
3FE0
6480
E480
3FE0
2000
2480
2C40
3820
ENDCHAR
STARTCHAR char0x4F9D
ENCODING 20381
SWIDTH 1200 0
DWIDTH 12 0
BBX 11 11 0 -1
BITMAP
1100
2100
2FE0
2200
6340
A560
2C80
3480
2540
2640
3820
ENDCHAR
STARTCHAR char0x4FAE
ENCODING 20398
SWIDTH 1200 0
DWIDTH 12 0
BBX 11 12 0 -2
BITMAP
1400
2FE0
2800
77C0
6640
A940
3FE0
2A40
2940
2FE0
2840
2180
ENDCHAR
STARTCHAR char0x4FAF
ENCODING 20399
SWIDTH 1200 0
DWIDTH 12 0
BBX 11 12 0 -2
BITMAP
2F80
2080
2080
5FE0
4400
CFC0
5900
5FE0
4300
4480
5860
4000
ENDCHAR
STARTCHAR char0x4FB5
ENCODING 20405
SWIDTH 1200 0
DWIDTH 12 0
BBX 11 12 0 -2
BITMAP
2FC0
2040
3FE0
6040
6F80
BFE0
30A0
37E0
2280
2100
2EC0
3020
ENDCHAR
STARTCHAR char0x4FB6
ENCODING 20406
SWIDTH 1200 0
DWIDTH 12 0
BBX 11 12 0 -2
BITMAP
1FC0
2840
2840
6840
6FC0
A100
2FE0
2820
2820
2820
2FE0
2800
ENDCHAR
STARTCHAR char0x4FBF
ENCODING 20415
SWIDTH 1200 0
DWIDTH 12 0
BBX 11 11 0 -1
BITMAP
2FE0
2100
2FE0
6920
6FE0
A920
2FE0
2900
2600
2300
3CE0
ENDCHAR
STARTCHAR char0x4FC2
ENCODING 20418
SWIDTH 1200 0
DWIDTH 12 0
BBX 11 12 0 -2
BITMAP
1040
2F80
2B80
26C0
6340
A240
3FE0
2120
25C0
2940
3120
2000
ENDCHAR
STARTCHAR char0x4FC3
ENCODING 20419
SWIDTH 1200 0
DWIDTH 12 0
BBX 11 12 0 -2
BITMAP
3FC0
2840
2840
6840
6FC0
E900
25E0
2900
2900
2D00
33E0
2000
ENDCHAR
STARTCHAR char0x4FC4
ENCODING 20420
SWIDTH 1200 0
DWIDTH 12 0
BBX 11 12 0 -2
BITMAP
2380
3CC0
24A0
7FE0
6480
A4A0
A6C0
3CC0
2480
25A0
2E60
2000
ENDCHAR
STARTCHAR char0x4FC9
ENCODING 20425
SWIDTH 1200 0
DWIDTH 12 0
BBX 11 12 0 -2
BITMAP
3FE0
2200
2FC0
2240
6440
FFE0
A000
2FC0
2840
2840
2FC0
2800
ENDCHAR
STARTCHAR char0x4FCA
ENCODING 20426
SWIDTH 1200 0
DWIDTH 12 0
BBX 11 12 0 -2
BITMAP
1200
24C0
2FE0
22C0
64E0
BA00
27C0
2E80
2B00
2300
2CC0
0060
ENDCHAR
STARTCHAR char0x4FCE
ENCODING 20430
SWIDTH 1200 0
DWIDTH 12 0
BBX 11 11 0 -1
BITMAP
13C0
1240
3240
3240
4BC0
9240
1240
33C0
3240
4A40
CFE0
ENDCHAR
STARTCHAR char0x4FD1
ENCODING 20433
SWIDTH 1200 0
DWIDTH 12 0
BBX 11 11 0 -1
BITMAP
1040
2780
2300
2180
6F60
A920
2FE0
2920
2FE0
2920
29E0
ENDCHAR
STARTCHAR char0x4FD3
ENCODING 20435
SWIDTH 1200 0
DWIDTH 12 0
BBX 11 12 0 -2
BITMAP
1000
2FE0
2540
2A80
6A80
E540
A000
2FE0
2100
2100
3FE0
2000
ENDCHAR
STARTCHAR char0x4FD4
ENCODING 20436
SWIDTH 1200 0
DWIDTH 12 0
BBX 11 12 0 -2
BITMAP
17C0
2440
2440
27C0
6440
67C0
A440
27C0
2280
24A0
2CE0
3000
ENDCHAR
STARTCHAR char0x4FD7
ENCODING 20439
SWIDTH 1200 0
DWIDTH 12 0
BBX 11 11 0 -1
BITMAP
3280
2440
2960
3300
6280
E440
3FE0
2840
2840
2840
2FC0
ENDCHAR
STARTCHAR char0x4FDA
ENCODING 20442
SWIDTH 1200 0
DWIDTH 12 0
BBX 11 12 0 -2
BITMAP
1FE0
2920
2920
2FE0
6920
6FE0
A100
2100
2FE0
2100
3FE0
2000
ENDCHAR
STARTCHAR char0x4FDD
ENCODING 20445
SWIDTH 1200 0
DWIDTH 12 0
BBX 11 12 0 -2
BITMAP
1FC0
2840
2840
2840
6FC0
E100
3FE0
2300
2580
2940
3120
2100
ENDCHAR
STARTCHAR char0x4FDF
ENCODING 20447
SWIDTH 1200 0
DWIDTH 12 0
BBX 11 12 0 -2
BITMAP
3280
2480
2FC0
6460
67C0
A900
A900
3FE0
2300
2680
2C60
3000
ENDCHAR
STARTCHAR char0x4FE0
ENCODING 20448
SWIDTH 1200 0
DWIDTH 12 0
BBX 11 12 0 -2
BITMAP
2100
2100
3FE0
2540
6940
EDC0
3FA0
3300
2280
24C0
3860
0020
ENDCHAR
STARTCHAR char0x4FE1
ENCODING 20449
SWIDTH 1200 0
DWIDTH 12 0
BBX 11 12 0 -2
BITMAP
3FC0
2000
2FE0
2000
6FC0
EFC0
A000
2FC0
2840
2840
2FC0
2000
ENDCHAR
STARTCHAR char0x4FEE
ENCODING 20462
SWIDTH 1200 0
DWIDTH 12 0
BBX 11 12 0 -2
BITMAP
3200
23E0
36C0
3980
7380
FD60
3380
34C0
3360
3480
2300
0C00
ENDCHAR
STARTCHAR char0x4FEF
ENCODING 20463
SWIDTH 1200 0
DWIDTH 12 0
BBX 11 12 0 -2
BITMAP
3100
2FE0
2A40
6A40
6BE0
AE40
2B40
32C0
3240
3240
3240
2180
ENDCHAR
STARTCHAR char0x4FF1
ENCODING 20465
SWIDTH 1200 0
DWIDTH 12 0
BBX 11 12 0 -2
BITMAP
1FC0
2840
2FC0
2840
6FC0
A840
2FC0
2840
3FE0
2480
2840
3060
ENDCHAR
STARTCHAR char0x4FF3
ENCODING 20467
SWIDTH 1200 0
DWIDTH 12 0
BBX 11 11 0 -1
BITMAP
1280
2280
3EE0
2280
6280
AEE0
2480
3CE0
2480
2480
3880
ENDCHAR
STARTCHAR char0x4FF5
ENCODING 20469
SWIDTH 1200 0
DWIDTH 12 0
BBX 11 11 0 -1
BITMAP
2300
3FE0
2100
6FC0
6100
BFE0
2740
2D80
3480
2540
2E20
ENDCHAR
STARTCHAR char0x4FF8
ENCODING 20472
SWIDTH 1200 0
DWIDTH 12 0
BBX 11 12 0 -2
BITMAP
1200
3FC0
2200
2FC0
7FE0
E480
2B40
37A0
2200
3FE0
2200
2200
ENDCHAR
STARTCHAR char0x4FFA
ENCODING 20474
SWIDTH 1200 0
DWIDTH 12 0
BBX 11 11 0 -1
BITMAP
2200
3FE0
2580
2680
7FE0
EA40
AFC0
2A40
2FC0
2A20
23E0
ENDCHAR
STARTCHAR char0x5002
ENCODING 20482
SWIDTH 1200 0
DWIDTH 12 0
BBX 11 11 0 -1
BITMAP
1440
2440
2880
7FE0
6480
A680
2FE0
3480
2880
2880
3880
ENDCHAR
STARTCHAR char0x5006
ENCODING 20486
SWIDTH 1200 0
DWIDTH 12 0
BBX 11 12 0 -2
BITMAP
2000
3FE0
2100
5FE0
5120
D5A0
55A0
55A0
5B60
5120
51E0
0100
ENDCHAR
STARTCHAR char0x5009
ENCODING 20489
SWIDTH 1200 0
DWIDTH 12 0
BBX 11 11 0 -1
BITMAP
0400
0B00
3180
EE60
3F80
3F80
2080
3F80
3FC0
6040
BFC0
ENDCHAR
STARTCHAR char0x500B
ENCODING 20491
SWIDTH 1200 0
DWIDTH 12 0
BBX 11 11 0 -1
BITMAP
1FE0
2820
2920
2FE0
6920
EFA0
2CA0
2CA0
2FA0
2820
2FE0
ENDCHAR
STARTCHAR char0x500D
ENCODING 20493
SWIDTH 1200 0
DWIDTH 12 0
BBX 11 12 0 -2
BITMAP
1300
2100
2EE0
2480
6480
BB60
2000
2FC0
2840
2840
2FC0
0800
ENDCHAR
STARTCHAR char0x5011
ENCODING 20497
SWIDTH 1200 0
DWIDTH 12 0
BBX 11 11 0 -1
BITMAP
3FE0
2B20
2B20
2FE0
6B20
EFE0
A820
2820
2820
2820
2840
ENDCHAR
STARTCHAR char0x5012
ENCODING 20498
SWIDTH 1200 0
DWIDTH 12 0
BBX 11 11 0 -1
BITMAP
2020
3FA0
2AA0
6AA0
7DA0
A4A0
3EA0
24A0
24A0
3F20
20E0
ENDCHAR
STARTCHAR char0x5016
ENCODING 20502
SWIDTH 1200 0
DWIDTH 12 0
BBX 11 12 0 -2
BITMAP
2100
2FC0
2100
7FE0
6480
A480
3FE0
2100
2FE0
2100
2100
2100
ENDCHAR
STARTCHAR char0x5019
ENCODING 20505
SWIDTH 1200 0
DWIDTH 12 0
BBX 11 12 0 -2
BITMAP
27C0
2040
3040
5FA0
5200
D7C0
5500
5FE0
5180
5280
4C60
4000
ENDCHAR
STARTCHAR char0x501A
ENCODING 20506
SWIDTH 1200 0
DWIDTH 12 0
BBX 11 12 0 -2
BITMAP
1100
2FE0
2300
26C0
6860
BFE0
2F40
2940
2F40
2940
20C0
2000
ENDCHAR
STARTCHAR char0x501C
ENCODING 20508
SWIDTH 1200 0
DWIDTH 12 0
BBX 11 12 0 -2
BITMAP
3000
2FE0
2BA0
2920
6FA0
E820
ABA0
2AA0
2BA0
3220
30C0
2000
ENDCHAR
STARTCHAR char0x501E
ENCODING 20510
SWIDTH 1200 0
DWIDTH 12 0
BBX 11 12 0 -2
BITMAP
3100
2100
2EE0
2FC0
6840
E840
AFC0
2100
25C0
2940
3920
2600
ENDCHAR
STARTCHAR char0x501F
ENCODING 20511
SWIDTH 1200 0
DWIDTH 12 0
BBX 11 12 0 -2
BITMAP
3480
2480
2FE0
6480
7FE0
A000
2FC0
2840
2FC0
2840
2FC0
0800
ENDCHAR
STARTCHAR char0x5021
ENCODING 20513
SWIDTH 1200 0
DWIDTH 12 0
BBX 11 12 0 -2
BITMAP
3FC0
2840
2FC0
6840
6FC0
A000
2FE0
2820
2FE0
2820
2FE0
2800
ENDCHAR
STARTCHAR char0x5023
ENCODING 20515
SWIDTH 1200 0
DWIDTH 12 0
BBX 11 11 0 -1
BITMAP
1480
2480
3E80
68E0
6F40
AB40
2AC0
2AC0
2AC0
32C0
3F20
ENDCHAR
STARTCHAR char0x5024
ENCODING 20516
SWIDTH 1200 0
DWIDTH 12 0
BBX 11 11 0 -1
BITMAP
3100
2FE0
2100
27C0
6C40
AFC0
2C40
2FC0
2FC0
2C40
2FE0
ENDCHAR
STARTCHAR char0x5026
ENCODING 20518
SWIDTH 1200 0
DWIDTH 12 0
BBX 11 12 0 -2
BITMAP
1680
2A40
3FE0
2300
7FE0
AC80
2FC0
34A0
2780
2440
27C0
2000
ENDCHAR
STARTCHAR char0x5027
ENCODING 20519
SWIDTH 1200 0
DWIDTH 12 0
BBX 11 12 0 -2
BITMAP
2100
2FE0
2820
6820
6FE0
A000
2FE0
2580
2940
2920
3540
2200
ENDCHAR
STARTCHAR char0x5028
ENCODING 20520
SWIDTH 1200 0
DWIDTH 12 0
BBX 11 12 0 -2
BITMAP
2FE0
2820
2820
4FC0
4900
CFE0
4900
4FE0
5420
5420
57E0
4400
ENDCHAR
STARTCHAR char0x502A
ENCODING 20522
SWIDTH 1200 0
DWIDTH 12 0
BBX 11 12 0 -2
BITMAP
2200
2DC0
2840
6FC0
6840
AFC0
AAC0
2280
2480
24A0
38E0
2000
ENDCHAR
STARTCHAR char0x502B
ENCODING 20523
SWIDTH 1200 0
DWIDTH 12 0
BBX 11 11 0 -1
BITMAP
1300
2300
2480
2840
77A0
AFC0
2D40
2D40
2FC0
2D40
2DC0
ENDCHAR
STARTCHAR char0x502C
ENCODING 20524
SWIDTH 1200 0
DWIDTH 12 0
BBX 11 11 0 -1
BITMAP
1300
23E0
2200
2FC0
6840
EFC0
2FC0
2100
3FE0
2100
2100
ENDCHAR
STARTCHAR char0x502D
ENCODING 20525
SWIDTH 1200 0
DWIDTH 12 0
BBX 11 12 0 -2
BITMAP
2080
2F40
2200
7FC0
6680
BA60
2200
3FE0
2C80
2B00
26C0
3820
ENDCHAR
STARTCHAR char0x503B
ENCODING 20539
SWIDTH 1200 0
DWIDTH 12 0
BBX 11 11 0 -1
BITMAP
3FE0
2AA0
2AC0
6EC0
6AC0
AAA0
2EA0
2AA0
2FA0
32C0
2280
ENDCHAR
STARTCHAR char0x5043
ENCODING 20547
SWIDTH 1200 0
DWIDTH 12 0
BBX 11 12 0 -2
BITMAP
2FE0
2800
2FC0
2FC0
6C40
EFC0
2FE0
2E80
2980
2E40
2FE0
2000
ENDCHAR
STARTCHAR char0x5047
ENCODING 20551
SWIDTH 1200 0
DWIDTH 12 0
BBX 11 11 0 -1
BITMAP
3FE0
2A20
2A20
6FE0
6800
A9E0
2F20
2940
2E80
29C0
2A20
ENDCHAR
STARTCHAR char0x5048
ENCODING 20552
SWIDTH 1200 0
DWIDTH 12 0
BBX 11 11 0 -1
BITMAP
1FC0
2840
2FC0
6840
6FC0
A400
2BE0
3B20
2CA0
2FE0
28C0
ENDCHAR
STARTCHAR char0x5049
ENCODING 20553
SWIDTH 1200 0
DWIDTH 12 0
BBX 11 11 0 -1
BITMAP
1200
2FC0
2440
3FE0
6FC0
A840
2FC0
2100
2FC0
3FE0
2100
ENDCHAR
STARTCHAR char0x504F
ENCODING 20559
SWIDTH 1200 0
DWIDTH 12 0
BBX 11 11 0 -1
BITMAP
20C0
2F20
2FE0
6820
6FE0
A800
2FE0
2AA0
3FE0
2AA0
2AE0
ENDCHAR
STARTCHAR char0x5055
ENCODING 20565
SWIDTH 1200 0
DWIDTH 12 0
BBX 11 11 0 -1
BITMAP
2980
2F40
2980
6920
7EE0
A200
2FC0
2840
2FC0
2840
2FC0
ENDCHAR
STARTCHAR char0x505A
ENCODING 20570
SWIDTH 1200 0
DWIDTH 12 0
BBX 11 12 0 -2
BITMAP
3C80
2880
3FE0
6940
6B40
BF40
3340
32C0
3E80
32C0
2120
0220
ENDCHAR
STARTCHAR char0x505C
ENCODING 20572
SWIDTH 1200 0
DWIDTH 12 0
BBX 11 11 0 -1
BITMAP
1100
2FE0
2000
6FC0
6FC0
A000
3FE0
37E0
3100
2100
2700
ENDCHAR
STARTCHAR char0x5065
ENCODING 20581
SWIDTH 1200 0
DWIDTH 12 0
BBX 11 12 0 -2
BITMAP
3100
3BC0
2D40
6BE0
73C0
B900
2FC0
3900
3FE0
3900
37E0
2000
ENDCHAR
STARTCHAR char0x5074
ENCODING 20596
SWIDTH 1200 0
DWIDTH 12 0
BBX 11 12 0 -2
BITMAP
2060
2EA0
32A0
6EA0
72A0
AEA0
32A0
2EA0
32A0
2E20
3A60
21C0
ENDCHAR
STARTCHAR char0x5075
ENCODING 20597
SWIDTH 1200 0
DWIDTH 12 0
BBX 11 11 0 -1
BITMAP
1100
21E0
2100
6FC0
6840
AFC0
2FC0
2840
2FC0
2480
3E60
ENDCHAR
STARTCHAR char0x5076
ENCODING 20598
SWIDTH 1200 0
DWIDTH 12 0
BBX 11 12 0 -2
BITMAP
1FE0
2920
2FE0
6920
6FE0
A100
2FE0
29A0
2BA0
2CE0
28E0
2000
ENDCHAR
STARTCHAR char0x5078
ENCODING 20600
SWIDTH 1200 0
DWIDTH 12 0
BBX 11 12 0 -2
BITMAP
3700
2300
2680
2BE0
7000
EEA0
2EC0
2B40
2EC0
2AA0
2EA0
2000
ENDCHAR
STARTCHAR char0x5080
ENCODING 20608
SWIDTH 1200 0
DWIDTH 12 0
BBX 11 11 0 -1
BITMAP
1100
2FE0
2920
6FE0
6920
AFE0
2340
25A0
25E0
2520
39E0
ENDCHAR
STARTCHAR char0x5085
ENCODING 20613
SWIDTH 1200 0
DWIDTH 12 0
BBX 11 11 0 -1
BITMAP
3380
2FE0
2100
2FC0
6FC0
A940
2FC0
2080
3FE0
2480
2780
ENDCHAR
STARTCHAR char0x508D
ENCODING 20621
SWIDTH 1200 0
DWIDTH 12 0
BBX 11 12 0 -2
BITMAP
3300
2FE0
2480
6480
7B60
B220
3FE0
2200
23C0
2440
2A40
1180
ENDCHAR
STARTCHAR char0x5091
ENCODING 20625
SWIDTH 1200 0
DWIDTH 12 0
BBX 11 12 0 -2
BITMAP
3840
2FE0
2A40
7D40
77E0
A840
3140
3FE0
2300
2580
3960
2100
ENDCHAR
STARTCHAR char0x5098
ENCODING 20632
SWIDTH 1200 0
DWIDTH 12 0
BBX 11 12 0 -2
BITMAP
0600
0B00
3080
D4E0
1580
7EC0
1480
6F40
0400
FFE0
0400
0400
ENDCHAR
STARTCHAR char0x5099
ENCODING 20633
SWIDTH 1200 0
DWIDTH 12 0
BBX 11 12 0 -2
BITMAP
3480
3FE0
2480
6FE0
7000
B7C0
B540
37C0
37C0
3540
3540
2080
ENDCHAR
STARTCHAR char0x50AC
ENCODING 20652
SWIDTH 1200 0
DWIDTH 12 0
BBX 11 11 0 -1
BITMAP
3940
2940
2FC0
6580
6900
AFE0
3900
2FC0
2FC0
2900
2FE0
ENDCHAR
STARTCHAR char0x50AD
ENCODING 20653
SWIDTH 1200 0
DWIDTH 12 0
BBX 11 11 0 -1
BITMAP
3100
2FE0
2FC0
6940
6FE0
AFC0
2FC0
3540
37C0
37C0
3540
ENDCHAR
STARTCHAR char0x50B2
ENCODING 20658
SWIDTH 1200 0
DWIDTH 12 0
BBX 11 12 0 -2
BITMAP
2480
3E80
2480
7FE0
6940
BF40
28C0
2EC0
2AC0
2AC0
3720
2000
ENDCHAR
STARTCHAR char0x50B3
ENCODING 20659
SWIDTH 1200 0
DWIDTH 12 0
BBX 11 12 0 -2
BITMAP
1100
2FE0
2FC0
6940
6FC0
AFC0
2140
3EE0
3FE0
2440
2580
2000
ENDCHAR
STARTCHAR char0x50B5
ENCODING 20661
SWIDTH 1200 0
DWIDTH 12 0
BBX 11 12 0 -2
BITMAP
3100
2FE0
2FC0
6100
7EE0
AFC0
2FC0
2840
2FC0
2FC0
2CC0
1020
ENDCHAR
STARTCHAR char0x50B7
ENCODING 20663
SWIDTH 1200 0
DWIDTH 12 0
BBX 11 12 0 -2
BITMAP
3400
2FE0
2FC0
3440
67C0
A7C0
3FE0
2400
2BE0
3540
2A40
2080
ENDCHAR
STARTCHAR char0x50BE
ENCODING 20670
SWIDTH 1200 0
DWIDTH 12 0
BBX 11 12 0 -2
BITMAP
27E0
3080
33C0
7640
7BC0
B240
33C0
3640
3FC0
23C0
2660
2000
ENDCHAR
STARTCHAR char0x50C5
ENCODING 20677
SWIDTH 1200 0
DWIDTH 12 0
BBX 11 11 0 -1
BITMAP
3480
3FE0
2480
6780
6FC0
A940
2780
2FE0
2100
2FC0
3FE0
ENDCHAR
STARTCHAR char0x50C9
ENCODING 20681
SWIDTH 1200 0
DWIDTH 12 0
BBX 10 11 1 -1
BITMAP
0C00
1400
3300
DEC0
FF80
4C80
4C80
7F80
2100
7380
CCC0
ENDCHAR
STARTCHAR char0x50CA
ENCODING 20682
SWIDTH 1200 0
DWIDTH 12 0
BBX 11 12 0 -2
BITMAP
1FE0
2280
2FE0
2AA0
6FE0
BFE0
2480
2FC0
38A0
2B20
2FC0
2000
ENDCHAR
STARTCHAR char0x50CF
ENCODING 20687
SWIDTH 1200 0
DWIDTH 12 0
BBX 11 11 0 -1
BITMAP
1600
2580
2FC0
3940
6FC0
A300
2660
3B80
2F80
34C0
2B20
ENDCHAR
STARTCHAR char0x50D1
ENCODING 20689
SWIDTH 1200 0
DWIDTH 12 0
BBX 11 12 0 -2
BITMAP
31C0
2E00
3FE0
6480
6FC0
B7A0
2000
2FC0
2FC0
2CC0
2FC0
2080
ENDCHAR
STARTCHAR char0x50D5
ENCODING 20693
SWIDTH 1200 0
DWIDTH 12 0
BBX 11 12 0 -2
BITMAP
1340
2B40
2700
3CE0
6FC0
6200
AFC0
3FE0
2300
2480
3860
2000
ENDCHAR
STARTCHAR char0x50D6
ENCODING 20694
SWIDTH 1200 0
DWIDTH 12 0
BBX 11 11 0 -1
BITMAP
2300
3DE0
2FC0
6000
6FC0
AFC0
2480
3B60
2FC0
2840
2FC0
ENDCHAR
STARTCHAR char0x50DA
ENCODING 20698
SWIDTH 1200 0
DWIDTH 12 0
BBX 11 12 0 -2
BITMAP
1300
2FE0
2BA0
6CC0
7F60
A460
27C0
27C0
2580
2940
3120
2600
ENDCHAR
STARTCHAR char0x50DE
ENCODING 20702
SWIDTH 1200 0
DWIDTH 12 0
BBX 11 11 0 -1
BITMAP
30C0
2F40
2940
6F80
6880
AFC0
2840
2FE0
2BA0
3F60
34E0
ENDCHAR
STARTCHAR char0x50E5
ENCODING 20709
SWIDTH 1200 0
DWIDTH 12 0
BBX 11 12 0 -2
BITMAP
2100
2FC0
2100
6EE0
6FE0
A480
3FE0
2000
2FE0
2540
29E0
3000
ENDCHAR
STARTCHAR char0x50E7
ENCODING 20711
SWIDTH 1200 0
DWIDTH 12 0
BBX 11 11 0 -1
BITMAP
3780
24C0
2860
3FE0
6DC0
A940
A680
2FC0
2840
2FC0
2FC0
ENDCHAR
STARTCHAR char0x50ED
ENCODING 20717
SWIDTH 1200 0
DWIDTH 12 0
BBX 11 12 0 -2
BITMAP
3FE0
3540
3FE0
6480
6FE0
B560
2000
2FC0
2FC0
2840
2FC0
2800
ENDCHAR
STARTCHAR char0x50F9
ENCODING 20729
SWIDTH 1200 0
DWIDTH 12 0
BBX 11 12 0 -2
BITMAP
3FE0
2280
3FE0
7FE0
6000
AFC0
2FC0
2FC0
2840
2FC0
2C40
3020
ENDCHAR
STARTCHAR char0x50FB
ENCODING 20731
SWIDTH 1200 0
DWIDTH 12 0
BBX 11 12 0 -2
BITMAP
30C0
3E80
33E0
7340
7EC0
B1E0
BE80
3BE0
3A80
2A80
2E80
2080
ENDCHAR
STARTCHAR char0x50FF
ENCODING 20735
SWIDTH 1200 0
DWIDTH 12 0
BBX 11 12 0 -2
BITMAP
2300
3FE0
34A0
5FE0
4FC0
C480
5FE0
4E80
5260
4F80
5FE0
4000
ENDCHAR
STARTCHAR char0x5100
ENCODING 20736
SWIDTH 1200 0
DWIDTH 12 0
BBX 11 12 0 -2
BITMAP
3480
3FE0
2200
6FC0
7FE0
A740
3D00
3FE0
2EC0
34C0
2F60
2000
ENDCHAR
STARTCHAR char0x5101
ENCODING 20737
SWIDTH 1200 0
DWIDTH 12 0
BBX 11 11 0 -1
BITMAP
3500
2FE0
3900
6FE0
6FE0
A900
2FE0
2EE0
2AA0
2BA0
28E0
ENDCHAR
STARTCHAR char0x5104
ENCODING 20740
SWIDTH 1200 0
DWIDTH 12 0
BBX 11 11 0 -1
BITMAP
2300
2FC0
2480
7FE0
6FC0
A840
2FC0
2FC0
2E40
35A0
37C0
ENDCHAR
STARTCHAR char0x5106
ENCODING 20742
SWIDTH 1200 0
DWIDTH 12 0
BBX 11 12 0 -2
BITMAP
2A80
2A80
3F80
53E0
5FA0
D2C0
7EC0
56C0
5EC0
42C0
4F20
4200
ENDCHAR
STARTCHAR char0x5109
ENCODING 20745
SWIDTH 1200 0
DWIDTH 12 0
BBX 11 12 0 -2
BITMAP
2200
2300
2480
7FE0
7000
AFC0
2B40
2FC0
2480
2CC0
3320
2000
ENDCHAR
STARTCHAR char0x5112
ENCODING 20754
SWIDTH 1200 0
DWIDTH 12 0
BBX 11 11 0 -1
BITMAP
3FC0
2200
3FE0
5EA0
5220
CE80
5FE0
4200
5DC0
5540
55C0
ENDCHAR
STARTCHAR char0x511F
ENCODING 20767
SWIDTH 1200 0
DWIDTH 12 0
BBX 11 12 0 -2
BITMAP
1A40
3FE0
3020
37A0
6780
AFC0
2FC0
2840
2FC0
2FC0
3860
2000
ENDCHAR
STARTCHAR char0x5121
ENCODING 20769
SWIDTH 1200 0
DWIDTH 12 0
BBX 11 11 0 -1
BITMAP
3FC0
2A40
2FC0
6A40
6FC0
A000
3FE0
3BA0
3FE0
3BA0
3FE0
ENDCHAR
STARTCHAR char0x512A
ENCODING 20778
SWIDTH 1200 0
DWIDTH 12 0
BBX 11 11 0 -1
BITMAP
2FE0
2100
2EC0
6940
6EC0
BFE0
3DE0
2BA0
27C0
3A80
3FE0
ENDCHAR
STARTCHAR char0x5132
ENCODING 20786
SWIDTH 1200 0
DWIDTH 12 0
BBX 11 12 0 -2
BITMAP
2080
3CA0
3DC0
60C0
7FE0
A0C0
3DE0
2320
3DE0
3520
3DE0
2100
ENDCHAR
STARTCHAR char0x5137
ENCODING 20791
SWIDTH 1200 0
DWIDTH 12 0
BBX 11 12 0 -2
BITMAP
3FE0
2000
2FC0
6FC0
6FE0
AB00
2FC0
2FC0
2D40
3680
36A0
2840
ENDCHAR
STARTCHAR char0x513A
ENCODING 20794
SWIDTH 1200 0
DWIDTH 12 0
BBX 11 11 0 -1
BITMAP
34A0
3EC0
5540
49E0
DF40
DBE0
4D40
5FE0
7F40
4D40
53E0
ENDCHAR
STARTCHAR char0x513C
ENCODING 20796
SWIDTH 1200 0
DWIDTH 12 0
BBX 11 12 0 -2
BITMAP
2FC0
2B40
2FC0
7FE0
7F80
B2E0
3FC0
36C0
3640
3A40
3FA0
0200
ENDCHAR
STARTCHAR char0x5140
ENCODING 20800
SWIDTH 1200 0
DWIDTH 12 0
BBX 10 10 1 -1
BITMAP
FF80
1400
1400
1400
1400
2400
2400
2480
4240
8180
ENDCHAR
STARTCHAR char0x5141
ENCODING 20801
SWIDTH 1200 0
DWIDTH 12 0
BBX 11 11 0 -1
BITMAP
0800
1080
1080
7FC0
0160
0900
0900
0900
1140
1120
E1E0
ENDCHAR
STARTCHAR char0x5143
ENCODING 20803
SWIDTH 1200 0
DWIDTH 12 0
BBX 10 10 1 -1
BITMAP
7F00
0000
0000
FFC0
1400
1400
2400
2480
4480
8380
ENDCHAR
STARTCHAR char0x5144
ENCODING 20804
SWIDTH 1200 0
DWIDTH 12 0
BBX 10 11 1 -1
BITMAP
7F80
4080
4080
4080
4080
7F80
5400
1400
1400
2440
C7C0
ENDCHAR
STARTCHAR char0x5145
ENCODING 20805
SWIDTH 1200 0
DWIDTH 12 0
BBX 10 11 1 -1
BITMAP
0800
0800
F7C0
1100
2080
FF40
1400
1400
1480
2440
C7C0
ENDCHAR
STARTCHAR char0x5146
ENCODING 20806
SWIDTH 1200 0
DWIDTH 12 0
BBX 11 12 0 -2
BITMAP
0B00
0A40
6A40
2A80
3A00
0B00
7AC0
0A60
1200
1220
61E0
8000
ENDCHAR
STARTCHAR char0x5147
ENCODING 20807
SWIDTH 1200 0
DWIDTH 12 0
BBX 10 11 1 -1
BITMAP
2200
D480
4C80
5E80
6280
7F80
5480
1400
1400
2440
C7C0
ENDCHAR
STARTCHAR char0x5148
ENCODING 20808
SWIDTH 1200 0
DWIDTH 12 0
BBX 11 11 0 -1
BITMAP
1400
1400
3FC0
2400
4400
7FE0
0900
0900
1900
1120
E1E0
ENDCHAR
STARTCHAR char0x5149
ENCODING 20809
SWIDTH 1200 0
DWIDTH 12 0
BBX 11 11 0 -1
BITMAP
0400
2440
1480
1500
0400
7BE0
0900
0900
1140
1120
E1E0
ENDCHAR
STARTCHAR char0x514B
ENCODING 20811
SWIDTH 1200 0
DWIDTH 12 0
BBX 11 11 0 -1
BITMAP
0400
FFE0
0400
0400
3BC0
2040
3FC0
2A40
0A00
1A20
73E0
ENDCHAR
STARTCHAR char0x514C
ENCODING 20812
SWIDTH 1200 0
DWIDTH 12 0
BBX 11 11 0 -1
BITMAP
1700
1100
2080
7FC0
A0E0
2080
2080
1F00
0A00
1220
E3E0
ENDCHAR
STARTCHAR char0x514D
ENCODING 20813
SWIDTH 1200 0
DWIDTH 12 0
BBX 11 11 0 -1
BITMAP
0100
7F80
1100
2200
FFC0
2240
2440
3FC0
0600
0E20
77E0
ENDCHAR
STARTCHAR char0x514E
ENCODING 20814
SWIDTH 1200 0
DWIDTH 12 0
BBX 11 11 0 -1
BITMAP
3FC0
08C0
1880
2300
5CC0
4440
4440
7FC0
0B80
1AA0
E3E0
ENDCHAR
STARTCHAR char0x5152
ENCODING 20818
SWIDTH 1200 0
DWIDTH 12 0
BBX 11 12 0 -2
BITMAP
5800
63C0
4040
7BC0
4040
7FC0
4A40
0A00
1200
1220
63E0
8000
ENDCHAR
STARTCHAR char0x515C
ENCODING 20828
SWIDTH 1200 0
DWIDTH 12 0
BBX 11 11 0 -1
BITMAP
0400
7FC0
4940
4F40
4940
4940
6FC0
0A00
0A00
1220
E1E0
ENDCHAR
STARTCHAR char0x5162
ENCODING 20834
SWIDTH 1200 0
DWIDTH 12 0
BBX 11 11 0 -1
BITMAP
3180
7BE0
2100
7BC0
4A40
4A40
3180
3180
3680
5EA0
F6E0
ENDCHAR
STARTCHAR char0x5165
ENCODING 20837
SWIDTH 1200 0
DWIDTH 12 0
BBX 10 11 1 -1
BITMAP
0800
3C00
0800
0C00
0C00
1400
1200
2200
2100
4080
8040
ENDCHAR
STARTCHAR char0x5167
ENCODING 20839
SWIDTH 1200 0
DWIDTH 12 0
BBX 10 11 1 -1
BITMAP
1C00
0800
0800
FFC0
8C40
9440
B240
E1C0
8040
8040
81C0
ENDCHAR
STARTCHAR char0x5168
ENCODING 20840
SWIDTH 1200 0
DWIDTH 12 0
BBX 11 11 0 -1
BITMAP
1C00
0600
0A00
1100
30C0
FFE0
0400
0400
3F80
0400
7FE0
ENDCHAR
STARTCHAR char0x5169
ENCODING 20841
SWIDTH 1200 0
DWIDTH 12 0
BBX 11 10 0 -1
BITMAP
FFE0
0400
7FC0
4440
5540
5540
5DC0
6DC0
4640
44C0
ENDCHAR
STARTCHAR char0x516A
ENCODING 20842
SWIDTH 1200 0
DWIDTH 12 0
BBX 11 11 0 -1
BITMAP
1C00
0A00
1900
3FC0
C020
3D40
3D40
2580
3F80
2540
2DC0
ENDCHAR
STARTCHAR char0x516B
ENCODING 20843
SWIDTH 1200 0
DWIDTH 12 0
BBX 11 11 0 -1
BITMAP
0F00
0100
1100
1100
1100
1100
1080
2080
2040
4040
C020
ENDCHAR
STARTCHAR char0x516C
ENCODING 20844
SWIDTH 1200 0
DWIDTH 12 0
BBX 11 11 0 -1
BITMAP
0F00
1100
1080
2080
4840
C420
0800
0900
1080
1780
7840
ENDCHAR
STARTCHAR char0x516D
ENCODING 20845
SWIDTH 1200 0
DWIDTH 12 0
BBX 10 11 1 -1
BITMAP
0800
0800
FFC0
0000
0000
2200
3200
2100
4100
C080
80C0
ENDCHAR
STARTCHAR char0x516E
ENCODING 20846
SWIDTH 1200 0
DWIDTH 12 0
BBX 11 11 0 -1
BITMAP
2F00
1080
20C0
7FE0
D000
1000
1FC0
2040
0040
0080
0380
ENDCHAR
STARTCHAR char0x5171
ENCODING 20849
SWIDTH 1200 0
DWIDTH 12 0
BBX 11 12 0 -2
BITMAP
1900
1100
1100
7FE0
1100
1100
1100
FFE0
1100
3080
6040
8060
ENDCHAR
STARTCHAR char0x5175
ENCODING 20853
SWIDTH 1200 0
DWIDTH 12 0
BBX 11 12 0 -2
BITMAP
01C0
3E00
2000
3FC0
2100
2100
2100
FFE0
1100
1880
6060
0040
ENDCHAR
STARTCHAR char0x5176
ENCODING 20854
SWIDTH 1200 0
DWIDTH 12 0
BBX 10 11 1 -1
BITMAP
2100
2100
FFC0
2100
3F00
2100
3F00
2100
DEC0
2100
C0C0
ENDCHAR
STARTCHAR char0x5177
ENCODING 20855
SWIDTH 1200 0
DWIDTH 12 0
BBX 11 12 0 -2
BITMAP
3F80
2080
3F80
2080
3F80
2080
3F80
2080
FF60
3080
6040
8060
ENDCHAR
STARTCHAR char0x5178
ENCODING 20856
SWIDTH 1200 0
DWIDTH 12 0
BBX 11 11 0 -1
BITMAP
0B00
0A00
3FC0
2A40
2A40
3FC0
2A40
2A40
D5A0
1180
6060
ENDCHAR
STARTCHAR char0x517C
ENCODING 20860
SWIDTH 1200 0
DWIDTH 12 0
BBX 11 12 0 -2
BITMAP
1F00
3080
7FE0
0A00
7FC0
0A40
FFE0
7FC0
1B00
3A80
4A60
0A00
ENDCHAR
STARTCHAR char0x5180
ENCODING 20864
SWIDTH 1200 0
DWIDTH 12 0
BBX 11 12 0 -2
BITMAP
0A40
7BC0
7BE0
3FC0
2440
3FC0
3FC0
7FC0
0900
FFE0
30C0
4060
ENDCHAR
STARTCHAR char0x5186
ENCODING 20870
SWIDTH 1200 0
DWIDTH 12 0
BBX 9 12 1 -2
BITMAP
FF80
8880
8880
8880
8880
FF80
8080
8080
8080
8080
8280
8100
ENDCHAR
STARTCHAR char0x518A
ENCODING 20874
SWIDTH 1200 0
DWIDTH 12 0
BBX 11 11 0 -1
BITMAP
3FC0
2940
2940
2940
2940
FFE0
2940
2940
2940
2940
29C0
ENDCHAR
STARTCHAR char0x518D
ENCODING 20877
SWIDTH 1200 0
DWIDTH 12 0
BBX 11 10 0 -1
BITMAP
7FE0
0400
3FC0
2440
3FC0
2440
FFE0
2040
2040
21C0
ENDCHAR
STARTCHAR char0x5192
ENCODING 20882
SWIDTH 1200 0
DWIDTH 12 0
BBX 10 12 1 -2
BITMAP
FFC0
8040
FF40
8040
FF40
7F80
4080
7F80
7F80
4080
7F80
4000
ENDCHAR
STARTCHAR char0x5195
ENCODING 20885
SWIDTH 1200 0
DWIDTH 12 0
BBX 11 11 0 -1
BITMAP
3FC0
2040
3FC0
3FC0
1100
2E00
FFC0
2240
3DC0
0E20
7BE0
ENDCHAR
STARTCHAR char0x5197
ENCODING 20887
SWIDTH 1200 0
DWIDTH 12 0
BBX 11 10 0 -1
BITMAP
7FE0
4020
5F20
1100
1100
1100
1100
1120
2120
E0C0
ENDCHAR
STARTCHAR char0x51A0
ENCODING 20896
SWIDTH 1200 0
DWIDTH 12 0
BBX 11 11 0 -1
BITMAP
7FC0
4040
40C0
78C0
03E0
7C80
2A80
2980
28C0
49A0
CFC0
ENDCHAR
STARTCHAR char0x51A5
ENCODING 20901
SWIDTH 1200 0
DWIDTH 12 0
BBX 11 12 0 -2
BITMAP
7FE0
4020
7FA0
60A0
3F80
2080
1F00
0400
FBE0
1180
60C0
8060
ENDCHAR
STARTCHAR char0x51AA
ENCODING 20906
SWIDTH 1200 0
DWIDTH 12 0
BBX 11 12 0 -2
BITMAP
7FE0
4920
7FA0
3FC0
2040
3FC0
1000
FFE0
3FC0
E460
2440
0580
ENDCHAR
STARTCHAR char0x51AC
ENCODING 20908
SWIDTH 1200 0
DWIDTH 12 0
BBX 11 11 0 -1
BITMAP
0800
0F80
1080
2900
4600
0600
1980
E460
0300
0C00
0300
ENDCHAR
STARTCHAR char0x51B6
ENCODING 20918
SWIDTH 1200 0
DWIDTH 12 0
BBX 11 11 0 -1
BITMAP
0200
4280
2440
0440
1FA0
2000
3FC0
2840
4840
4840
8FC0
ENDCHAR
STARTCHAR char0x51B7
ENCODING 20919
SWIDTH 1200 0
DWIDTH 12 0
BBX 11 12 0 -2
BITMAP
4200
6500
2500
08C0
17E0
2020
3FC0
4440
4440
C440
85C0
0400
ENDCHAR
STARTCHAR char0x51BD
ENCODING 20925
SWIDTH 1200 0
DWIDTH 12 0
BBX 11 11 0 -1
BITMAP
5F60
28A0
0AA0
0FA0
0AA0
5AA0
76A0
44A0
44A0
8820
30C0
ENDCHAR
STARTCHAR char0x51C4
ENCODING 20932
SWIDTH 1200 0
DWIDTH 12 0
BBX 11 11 0 -1
BITMAP
4100
7FE0
2FC0
0140
1FE0
0FC0
2400
5FE0
4C80
CB80
1E60
ENDCHAR
STARTCHAR char0x51C6
ENCODING 20934
SWIDTH 1200 0
DWIDTH 12 0
BBX 11 11 0 -1
BITMAP
0480
4500
2900
0FE0
1900
0FE0
2900
2FE0
4900
C900
0FE0
ENDCHAR
STARTCHAR char0x51C9
ENCODING 20937
SWIDTH 1200 0
DWIDTH 12 0
BBX 11 12 0 -2
BITMAP
4100
7FE0
2000
0FC0
0840
2840
2FC0
4900
4DC0
8940
1120
0600
ENDCHAR
STARTCHAR char0x51CB
ENCODING 20939
SWIDTH 1200 0
DWIDTH 12 0
BBX 11 11 0 -1
BITMAP
4FE0
2920
2FA0
0A20
0FA0
2820
4FA0
54A0
97A0
14A0
30C0
ENDCHAR
STARTCHAR char0x51CC
ENCODING 20940
SWIDTH 1200 0
DWIDTH 12 0
BBX 11 12 0 -2
BITMAP
4100
6FC0
2100
1FE0
04A0
3AE0
2780
4CC0
5B00
8300
0CC0
3060
ENDCHAR
STARTCHAR char0x51CD
ENCODING 20941
SWIDTH 1200 0
DWIDTH 12 0
BBX 11 11 0 -1
BITMAP
0300
5FE0
2200
0FC0
0A40
2FC0
2A40
4780
4680
4A40
B220
ENDCHAR
STARTCHAR char0x51DC
ENCODING 20956
SWIDTH 1200 0
DWIDTH 12 0
BBX 11 11 0 -1
BITMAP
0100
5FE0
2FC0
0FC0
0CC0
2B40
2FC0
4FC0
5FE0
8A80
1E60
ENDCHAR
STARTCHAR char0x51DD
ENCODING 20957
SWIDTH 1200 0
DWIDTH 12 0
BBX 11 11 0 -1
BITMAP
1040
5FE0
33C0
1E80
13E0
1CC0
2980
5EE0
4A80
9780
34E0
ENDCHAR
STARTCHAR char0x51DE
ENCODING 20958
SWIDTH 1200 0
DWIDTH 12 0
BBX 11 12 0 -2
BITMAP
9E00
55C0
7540
1F40
33C0
5F00
5520
9FE0
2240
2940
4520
8000
ENDCHAR
STARTCHAR char0x51E1
ENCODING 20961
SWIDTH 1200 0
DWIDTH 12 0
BBX 12 11 0 -1
BITMAP
1F80
1080
1080
1080
1C80
1680
1280
3080
20A0
60B0
C0E0
ENDCHAR
STARTCHAR char0x51F0
ENCODING 20976
SWIDTH 1200 0
DWIDTH 12 0
BBX 11 12 0 -2
BITMAP
7FC0
4040
5F40
5140
5F40
5140
4E40
5F40
5F40
4460
BFE0
8000
ENDCHAR
STARTCHAR char0x51F1
ENCODING 20977
SWIDTH 1200 0
DWIDTH 12 0
BBX 11 11 0 -1
BITMAP
55C0
5540
7D40
0140
FD40
7D40
4540
7D40
2A40
3E60
C660
ENDCHAR
STARTCHAR char0x51F6
ENCODING 20982
SWIDTH 1200 0
DWIDTH 12 0
BBX 10 11 1 -1
BITMAP
84C0
C240
A240
9440
8C40
8C40
9240
B140
E140
8040
FFC0
ENDCHAR
STARTCHAR char0x51F8
ENCODING 20984
SWIDTH 1200 0
DWIDTH 12 0
BBX 10 11 1 -1
BITMAP
3E00
2200
2200
2200
E3C0
A240
8040
8040
8040
8040
FFC0
ENDCHAR
STARTCHAR char0x51F9
ENCODING 20985
SWIDTH 1200 0
DWIDTH 12 0
BBX 9 10 1 -1
BITMAP
F380
9280
9280
9280
9E80
8080
8080
8080
FF80
8080
ENDCHAR
STARTCHAR char0x51FA
ENCODING 20986
SWIDTH 1200 0
DWIDTH 12 0
BBX 10 11 1 -1
BITMAP
0800
4880
4880
4880
7F80
4800
0800
88C0
8840
8840
FFC0
ENDCHAR
STARTCHAR char0x51FD
ENCODING 20989
SWIDTH 1200 0
DWIDTH 12 0
BBX 11 11 0 -1
BITMAP
FFE0
0400
0800
6EE0
5340
5A40
4B40
76C0
6A40
4440
7FC0
ENDCHAR
STARTCHAR char0x5200
ENCODING 20992
SWIDTH 1200 0
DWIDTH 12 0
BBX 9 10 1 -1
BITMAP
FF80
0880
0880
0880
1080
1080
1080
2180
4100
8600
ENDCHAR
STARTCHAR char0x5203
ENCODING 20995
SWIDTH 1200 0
DWIDTH 12 0
BBX 9 10 1 -1
BITMAP
7F80
0880
2880
2880
2880
5080
1080
2080
4580
8200
ENDCHAR
STARTCHAR char0x5206
ENCODING 20998
SWIDTH 1200 0
DWIDTH 12 0
BBX 11 12 0 -2
BITMAP
0700
1100
3080
2040
4020
BF80
0880
0880
0880
1080
2480
4300
ENDCHAR
STARTCHAR char0x5207
ENCODING 20999
SWIDTH 1200 0
DWIDTH 12 0
BBX 11 11 0 -1
BITMAP
2000
27E0
2120
3920
E120
2120
2120
2E20
3A20
0420
18C0
ENDCHAR
STARTCHAR char0x5208
ENCODING 21000
SWIDTH 1200 0
DWIDTH 12 0
BBX 9 11 1 -1
BITMAP
1080
1280
9280
5280
3280
2280
3280
5280
4880
8880
0180
ENDCHAR
STARTCHAR char0x520A
ENCODING 21002
SWIDTH 1200 0
DWIDTH 12 0
BBX 10 11 0 -1
BITMAP
0040
7F40
1140
1140
1140
FF40
1140
1140
1140
1040
10C0
ENDCHAR
STARTCHAR char0x520E
ENCODING 21006
SWIDTH 1200 0
DWIDTH 12 0
BBX 11 12 0 -2
BITMAP
2060
20C0
3EC0
5AC0
DAC0
2AC0
2AC0
52C0
12C0
2240
4C40
0080
ENDCHAR
STARTCHAR char0x5211
ENCODING 21009
SWIDTH 1200 0
DWIDTH 12 0
BBX 10 11 1 -1
BITMAP
FCC0
4A40
4A40
4A40
4A40
FE40
4A40
4A40
4A40
4840
8980
ENDCHAR
STARTCHAR char0x5217
ENCODING 21015
SWIDTH 1200 0
DWIDTH 12 0
BBX 9 11 1 -1
BITMAP
0080
FE80
2280
3E80
4680
4A80
AA80
9A80
1280
2080
C180
ENDCHAR
STARTCHAR char0x521D
ENCODING 21021
SWIDTH 1200 0
DWIDTH 12 0
BBX 11 11 0 -1
BITMAP
2000
2BE0
5920
1120
2520
7920
B920
2A20
2240
2440
2DC0
ENDCHAR
STARTCHAR char0x5224
ENCODING 21028
SWIDTH 1200 0
DWIDTH 12 0
BBX 11 11 0 -1
BITMAP
3C60
3520
5320
9120
3F20
1120
7F20
9120
1120
1020
60C0
ENDCHAR
STARTCHAR char0x5225
ENCODING 21029
SWIDTH 1200 0
DWIDTH 12 0
BBX 10 11 1 -1
BITMAP
F8C0
8A80
8A80
8A80
FA80
2280
3E80
4A80
4A80
4880
B980
ENDCHAR
STARTCHAR char0x5229
ENCODING 21033
SWIDTH 1200 0
DWIDTH 12 0
BBX 11 12 0 -2
BITMAP
0C60
7120
1120
7F20
1120
1920
3520
3720
5520
9020
10C0
1000
ENDCHAR
STARTCHAR char0x522A
ENCODING 21034
SWIDTH 1200 0
DWIDTH 12 0
BBX 11 12 0 -2
BITMAP
7E20
5AA0
5AA0
5AA0
5AA0
FFA0
5AA0
5AA0
5AA0
5A20
5AE0
4400
ENDCHAR
STARTCHAR char0x522E
ENCODING 21038
SWIDTH 1200 0
DWIDTH 12 0
BBX 11 12 0 -2
BITMAP
0C60
7140
1140
1140
FF40
1140
1140
6D40
4540
4440
7CC0
4000
ENDCHAR
STARTCHAR char0x5230
ENCODING 21040
SWIDTH 1200 0
DWIDTH 12 0
BBX 10 12 1 -2
BITMAP
00C0
FA40
5240
4A40
FA40
2E40
2240
FA40
2240
7C40
80C0
0300
ENDCHAR
STARTCHAR char0x5236
ENCODING 21046
SWIDTH 1200 0
DWIDTH 12 0
BBX 10 11 1 -1
BITMAP
60C0
6280
FA80
A280
FE80
2280
FE80
A680
A680
AC80
2180
ENDCHAR
STARTCHAR char0x5237
ENCODING 21047
SWIDTH 1200 0
DWIDTH 12 0
BBX 11 11 0 -1
BITMAP
7E60
42A0
42A0
7EA0
48A0
7EA0
6AA0
6AA0
6A20
AE40
08C0
ENDCHAR
STARTCHAR char0x5238
ENCODING 21048
SWIDTH 1200 0
DWIDTH 12 0
BBX 11 11 0 -1
BITMAP
1480
34C0
7FE0
0900
0900
76E0
30C0
7FE0
8880
0880
7380
ENDCHAR
STARTCHAR char0x5239
ENCODING 21049
SWIDTH 1200 0
DWIDTH 12 0
BBX 10 11 1 -1
BITMAP
08C0
7240
3A40
C640
3240
FE40
3240
3A40
5A40
9C40
11C0
ENDCHAR
STARTCHAR char0x523A
ENCODING 21050
SWIDTH 1200 0
DWIDTH 12 0
BBX 11 11 0 -1
BITMAP
1820
10A0
7EA0
10A0
7EA0
52A0
5EA0
18A0
34A0
5220
90E0
ENDCHAR
STARTCHAR char0x523B
ENCODING 21051
SWIDTH 1200 0
DWIDTH 12 0
BBX 10 11 1 -1
BITMAP
30C0
2280
FE80
2280
CA80
3280
2680
CA80
1A80
2880
C580
ENDCHAR
STARTCHAR char0x5243
ENCODING 21059
SWIDTH 1200 0
DWIDTH 12 0
BBX 11 11 0 -1
BITMAP
2460
29A0
7F20
1320
7F20
5120
7F20
9B20
2B20
6E20
C8E0
ENDCHAR
STARTCHAR char0x5247
ENCODING 21063
SWIDTH 1200 0
DWIDTH 12 0
BBX 10 11 0 -1
BITMAP
7C40
4540
4540
7D40
4540
7D40
4540
7D40
2940
6440
C6C0
ENDCHAR
STARTCHAR char0x524A
ENCODING 21066
SWIDTH 1200 0
DWIDTH 12 0
BBX 11 11 0 -1
BITMAP
1020
3520
D320
7D20
4520
4520
7D20
4520
7D20
4420
5DC0
ENDCHAR
STARTCHAR char0x524B
ENCODING 21067
SWIDTH 1200 0
DWIDTH 12 0
BBX 11 12 0 -2
BITMAP
1040
1140
7F40
1140
7D40
4540
7D40
2940
29C0
2820
4FE0
8000
ENDCHAR
STARTCHAR char0x524C
ENCODING 21068
SWIDTH 1200 0
DWIDTH 12 0
BBX 11 12 0 -2
BITMAP
1060
7FA0
1120
7F20
5320
5320
7F20
1920
3520
5620
90C0
1000
ENDCHAR
STARTCHAR char0x524D
ENCODING 21069
SWIDTH 1200 0
DWIDTH 12 0
BBX 11 11 0 -1
BITMAP
1080
0900
FFE0
0000
7D40
4540
7D40
4540
7D40
4540
78C0
ENDCHAR
STARTCHAR char0x5254
ENCODING 21076
SWIDTH 1200 0
DWIDTH 12 0
BBX 11 11 0 -1
BITMAP
7DE0
4520
7D20
4520
7D20
2120
5F20
AB20
2B20
D220
2CC0
ENDCHAR
STARTCHAR char0x5256
ENCODING 21078
SWIDTH 1200 0
DWIDTH 12 0
BBX 10 11 1 -1
BITMAP
20C0
2340
DD40
4940
5140
AD40
0140
F940
8940
8840
F980
ENDCHAR
STARTCHAR char0x525B
ENCODING 21083
SWIDTH 1200 0
DWIDTH 12 0
BBX 10 12 1 -2
BITMAP
FC40
8540
DD40
B540
FD40
9540
DD40
DD40
FD40
CC40
96C0
8900
ENDCHAR
STARTCHAR char0x525D
ENCODING 21085
SWIDTH 1200 0
DWIDTH 12 0
BBX 11 11 0 -1
BITMAP
3060
2D40
2540
5940
FF40
0B40
4B40
6D40
2D40
4E40
FBC0
ENDCHAR
STARTCHAR char0x5261
ENCODING 21089
SWIDTH 1200 0
DWIDTH 12 0
BBX 10 12 1 -2
BITMAP
10C0
5540
9940
A940
6540
9340
9540
5D40
6840
6440
C380
8000
ENDCHAR
STARTCHAR char0x5269
ENCODING 21097
SWIDTH 1200 0
DWIDTH 12 0
BBX 11 11 0 -1
BITMAP
0E20
70A0
7EA0
10A0
76A0
34A0
EDA0
1AA0
3420
5220
91C0
ENDCHAR
STARTCHAR char0x526A
ENCODING 21098
SWIDTH 1200 0
DWIDTH 12 0
BBX 10 11 1 -1
BITMAP
1200
FFC0
0000
FA80
FA80
FA80
8B80
3000
FFC0
1840
F180
ENDCHAR
STARTCHAR char0x526F
ENCODING 21103
SWIDTH 1200 0
DWIDTH 12 0
BBX 10 11 1 -1
BITMAP
0040
FD40
7940
8940
7940
0140
FD40
A540
FC40
A440
FD80
ENDCHAR
STARTCHAR char0x5272
ENCODING 21106
SWIDTH 1200 0
DWIDTH 12 0
BBX 11 12 0 -2
BITMAP
0820
7EA0
4EA0
38A0
3EA0
08A0
FFA0
00A0
7EA0
4220
7EE0
0080
ENDCHAR
STARTCHAR char0x5275
ENCODING 21109
SWIDTH 1200 0
DWIDTH 12 0
BBX 10 12 0 -2
BITMAP
1040
2940
6740
D940
7D40
4540
7D40
7D40
7D40
6440
BD40
2080
ENDCHAR
STARTCHAR char0x527D
ENCODING 21117
SWIDTH 1200 0
DWIDTH 12 0
BBX 10 12 1 -2
BITMAP
FCC0
3180
FD80
B580
FD80
0180
7D80
FF80
5980
5880
D480
2180
ENDCHAR
STARTCHAR char0x527F
ENCODING 21119
SWIDTH 1200 0
DWIDTH 12 0
BBX 11 12 0 -2
BITMAP
2A20
54A0
7EA0
7CA0
7CA0
54A0
7CA0
7EA0
38A0
3420
D2A0
00C0
ENDCHAR
STARTCHAR char0x5283
ENCODING 21123
SWIDTH 1200 0
DWIDTH 12 0
BBX 10 12 0 -2
BITMAP
0840
7EC0
7FC0
7EC0
7EC0
08C0
F7C0
3AC0
3EC0
3E40
7F40
0180
ENDCHAR
STARTCHAR char0x5287
ENCODING 21127
SWIDTH 1200 0
DWIDTH 12 0
BBX 11 12 0 -2
BITMAP
0820
0EA0
7EA0
7EA0
4EA0
40A0
7EA0
7AA0
54A0
6E20
B6E0
1800
ENDCHAR
STARTCHAR char0x5288
ENCODING 21128
SWIDTH 1200 0
DWIDTH 12 0
BBX 11 11 0 -1
BITMAP
7980
4BE0
7A40
43E0
7880
6BC0
B880
7FC0
0840
0840
71C0
ENDCHAR
STARTCHAR char0x5289
ENCODING 21129
SWIDTH 1200 0
DWIDTH 12 0
BBX 11 12 0 -2
BITMAP
3E20
56A0
5AA0
7AA0
0CA0
14A0
7FA0
88A0
7EA0
2C20
7FC0
0080
ENDCHAR
STARTCHAR char0x528D
ENCODING 21133
SWIDTH 1200 0
DWIDTH 12 0
BBX 11 12 0 -1
BITMAP
1000
1820
3CA0
66A0
BFA0
7EA0
5AA0
5AA0
7EA0
24A0
5C20
FBE0
ENDCHAR
STARTCHAR char0x5291
ENCODING 21137
SWIDTH 1200 0
DWIDTH 12 0
BBX 11 11 0 -1
BITMAP
0820
FFA0
15A0
7EA0
5DA0
6EA0
22A0
3EA0
42A0
7E20
C2E0
ENDCHAR
STARTCHAR char0x5292
ENCODING 21138
SWIDTH 1200 0
DWIDTH 12 0
BBX 11 11 0 -1
BITMAP
13E0
28A0
64A0
F9A0
01A0
6EA0
6EA0
6CA0
2920
6D40
D6C0
ENDCHAR
STARTCHAR char0x529B
ENCODING 21147
SWIDTH 1200 0
DWIDTH 12 0
BBX 9 11 1 -1
BITMAP
0800
0800
FF80
0880
0880
0880
1080
1080
3080
6180
C700
ENDCHAR
STARTCHAR char0x529F
ENCODING 21151
SWIDTH 1200 0
DWIDTH 12 0
BBX 11 11 0 -1
BITMAP
0100
0100
7FE0
1120
1120
1120
1120
3E20
C220
0440
19C0
ENDCHAR
STARTCHAR char0x52A0
ENCODING 21152
SWIDTH 1200 0
DWIDTH 12 0
BBX 11 11 0 -1
BITMAP
1000
11E0
7D20
1520
2520
2520
2520
2520
2520
4520
D9E0
ENDCHAR
STARTCHAR char0x52A3
ENCODING 21155
SWIDTH 1200 0
DWIDTH 12 0
BBX 11 11 0 -1
BITMAP
0400
1480
24E0
4D20
0600
3800
C400
3FE0
0820
0840
F1C0
ENDCHAR
STARTCHAR char0x52A4
ENCODING 21156
SWIDTH 1200 0
DWIDTH 12 0
BBX 11 12 0 -2
BITMAP
0900
7500
43E0
4120
7D20
4920
4920
4920
4940
4A40
8F40
0880
ENDCHAR
STARTCHAR char0x52A9
ENCODING 21161
SWIDTH 1200 0
DWIDTH 12 0
BBX 11 12 0 -2
BITMAP
0100
7900
4FE0
4920
7920
4920
7940
4A40
4E40
7240
84C0
0800
ENDCHAR
STARTCHAR char0x52AA
ENCODING 21162
SWIDTH 1200 0
DWIDTH 12 0
BBX 10 11 1 -1
BITMAP
2080
FF80
4A80
7100
9B80
6C40
8800
FF80
1080
1080
E380
ENDCHAR
STARTCHAR char0x52AB
ENCODING 21163
SWIDTH 1200 0
DWIDTH 12 0
BBX 11 11 0 -1
BITMAP
1100
1100
7FE0
1120
1120
FD20
2120
2920
2D20
7640
06C0
ENDCHAR
STARTCHAR char0x52BE
ENCODING 21182
SWIDTH 1200 0
DWIDTH 12 0
BBX 10 11 1 -1
BITMAP
2100
2100
FFC0
D140
D140
6A40
4A40
9240
3240
4C40
8D80
ENDCHAR
STARTCHAR char0x52C1
ENCODING 21185
SWIDTH 1200 0
DWIDTH 12 0
BBX 10 11 1 -1
BITMAP
F900
0100
6900
D7C0
B140
F940
FA40
2240
2240
FA40
0D80
ENDCHAR
STARTCHAR char0x52C3
ENCODING 21187
SWIDTH 1200 0
DWIDTH 12 0
BBX 10 11 1 -1
BITMAP
2100
FD00
2100
FFC0
8540
FE40
1240
2E80
F280
2480
6F80
ENDCHAR
STARTCHAR char0x52C5
ENCODING 21189
SWIDTH 1200 0
DWIDTH 12 0
BBX 11 11 0 -1
BITMAP
1080
7E80
1080
7FE0
54A0
54A0
7CA0
1920
3520
7520
D2C0
ENDCHAR
STARTCHAR char0x52C7
ENCODING 21191
SWIDTH 1200 0
DWIDTH 12 0
BBX 10 12 1 -2
BITMAP
7F00
1200
0C00
FF80
FF80
8880
FF80
0800
FFC0
1040
62C0
8100
ENDCHAR
STARTCHAR char0x52C9
ENCODING 21193
SWIDTH 1200 0
DWIDTH 12 0
BBX 11 11 0 -1
BITMAP
1080
3C80
2BE0
7EA0
AAA0
2B20
3F20
3940
1AC0
2820
4FE0
ENDCHAR
STARTCHAR char0x52CD
ENCODING 21197
SWIDTH 1200 0
DWIDTH 12 0
BBX 11 11 0 -1
BITMAP
1180
1100
6D00
7EE0
4520
4520
7D20
5920
7520
5620
B6C0
ENDCHAR
STARTCHAR char0x52D2
ENCODING 21202
SWIDTH 1200 0
DWIDTH 12 0
BBX 10 11 1 -1
BITMAP
5300
F900
5100
76C0
FA40
AA40
AA40
FA40
FA40
2480
2D80
ENDCHAR
STARTCHAR char0x52D5
ENCODING 21205
SWIDTH 1200 0
DWIDTH 12 0
BBX 10 11 1 -1
BITMAP
1900
E100
F900
23C0
F940
FA40
AA40
7240
FA40
2440
DD80
ENDCHAR
STARTCHAR char0x52D6
ENCODING 21206
SWIDTH 1200 0
DWIDTH 12 0
BBX 9 11 1 -1
BITMAP
FB00
8A00
FA00
8F80
FA80
FA80
8A80
FA80
8A80
FA80
FD80
ENDCHAR
STARTCHAR char0x52D8
ENCODING 21208
SWIDTH 1200 0
DWIDTH 12 0
BBX 10 12 1 -2
BITMAP
4900
FD00
4BC0
7940
7940
4940
FD40
B240
D640
8A40
FC80
8100
ENDCHAR
STARTCHAR char0x52D9
ENCODING 21209
SWIDTH 1200 0
DWIDTH 12 0
BBX 11 12 0 -2
BITMAP
7900
0E00
33E0
1540
FC80
3BC0
3D20
57C0
5240
9240
5C40
2180
ENDCHAR
STARTCHAR char0x52DB
ENCODING 21211
SWIDTH 1200 0
DWIDTH 12 0
BBX 11 12 0 -2
BITMAP
7C80
4480
7C80
03E0
7D20
7D20
4520
7D20
7D20
2A40
46C0
8000
ENDCHAR
STARTCHAR char0x52DD
ENCODING 21213
SWIDTH 1200 0
DWIDTH 12 0
BBX 11 11 0 -1
BITMAP
7380
5540
5BE0
7280
5FE0
5440
7D20
57C0
5240
5240
BDC0
ENDCHAR
STARTCHAR char0x52DE
ENCODING 21214
SWIDTH 1200 0
DWIDTH 12 0
BBX 10 11 1 -1
BITMAP
3180
6D80
B780
5380
9C80
FFC0
8840
7F80
0880
1100
E700
ENDCHAR
STARTCHAR char0x52DF
ENCODING 21215
SWIDTH 1200 0
DWIDTH 12 0
BBX 11 11 0 -1
BITMAP
0900
7FE0
3F80
2080
3F80
3F80
0800
77E0
3F80
C8E0
7B80
ENDCHAR
STARTCHAR char0x52E2
ENCODING 21218
SWIDTH 1200 0
DWIDTH 12 0
BBX 10 11 1 -1
BITMAP
2300
FB00
FA80
5780
AA80
7BC0
3C40
C800
FF80
1080
F380
ENDCHAR
STARTCHAR char0x52E3
ENCODING 21219
SWIDTH 1200 0
DWIDTH 12 0
BBX 10 11 1 -1
BITMAP
2100
F900
FFC0
2140
D940
F940
F940
8940
FA40
FA40
8F80
ENDCHAR
STARTCHAR char0x52E4
ENCODING 21220
SWIDTH 1200 0
DWIDTH 12 0
BBX 11 11 0 -1
BITMAP
2880
7E80
2880
3BE0
7CA0
54A0
7D20
7D20
1120
7D20
FEC0
ENDCHAR
STARTCHAR char0x52F3
ENCODING 21235
SWIDTH 1200 0
DWIDTH 12 0
BBX 10 11 1 -1
BITMAP
3900
E100
FD00
FFC0
ED40
FD40
2140
F940
F940
DA40
BF80
ENDCHAR
STARTCHAR char0x52F5
ENCODING 21237
SWIDTH 1200 0
DWIDTH 12 0
BBX 11 11 0 -1
BITMAP
7F80
5480
7E80
7FE0
6AA0
7EA0
7EA0
7EA0
6EA0
7320
A7E0
ENDCHAR
STARTCHAR char0x52F8
ENCODING 21240
SWIDTH 1200 0
DWIDTH 12 0
BBX 10 11 1 -1
BITMAP
6900
FD00
0100
FFC0
FD40
5140
FD40
FD40
5140
7E40
7F80
ENDCHAR
STARTCHAR char0x52FA
ENCODING 21242
SWIDTH 1200 0
DWIDTH 12 0
BBX 10 11 0 -1
BITMAP
1000
1000
3FC0
2040
4040
C040
1F40
0040
0040
0040
03C0
ENDCHAR
STARTCHAR char0x52FB
ENCODING 21243
SWIDTH 1200 0
DWIDTH 12 0
BBX 11 11 0 -1
BITMAP
2000
3FC0
2060
4040
5F40
8040
0040
1F40
2040
0040
01C0
ENDCHAR
STARTCHAR char0x52FE
ENCODING 21246
SWIDTH 1200 0
DWIDTH 12 0
BBX 11 11 0 -1
BITMAP
1000
3FE0
2020
4820
4820
8A20
1120
1160
7F40
00C0
03C0
ENDCHAR
STARTCHAR char0x52FF
ENCODING 21247
SWIDTH 1200 0
DWIDTH 12 0
BBX 11 11 0 -1
BITMAP
1000
1FE0
2520
2920
4920
9120
3220
6620
8440
1840
31C0
ENDCHAR
STARTCHAR char0x5305
ENCODING 21253
SWIDTH 1200 0
DWIDTH 12 0
BBX 11 11 0 -1
BITMAP
1000
1FC0
2040
6040
FE40
2240
3E40
22C0
2040
2020
3FE0
ENDCHAR
STARTCHAR char0x5308
ENCODING 21256
SWIDTH 1200 0
DWIDTH 12 0
BBX 11 12 0 -2
BITMAP
1000
3FE0
2020
4220
EAA0
24A0
2AA0
3BA0
20A0
3FA0
01C0
0100
ENDCHAR
STARTCHAR char0x530D
ENCODING 21261
SWIDTH 1200 0
DWIDTH 12 0
BBX 11 11 0 -1
BITMAP
2000
3FE0
2620
7FA0
8420
3F20
2520
3F20
3F20
2520
27C0
ENDCHAR
STARTCHAR char0x530F
ENCODING 21263
SWIDTH 1200 0
DWIDTH 12 0
BBX 11 11 0 -1
BITMAP
2100
7FE0
3220
4C20
F7A0
02A0
FFA0
22E0
5A00
4A20
7BE0
ENDCHAR
STARTCHAR char0x5310
ENCODING 21264
SWIDTH 1200 0
DWIDTH 12 0
BBX 10 12 0 -2
BITMAP
2000
3FC0
5F40
4040
9F40
2140
1E40
3F40
3F40
2540
3A40
0180
ENDCHAR
STARTCHAR char0x5315
ENCODING 21269
SWIDTH 1200 0
DWIDTH 12 0
BBX 9 11 2 -1
BITMAP
8000
8000
8300
8400
B800
C000
8000
8000
8080
8180
7F00
ENDCHAR
STARTCHAR char0x5316
ENCODING 21270
SWIDTH 1200 0
DWIDTH 12 0
BBX 11 11 0 -1
BITMAP
0A00
1200
1240
32E0
7380
D200
1200
1200
1240
1220
13E0
ENDCHAR
STARTCHAR char0x5317
ENCODING 21271
SWIDTH 1200 0
DWIDTH 12 0
BBX 11 11 0 -1
BITMAP
0B00
0900
0920
7940
0980
0900
0900
0900
1900
E920
09E0
ENDCHAR
STARTCHAR char0x5319
ENCODING 21273
SWIDTH 1200 0
DWIDTH 12 0
BBX 11 11 0 -1
BITMAP
7D00
4500
7D40
45C0
7D00
7D00
1100
7120
5DE0
7000
9FE0
ENDCHAR
STARTCHAR char0x5320
ENCODING 21280
SWIDTH 1200 0
DWIDTH 12 0
BBX 10 11 1 -1
BITMAP
FFC0
8000
8300
BC00
A000
BF80
A400
A400
A400
C400
FFC0
ENDCHAR
STARTCHAR char0x5321
ENCODING 21281
SWIDTH 1200 0
DWIDTH 12 0
BBX 10 11 1 -1
BITMAP
FFC0
8000
8000
BF80
8400
BF00
8400
8400
FF80
8000
FFC0
ENDCHAR
STARTCHAR char0x5323
ENCODING 21283
SWIDTH 1200 0
DWIDTH 12 0
BBX 10 11 1 -1
BITMAP
FFC0
8000
BF80
A480
A480
BF80
A480
BF80
8400
8400
FFC0
ENDCHAR
STARTCHAR char0x532A
ENCODING 21290
SWIDTH 1200 0
DWIDTH 12 0
BBX 10 11 1 -1
BITMAP
FFC0
8000
8A00
BB80
8A00
BB80
8A00
F3C0
9200
A200
FFC0
ENDCHAR
STARTCHAR char0x532F
ENCODING 21295
SWIDTH 1200 0
DWIDTH 12 0
BBX 10 11 1 -1
BITMAP
FFC0
C900
AA00
AF80
DA00
AF80
AF80
BA00
AFC0
C800
FFC0
ENDCHAR
STARTCHAR char0x5339
ENCODING 21305
SWIDTH 1200 0
DWIDTH 12 0
BBX 10 10 1 -1
BITMAP
FFC0
9400
9400
9500
9480
B380
E000
8000
8000
FFC0
ENDCHAR
STARTCHAR char0x533F
ENCODING 21311
SWIDTH 1200 0
DWIDTH 12 0
BBX 10 11 1 -1
BITMAP
FFC0
9200
FFC0
9100
8800
BF80
9F80
F080
9080
9F80
FFC0
ENDCHAR
STARTCHAR char0x5340
ENCODING 21312
SWIDTH 1200 0
DWIDTH 12 0
BBX 10 11 1 -1
BITMAP
FFC0
8000
9F00
9100
9F00
8000
BB80
AA80
BB80
AA80
FFC0
ENDCHAR
STARTCHAR char0x5341
ENCODING 21313
SWIDTH 1200 0
DWIDTH 12 0
BBX 10 12 1 -2
BITMAP
0800
0800
0800
0800
0800
FFC0
0800
0800
0800
0800
0800
0800
ENDCHAR
STARTCHAR char0x5343
ENCODING 21315
SWIDTH 1200 0
DWIDTH 12 0
BBX 11 11 0 -1
BITMAP
01C0
7E00
0400
0400
0400
FFE0
0400
0400
0400
0400
0400
ENDCHAR
STARTCHAR char0x5344
ENCODING 21316
SWIDTH 1200 0
DWIDTH 12 0
BBX 11 11 0 -1
BITMAP
1080
1080
1080
1080
FFE0
1080
1080
1080
1080
1080
1080
ENDCHAR
STARTCHAR char0x5347
ENCODING 21319
SWIDTH 1200 0
DWIDTH 12 0
BBX 11 12 0 -2
BITMAP
0280
1C80
6880
0880
0880
FFE0
0880
1080
1080
3080
C080
0080
ENDCHAR
STARTCHAR char0x5348
ENCODING 21320
SWIDTH 1200 0
DWIDTH 12 0
BBX 11 11 0 -1
BITMAP
1000
1000
3FC0
2600
4600
0600
FFE0
0600
0600
0600
0600
ENDCHAR
STARTCHAR char0x5349
ENCODING 21321
SWIDTH 1200 0
DWIDTH 12 0
BBX 10 11 1 -1
BITMAP
0800
0800
FFC0
2900
2900
2100
FFC0
2100
2100
4100
8100
ENDCHAR
STARTCHAR char0x534A
ENCODING 21322
SWIDTH 1200 0
DWIDTH 12 0
BBX 11 12 0 -2
BITMAP
2500
1480
2440
5FA0
0400
0400
FFE0
0400
0400
0400
0400
0400
ENDCHAR
STARTCHAR char0x534D
ENCODING 21325
SWIDTH 1200 0
DWIDTH 12 0
BBX 10 11 1 -1
BITMAP
F840
0840
0840
0840
0840
FFC0
8800
8800
8800
8800
8FC0
ENDCHAR
STARTCHAR char0x5351
ENCODING 21329
SWIDTH 1200 0
DWIDTH 12 0
BBX 11 12 0 -2
BITMAP
0400
3FC0
4440
3FC0
4440
3FC0
0D00
3100
FFE0
0100
0100
0100
ENDCHAR
STARTCHAR char0x5352
ENCODING 21330
SWIDTH 1200 0
DWIDTH 12 0
BBX 11 12 0 -2
BITMAP
0400
7FE0
1080
1100
3180
6A40
4420
0400
FFE0
0400
0400
0400
ENDCHAR
STARTCHAR char0x5353
ENCODING 21331
SWIDTH 1200 0
DWIDTH 12 0
BBX 11 12 0 -2
BITMAP
0400
07C0
0400
3FC0
2040
3FC0
2040
1F80
FFE0
0400
0400
0400
ENDCHAR
STARTCHAR char0x5354
ENCODING 21332
SWIDTH 1200 0
DWIDTH 12 0
BBX 11 12 0 -2
BITMAP
2200
2FC0
2240
F240
2DC0
2880
3FE0
2AA0
2AA0
2AA0
3BC0
2400
ENDCHAR
STARTCHAR char0x5357
ENCODING 21335
SWIDTH 1200 0
DWIDTH 12 0
BBX 11 11 0 -1
BITMAP
0400
FFE0
0400
7FC0
4940
4A40
5FC0
4440
5FC0
4440
44C0
ENDCHAR
STARTCHAR char0x535A
ENCODING 21338
SWIDTH 1200 0
DWIDTH 12 0
BBX 11 11 0 -1
BITMAP
21C0
2FE0
2100
FFC0
2FC0
2940
2FC0
2080
2FE0
2480
2580
ENDCHAR
STARTCHAR char0x535C
ENCODING 21340
SWIDTH 1200 0
DWIDTH 12 0
BBX 4 11 5 -1
BITMAP
80
80
80
80
C0
E0
90
80
80
80
80
ENDCHAR
STARTCHAR char0x535E
ENCODING 21342
SWIDTH 1200 0
DWIDTH 12 0
BBX 11 11 0 -1
BITMAP
0C00
0400
0600
FDE0
0400
0700
0480
0440
0400
0400
0400
ENDCHAR
STARTCHAR char0x5360
ENCODING 21344
SWIDTH 1200 0
DWIDTH 12 0
BBX 9 11 1 -1
BITMAP
0800
0800
0F80
0800
0800
FF80
8080
8080
8080
8080
FF80
ENDCHAR
STARTCHAR char0x5366
ENCODING 21350
SWIDTH 1200 0
DWIDTH 12 0
BBX 11 12 0 -2
BITMAP
1880
1080
7E80
1080
FE80
00E0
10A0
7E80
1080
1280
7C80
0080
ENDCHAR
STARTCHAR char0x5368
ENCODING 21352
SWIDTH 1200 0
DWIDTH 12 0
BBX 9 11 1 -1
BITMAP
0800
0F80
7F00
4100
4F00
4900
B680
BE80
A280
BE80
A380
ENDCHAR
STARTCHAR char0x536F
ENCODING 21359
SWIDTH 1200 0
DWIDTH 12 0
BBX 11 12 0 -2
BITMAP
0C00
73E0
4A20
4A20
4A20
4A20
4A20
FA20
0A40
12C0
2200
4200
ENDCHAR
STARTCHAR char0x5370
ENCODING 21360
SWIDTH 1200 0
DWIDTH 12 0
BBX 9 12 1 -2
BITMAP
3000
C780
8480
8480
F480
8480
8480
8480
FC80
8580
8400
0400
ENDCHAR
STARTCHAR char0x5371
ENCODING 21361
SWIDTH 1200 0
DWIDTH 12 0
BBX 11 12 0 -2
BITMAP
0900
1700
6200
BFE0
2000
3F80
3080
3080
31C0
5020
5FE0
8000
ENDCHAR
STARTCHAR char0x5374
ENCODING 21364
SWIDTH 1200 0
DWIDTH 12 0
BBX 10 11 1 -1
BITMAP
2000
23C0
FA40
2240
2240
FE40
4240
5A40
5A40
E780
0200
ENDCHAR
STARTCHAR char0x5375
ENCODING 21365
SWIDTH 1200 0
DWIDTH 12 0
BBX 10 11 0 -1
BITMAP
0C00
73C0
4A40
6A40
5BC0
5AC0
5A40
6A40
8AC0
1200
7200
ENDCHAR
STARTCHAR char0x5377
ENCODING 21367
SWIDTH 1200 0
DWIDTH 12 0
BBX 11 11 0 -1
BITMAP
1500
3480
5FC0
8A00
FFE0
1100
3F80
E160
2700
2040
1F80
ENDCHAR
STARTCHAR char0x537D
ENCODING 21373
SWIDTH 1200 0
DWIDTH 12 0
BBX 10 11 1 -1
BITMAP
23C0
FA40
8A40
FA40
8A40
FA40
9240
FA40
8240
8B80
FA00
ENDCHAR
STARTCHAR char0x537F
ENCODING 21375
SWIDTH 1200 0
DWIDTH 12 0
BBX 11 11 0 -1
BITMAP
9600
7EE0
5AA0
5EA0
5AA0
5EA0
78A0
DEA0
28E0
2E80
4880
ENDCHAR
STARTCHAR char0x5384
ENCODING 21380
SWIDTH 1200 0
DWIDTH 12 0
BBX 11 11 0 -1
BITMAP
3FE0
2000
2000
3F80
3080
3080
3080
5380
5040
5020
CFC0
ENDCHAR
STARTCHAR char0x5393
ENCODING 21395
SWIDTH 1200 0
DWIDTH 12 0
BBX 11 12 0 -2
BITMAP
3FE0
2200
2200
3FC0
2200
3FE0
2200
4200
5FC0
4200
7FE0
8000
ENDCHAR
STARTCHAR char0x5398
ENCODING 21400
SWIDTH 1200 0
DWIDTH 12 0
BBX 11 11 0 -1
BITMAP
7FE0
4000
5FC0
5240
5FC0
5240
5FC0
4200
5FC0
4200
BFE0
ENDCHAR
STARTCHAR char0x539A
ENCODING 21402
SWIDTH 1200 0
DWIDTH 12 0
BBX 11 12 0 -2
BITMAP
7FE0
4000
4F80
4F80
4880
4F80
5F80
4300
7FE0
4200
4A00
8400
ENDCHAR
STARTCHAR char0x539F
ENCODING 21407
SWIDTH 1200 0
DWIDTH 12 0
BBX 11 11 0 -1
BITMAP
7FE0
4200
5FC0
5040
5FC0
5040
5040
4F80
4A80
5240
E660
ENDCHAR
STARTCHAR char0x53A0
ENCODING 21408
SWIDTH 1200 0
DWIDTH 12 0
BBX 11 12 0 -2
BITMAP
7FE0
4000
5F40
5340
5F40
5340
5F40
5340
5F40
5440
9AC0
2200
ENDCHAR
STARTCHAR char0x53A5
ENCODING 21413
SWIDTH 1200 0
DWIDTH 12 0
BBX 11 11 0 -1
BITMAP
7FE0
4500
5500
6540
5BE0
6EC0
6C80
5C80
6980
5140
B620
ENDCHAR
STARTCHAR char0x53A6
ENCODING 21414
SWIDTH 1200 0
DWIDTH 12 0
BBX 11 11 0 -1
BITMAP
7FE0
4000
5FE0
5FC0
5FC0
5FC0
5040
4F80
5FC0
6500
BFE0
ENDCHAR
STARTCHAR char0x53AD
ENCODING 21421
SWIDTH 1200 0
DWIDTH 12 0
BBX 11 12 0 -2
BITMAP
7FE0
4000
5CC0
5CA0
5FE0
4080
7C80
5C80
6540
7D40
6520
8A00
ENDCHAR
STARTCHAR char0x53BB
ENCODING 21435
SWIDTH 1200 0
DWIDTH 12 0
BBX 11 11 0 -1
BITMAP
0400
0400
7FC0
0400
0400
FFE0
0800
0900
1880
13C0
7C60
ENDCHAR
STARTCHAR char0x53C3
ENCODING 21443
SWIDTH 1200 0
DWIDTH 12 0
BBX 10 12 1 -2
BITMAP
1200
1700
6B80
6A80
5FC0
B600
6900
B4C0
5900
E600
3800
C000
ENDCHAR
STARTCHAR char0x53C8
ENCODING 21448
SWIDTH 1200 0
DWIDTH 12 0
BBX 10 10 1 -1
BITMAP
7F00
2100
2100
1200
1200
0C00
0C00
0C00
3300
C0C0
ENDCHAR
STARTCHAR char0x53C9
ENCODING 21449
SWIDTH 1200 0
DWIDTH 12 0
BBX 11 11 0 -1
BITMAP
0080
3F40
1480
0A80
0A80
0900
0600
0200
0F00
1880
E060
ENDCHAR
STARTCHAR char0x53CA
ENCODING 21450
SWIDTH 1200 0
DWIDTH 12 0
BBX 11 12 0 -2
BITMAP
7F80
1080
1100
1100
1FE0
1840
14C0
1680
2300
2280
DC60
6000
ENDCHAR
STARTCHAR char0x53CB
ENCODING 21451
SWIDTH 1200 0
DWIDTH 12 0
BBX 10 12 1 -2
BITMAP
1000
1000
FFC0
1000
3F80
2100
3100
4A00
C600
8E00
71C0
8000
ENDCHAR
STARTCHAR char0x53CD
ENCODING 21453
SWIDTH 1200 0
DWIDTH 12 0
BBX 11 11 0 -2
BITMAP
3FE0
2000
2080
3F80
2880
2900
4500
4200
4500
F8C0
8060
ENDCHAR
STARTCHAR char0x53D4
ENCODING 21460
SWIDTH 1200 0
DWIDTH 12 0
BBX 11 11 0 -1
BITMAP
1000
13C0
1C60
1240
7D40
1940
5580
5480
5580
9240
7420
ENDCHAR
STARTCHAR char0x53D6
ENCODING 21462
SWIDTH 1200 0
DWIDTH 12 0
BBX 10 12 1 -2
BITMAP
FC00
4800
4FC0
7A80
4A80
4A80
7980
4900
4B80
FA40
0C40
0800
ENDCHAR
STARTCHAR char0x53D7
ENCODING 21463
SWIDTH 1200 0
DWIDTH 12 0
BBX 10 11 1 -1
BITMAP
0300
7D00
4980
6900
FFC0
8040
FF40
3200
1E00
0C00
F3C0
ENDCHAR
STARTCHAR char0x53DB
ENCODING 21467
SWIDTH 1200 0
DWIDTH 12 0
BBX 11 11 0 -1
BITMAP
1000
3BE0
5600
7A40
93A0
1340
7F40
12C0
2280
24C0
CB20
ENDCHAR
STARTCHAR char0x53E1
ENCODING 21473
SWIDTH 1200 0
DWIDTH 12 0
BBX 11 11 0 -1
BITMAP
1000
1FE0
7E20
7F40
3540
5F40
6540
DEC0
7C80
7D40
7F20
ENDCHAR
STARTCHAR char0x53E2
ENCODING 21474
SWIDTH 1200 0
DWIDTH 12 0
BBX 10 12 1 -2
BITMAP
5500
FFC0
1200
7F80
7F80
0400
FFC0
7F80
4AC0
7900
FA80
0C40
ENDCHAR
STARTCHAR char0x53E3
ENCODING 21475
SWIDTH 1200 0
DWIDTH 12 0
BBX 9 10 1 -1
BITMAP
FF80
8080
8080
8080
8080
8080
8080
8080
FF80
8000
ENDCHAR
STARTCHAR char0x53E4
ENCODING 21476
SWIDTH 1200 0
DWIDTH 12 0
BBX 10 11 1 -1
BITMAP
0800
0800
FFC0
0800
0800
0800
7F80
4080
4080
4080
7F80
ENDCHAR
STARTCHAR char0x53E5
ENCODING 21477
SWIDTH 1200 0
DWIDTH 12 0
BBX 10 12 0 -2
BITMAP
2000
3FC0
2040
4040
7F40
A140
2140
2140
3F40
0040
01C0
0100
ENDCHAR
STARTCHAR char0x53E9
ENCODING 21481
SWIDTH 1200 0
DWIDTH 12 0
BBX 9 12 1 -2
BITMAP
F780
9480
9480
9480
9480
9480
9480
9480
F480
8580
0400
0400
ENDCHAR
STARTCHAR char0x53EA
ENCODING 21482
SWIDTH 1200 0
DWIDTH 12 0
BBX 11 10 0 -1
BITMAP
3FC0
2040
2040
2040
2040
3FC0
0900
1080
20C0
C060
ENDCHAR
STARTCHAR char0x53EB
ENCODING 21483
SWIDTH 1200 0
DWIDTH 12 0
BBX 10 11 1 -1
BITMAP
0080
E480
A480
A480
A480
A480
A480
A7C0
FC80
A080
0080
ENDCHAR
STARTCHAR char0x53EC
ENCODING 21484
SWIDTH 1200 0
DWIDTH 12 0
BBX 9 10 1 -1
BITMAP
FF80
1080
2080
6380
8000
7F80
4080
4080
4080
7F80
ENDCHAR
STARTCHAR char0x53ED
ENCODING 21485
SWIDTH 1200 0
DWIDTH 12 0
BBX 10 11 1 -1
BITMAP
0F00
E100
A100
A900
A900
A900
B100
F080
1080
20C0
4040
ENDCHAR
STARTCHAR char0x53EF
ENCODING 21487
SWIDTH 1200 0
DWIDTH 12 0
BBX 10 11 1 -1
BITMAP
FFC0
0080
0080
7C80
4480
4480
4480
7C80
4480
0080
0380
ENDCHAR
STARTCHAR char0x53F0
ENCODING 21488
SWIDTH 1200 0
DWIDTH 12 0
BBX 10 11 1 -1
BITMAP
1000
2200
2100
4380
FCC0
0080
7F80
4080
4080
4080
7F80
ENDCHAR
STARTCHAR char0x53F1
ENCODING 21489
SWIDTH 1200 0
DWIDTH 12 0
BBX 10 11 1 -1
BITMAP
0400
E4C0
A480
A500
A600
A600
AC00
B400
E400
A440
07C0
ENDCHAR
STARTCHAR char0x53F2
ENCODING 21490
SWIDTH 1200 0
DWIDTH 12 0
BBX 10 11 1 -1
BITMAP
0800
0800
FF80
8880
8880
FF80
8880
2800
3800
1800
E7C0
ENDCHAR
STARTCHAR char0x53F3
ENCODING 21491
SWIDTH 1200 0
DWIDTH 12 0
BBX 10 11 1 -1
BITMAP
1000
1000
FFC0
2000
2000
3F80
4080
C080
C080
4080
3F80
ENDCHAR
ENDFONT
